<?xml version="1.0" encoding="UTF-8" standalone="no"?><svg xmlns="http://www.w3.org/2000/svg" xmlns:xlink="http://www.w3.org/1999/xlink" clip-rule="evenodd" stroke-miterlimit="4.00" viewBox="0 0 1024 768"><desc>SVG generated by Keynote</desc><defs></defs><g transform="matrix(1.00, 0.00, -0.00, -1.00, 0.0, 768.0)"><path d="M 0.0 768.0 L 1024.0 768.0 L 1024.0 0.0 L 0.0 0.0 Z M 0.0 768.0 " fill="#000000"></path><text xml:space="preserve" font-family="Helvetica-Bold" font-weight="bold" font-size="41.0" fill="#F9FAFF" transform="matrix(1.00, 0.00, -0.00, -1.00, 149.0, 687.0)">o</text><text xml:space="preserve" font-family="Helvetica-Bold" font-weight="bold" font-size="41.0" fill="#F9FAFF" transform="matrix(1.00, 0.00, -0.00, -1.00, 174.0, 687.0)">u</text><text xml:space="preserve" font-family="Helvetica-Bold" font-weight="bold" font-size="41.0" fill="#F9FAFF" transform="matrix(1.00, 0.00, -0.00, -1.00, 199.1, 687.0)">r</text><text xml:space="preserve" font-family="Helvetica-Bold" font-weight="bold" font-size="41.0" fill="#F9FAFF" transform="matrix(1.00, 0.00, -0.00, -1.00, 215.0, 687.0)"> </text><text xml:space="preserve" font-family="Helvetica-Bold" font-weight="bold" font-size="41.0" fill="#F9FAFF" transform="matrix(1.00, 0.00, -0.00, -1.00, 226.4, 687.0)">p</text><text xml:space="preserve" font-family="Helvetica-Bold" font-weight="bold" font-size="41.0" fill="#F9FAFF" transform="matrix(1.00, 0.00, -0.00, -1.00, 251.4, 687.0)">r</text><text xml:space="preserve" font-family="Helvetica-Bold" font-weight="bold" font-size="41.0" fill="#F9FAFF" transform="matrix(1.00, 0.00, -0.00, -1.00, 267.4, 687.0)">o</text><text xml:space="preserve" font-family="Helvetica-Bold" font-weight="bold" font-size="41.0" fill="#F9FAFF" transform="matrix(1.00, 0.00, -0.00, -1.00, 292.4, 687.0)">j</text><text xml:space="preserve" font-family="Helvetica-Bold" font-weight="bold" font-size="41.0" fill="#F9FAFF" transform="matrix(1.00, 0.00, -0.00, -1.00, 303.8, 687.0)">e</text><text xml:space="preserve" font-family="Helvetica-Bold" font-weight="bold" font-size="41.0" fill="#F9FAFF" transform="matrix(1.00, 0.00, -0.00, -1.00, 326.6, 687.0)">c</text><text xml:space="preserve" font-family="Helvetica-Bold" font-weight="bold" font-size="41.0" fill="#F9FAFF" transform="matrix(1.00, 0.00, -0.00, -1.00, 349.4, 687.0)">t</text><text xml:space="preserve" font-family="Helvetica-Light" font-size="41.0" fill="#A6AAA8" transform="matrix(1.00, 0.00, -0.00, -1.00, 149.0, 628.0)">a</text><text xml:space="preserve" font-family="Helvetica-Light" font-size="41.0" fill="#A6AAA8" transform="matrix(1.00, 0.00, -0.00, -1.00, 171.8, 628.0)"> </text><text xml:space="preserve" font-family="Helvetica-Light" font-size="41.0" fill="#A6AAA8" transform="matrix(1.00, 0.00, -0.00, -1.00, 183.2, 628.0)">c</text><text xml:space="preserve" font-family="Helvetica-Light" font-size="41.0" fill="#A6AAA8" transform="matrix(1.00, 0.00, -0.00, -1.00, 206.0, 628.0)">r</text><text xml:space="preserve" font-family="Helvetica-Light" font-size="41.0" fill="#A6AAA8" transform="matrix(1.00, 0.00, -0.00, -1.00, 218.9, 628.0)">o</text><text xml:space="preserve" font-family="Helvetica-Light" font-size="41.0" fill="#A6AAA8" transform="matrix(1.00, 0.00, -0.00, -1.00, 241.7, 628.0)">s</text><text xml:space="preserve" font-family="Helvetica-Light" font-size="41.0" fill="#A6AAA8" transform="matrix(1.00, 0.00, -0.00, -1.00, 262.2, 628.0)">s</text><text xml:space="preserve" font-family="Helvetica-Light" font-size="41.0" fill="#A6AAA8" transform="matrix(1.00, 0.00, -0.00, -1.00, 282.7, 628.0)"> </text><text xml:space="preserve" font-family="Helvetica-Light" font-size="41.0" fill="#A6AAA8" transform="matrix(1.00, 0.00, -0.00, -1.00, 294.1, 628.0)">p</text><text xml:space="preserve" font-family="Helvetica-Light" font-size="41.0" fill="#A6AAA8" transform="matrix(1.00, 0.00, -0.00, -1.00, 319.1, 628.0)">l</text><text xml:space="preserve" font-family="Helvetica-Light" font-size="41.0" fill="#A6AAA8" transform="matrix(1.00, 0.00, -0.00, -1.00, 328.3, 628.0)">a</text><text xml:space="preserve" font-family="Helvetica-Light" font-size="41.0" fill="#A6AAA8" transform="matrix(1.00, 0.00, -0.00, -1.00, 351.0, 628.0)">t</text><text xml:space="preserve" font-family="Helvetica-Light" font-size="41.0" fill="#A6AAA8" transform="matrix(1.00, 0.00, -0.00, -1.00, 362.4, 628.0)">f</text><text xml:space="preserve" font-family="Helvetica-Light" font-size="41.0" fill="#A6AAA8" transform="matrix(1.00, 0.00, -0.00, -1.00, 373.8, 628.0)">o</text><text xml:space="preserve" font-family="Helvetica-Light" font-size="41.0" fill="#A6AAA8" transform="matrix(1.00, 0.00, -0.00, -1.00, 396.6, 628.0)">r</text><text xml:space="preserve" font-family="Helvetica-Light" font-size="41.0" fill="#A6AAA8" transform="matrix(1.00, 0.00, -0.00, -1.00, 411.0, 628.0)">m</text><text xml:space="preserve" font-family="Helvetica-Light" font-size="41.0" fill="#A6AAA8" transform="matrix(1.00, 0.00, -0.00, -1.00, 445.2, 628.0)"> </text><text xml:space="preserve" font-family="Helvetica-Light" font-size="41.0" fill="#A6AAA8" transform="matrix(1.00, 0.00, -0.00, -1.00, 456.6, 628.0)">p</text><text xml:space="preserve" font-family="Helvetica-Light" font-size="41.0" fill="#A6AAA8" transform="matrix(1.00, 0.00, -0.00, -1.00, 481.6, 628.0)">a</text><text xml:space="preserve" font-family="Helvetica-Light" font-size="41.0" fill="#A6AAA8" transform="matrix(1.00, 0.00, -0.00, -1.00, 504.4, 628.0)">y</text><text xml:space="preserve" font-family="Helvetica-Light" font-size="41.0" fill="#A6AAA8" transform="matrix(1.00, 0.00, -0.00, -1.00, 524.9, 628.0)">p</text><text xml:space="preserve" font-family="Helvetica-Light" font-size="41.0" fill="#A6AAA8" transform="matrix(1.00, 0.00, -0.00, -1.00, 550.0, 628.0)">u</text><text xml:space="preserve" font-family="Helvetica-Light" font-size="41.0" fill="#A6AAA8" transform="matrix(1.00, 0.00, -0.00, -1.00, 572.8, 628.0)">b</text><text xml:space="preserve" font-family="Helvetica-Light" font-size="41.0" fill="#A6AAA8" transform="matrix(1.00, 0.00, -0.00, -1.00, 597.8, 628.0)"> </text><text xml:space="preserve" font-family="Helvetica-Light" font-size="41.0" fill="#A6AAA8" transform="matrix(1.00, 0.00, -0.00, -1.00, 609.2, 628.0)">d</text><text xml:space="preserve" font-family="Helvetica-Light" font-size="41.0" fill="#A6AAA8" transform="matrix(1.00, 0.00, -0.00, -1.00, 634.3, 628.0)">e</text><text xml:space="preserve" font-family="Helvetica-Light" font-size="41.0" fill="#A6AAA8" transform="matrix(1.00, 0.00, -0.00, -1.00, 657.1, 628.0)">s</text><text xml:space="preserve" font-family="Helvetica-Light" font-size="41.0" fill="#A6AAA8" transform="matrix(1.00, 0.00, -0.00, -1.00, 677.6, 628.0)">k</text><text xml:space="preserve" font-family="Helvetica-Light" font-size="41.0" fill="#A6AAA8" transform="matrix(1.00, 0.00, -0.00, -1.00, 698.1, 628.0)">t</text><text xml:space="preserve" font-family="Helvetica-Light" font-size="41.0" fill="#A6AAA8" transform="matrix(1.00, 0.00, -0.00, -1.00, 709.5, 628.0)">o</text><text xml:space="preserve" font-family="Helvetica-Light" font-size="41.0" fill="#A6AAA8" transform="matrix(1.00, 0.00, -0.00, -1.00, 732.3, 628.0)">p</text><text xml:space="preserve" font-family="Helvetica-Light" font-size="41.0" fill="#A6AAA8" transform="matrix(1.00, 0.00, -0.00, -1.00, 757.3, 628.0)"> </text><text xml:space="preserve" font-family="Helvetica-Light" font-size="41.0" fill="#A6AAA8" transform="matrix(1.00, 0.00, -0.00, -1.00, 768.7, 628.0)">a</text><text xml:space="preserve" font-family="Helvetica-Light" font-size="41.0" fill="#A6AAA8" transform="matrix(1.00, 0.00, -0.00, -1.00, 791.5, 628.0)">p</text><text xml:space="preserve" font-family="Helvetica-Light" font-size="41.0" fill="#A6AAA8" transform="matrix(1.00, 0.00, -0.00, -1.00, 816.6, 628.0)">p</text><text xml:space="preserve" font-family="Helvetica-Light" font-size="41.0" fill="#A6AAA8" transform="matrix(1.00, 0.00, -0.00, -1.00, 841.6, 628.0)"> </text><text xml:space="preserve" font-family="Helvetica-Light" font-size="41.0" fill="#A6AAA8" transform="matrix(1.00, 0.00, -0.00, -1.00, 149.0, 569.0)">i</text><text xml:space="preserve" font-family="Helvetica-Light" font-size="41.0" fill="#A6AAA8" transform="matrix(1.00, 0.00, -0.00, -1.00, 158.1, 569.0)">m</text><text xml:space="preserve" font-family="Helvetica-Light" font-size="41.0" fill="#A6AAA8" transform="matrix(1.00, 0.00, -0.00, -1.00, 192.3, 569.0)">p</text><text xml:space="preserve" font-family="Helvetica-Light" font-size="41.0" fill="#A6AAA8" transform="matrix(1.00, 0.00, -0.00, -1.00, 217.3, 569.0)">l</text><text xml:space="preserve" font-family="Helvetica-Light" font-size="41.0" fill="#A6AAA8" transform="matrix(1.00, 0.00, -0.00, -1.00, 226.4, 569.0)">e</text><text xml:space="preserve" font-family="Helvetica-Light" font-size="41.0" fill="#A6AAA8" transform="matrix(1.00, 0.00, -0.00, -1.00, 249.2, 569.0)">m</text><text xml:space="preserve" font-family="Helvetica-Light" font-size="41.0" fill="#A6AAA8" transform="matrix(1.00, 0.00, -0.00, -1.00, 283.4, 569.0)">e</text><text xml:space="preserve" font-family="Helvetica-Light" font-size="41.0" fill="#A6AAA8" transform="matrix(1.00, 0.00, -0.00, -1.00, 306.2, 569.0)">n</text><text xml:space="preserve" font-family="Helvetica-Light" font-size="41.0" fill="#A6AAA8" transform="matrix(1.00, 0.00, -0.00, -1.00, 328.9, 569.0)">t</text><text xml:space="preserve" font-family="Helvetica-Light" font-size="41.0" fill="#A6AAA8" transform="matrix(1.00, 0.00, -0.00, -1.00, 340.3, 569.0)">e</text><text xml:space="preserve" font-family="Helvetica-Light" font-size="41.0" fill="#A6AAA8" transform="matrix(1.00, 0.00, -0.00, -1.00, 363.1, 569.0)">d</text><text xml:space="preserve" font-family="Helvetica-Light" font-size="41.0" fill="#A6AAA8" transform="matrix(1.00, 0.00, -0.00, -1.00, 388.2, 569.0)"> </text><text xml:space="preserve" font-family="Helvetica-Light" font-size="41.0" fill="#A6AAA8" transform="matrix(1.00, 0.00, -0.00, -1.00, 399.6, 569.0)">i</text><text xml:space="preserve" font-family="Helvetica-Light" font-size="41.0" fill="#A6AAA8" transform="matrix(1.00, 0.00, -0.00, -1.00, 408.7, 569.0)">n</text><text xml:space="preserve" font-family="Helvetica-Light" font-size="41.0" fill="#A6AAA8" transform="matrix(1.00, 0.00, -0.00, -1.00, 431.5, 569.0)"> </text><text xml:space="preserve" font-family="Helvetica-Light" font-size="41.0" fill="#A6AAA8" transform="matrix(1.00, 0.00, -0.00, -1.00, 442.9, 569.0)">j</text><text xml:space="preserve" font-family="Helvetica-Light" font-size="41.0" fill="#A6AAA8" transform="matrix(1.00, 0.00, -0.00, -1.00, 452.0, 569.0)">a</text><text xml:space="preserve" font-family="Helvetica-Light" font-size="41.0" fill="#A6AAA8" transform="matrix(1.00, 0.00, -0.00, -1.00, 474.8, 569.0)">v</text><text xml:space="preserve" font-family="Helvetica-Light" font-size="41.0" fill="#A6AAA8" transform="matrix(1.00, 0.00, -0.00, -1.00, 495.3, 569.0)">a</text><text xml:space="preserve" font-family="Helvetica-Light" font-size="41.0" fill="#A6AAA8" transform="matrix(1.00, 0.00, -0.00, -1.00, 518.1, 569.0)">s</text><text xml:space="preserve" font-family="Helvetica-Light" font-size="41.0" fill="#A6AAA8" transform="matrix(1.00, 0.00, -0.00, -1.00, 538.6, 569.0)">c</text><text xml:space="preserve" font-family="Helvetica-Light" font-size="41.0" fill="#A6AAA8" transform="matrix(1.00, 0.00, -0.00, -1.00, 561.4, 569.0)">r</text><text xml:space="preserve" font-family="Helvetica-Light" font-size="41.0" fill="#A6AAA8" transform="matrix(1.00, 0.00, -0.00, -1.00, 575.0, 569.0)">i</text><text xml:space="preserve" font-family="Helvetica-Light" font-size="41.0" fill="#A6AAA8" transform="matrix(1.00, 0.00, -0.00, -1.00, 584.1, 569.0)">p</text><text xml:space="preserve" font-family="Helvetica-Light" font-size="41.0" fill="#A6AAA8" transform="matrix(1.00, 0.00, -0.00, -1.00, 609.2, 569.0)">t</text><text xml:space="preserve" font-family="Helvetica-Light" font-size="41.0" fill="#A6AAA8" transform="matrix(1.00, 0.00, -0.00, -1.00, 620.6, 569.0)"> </text><text xml:space="preserve" font-family="Helvetica-Light" font-size="41.0" fill="#A6AAA8" transform="matrix(1.00, 0.00, -0.00, -1.00, 632.0, 569.0)">/</text><text xml:space="preserve" font-family="Helvetica-Light" font-size="41.0" fill="#A6AAA8" transform="matrix(1.00, 0.00, -0.00, -1.00, 643.4, 569.0)"> </text><text xml:space="preserve" font-family="Helvetica-Light" font-size="41.0" fill="#A6AAA8" transform="matrix(1.00, 0.00, -0.00, -1.00, 654.8, 569.0)">e</text><text xml:space="preserve" font-family="Helvetica-Light" font-size="41.0" fill="#A6AAA8" transform="matrix(1.00, 0.00, -0.00, -1.00, 677.6, 569.0)">l</text><text xml:space="preserve" font-family="Helvetica-Light" font-size="41.0" fill="#A6AAA8" transform="matrix(1.00, 0.00, -0.00, -1.00, 686.7, 569.0)">e</text><text xml:space="preserve" font-family="Helvetica-Light" font-size="41.0" fill="#A6AAA8" transform="matrix(1.00, 0.00, -0.00, -1.00, 709.5, 569.0)">c</text><text xml:space="preserve" font-family="Helvetica-Light" font-size="41.0" fill="#A6AAA8" transform="matrix(1.00, 0.00, -0.00, -1.00, 732.3, 569.0)">t</text><text xml:space="preserve" font-family="Helvetica-Light" font-size="41.0" fill="#A6AAA8" transform="matrix(1.00, 0.00, -0.00, -1.00, 743.7, 569.0)">r</text><text xml:space="preserve" font-family="Helvetica-Light" font-size="41.0" fill="#A6AAA8" transform="matrix(1.00, 0.00, -0.00, -1.00, 756.6, 569.0)">o</text><text xml:space="preserve" font-family="Helvetica-Light" font-size="41.0" fill="#A6AAA8" transform="matrix(1.00, 0.00, -0.00, -1.00, 779.4, 569.0)">n</text><text xml:space="preserve" font-family="Helvetica-Light" font-size="41.0" fill="#A6AAA8" transform="matrix(1.00, 0.00, -0.00, -1.00, 802.2, 569.0)"> </text><image xlink:href="46F1944E84661963E5E52BF7643F7020.png" width="960.00" height="385.00" transform="matrix(1.07, 0.00, -0.00, -1.07, 0.0, 513.0)"></image></g></svg>