<?xml version="1.0" encoding="UTF-8" standalone="no"?><svg xmlns="http://www.w3.org/2000/svg" xmlns:xlink="http://www.w3.org/1999/xlink" clip-rule="evenodd" stroke-miterlimit="4.00" viewBox="0 0 1024 768"><desc>SVG generated by Keynote</desc><defs></defs><g transform="matrix(1.00, 0.00, -0.00, -1.00, 0.0, 768.0)"><path d="M 0.0 768.0 L 1024.0 768.0 L 1024.0 0.0 L 0.0 0.0 Z M 0.0 768.0 " fill="#000000"></path><text xml:space="preserve" font-family="Helvetica-Bold" font-weight="bold" font-size="21.0" fill="#FEFFFF" transform="matrix(1.00, 0.00, -0.00, -1.00, 679.0, 639.0)">b</text><text xml:space="preserve" font-family="Helvetica-Bold" font-weight="bold" font-size="21.0" fill="#FEFFFF" transform="matrix(1.00, 0.00, -0.00, -1.00, 691.8, 639.0)">o</text><text xml:space="preserve" font-family="Helvetica-Bold" font-weight="bold" font-size="21.0" fill="#FEFFFF" transform="matrix(1.00, 0.00, -0.00, -1.00, 704.6, 639.0)">t</text><text xml:space="preserve" font-family="Helvetica-Bold" font-weight="bold" font-size="21.0" fill="#FEFFFF" transform="matrix(1.00, 0.00, -0.00, -1.00, 711.6, 639.0)">h</text><text xml:space="preserve" font-family="Helvetica-Bold" font-weight="bold" font-size="21.0" fill="#FEFFFF" transform="matrix(1.00, 0.00, -0.00, -1.00, 724.5, 639.0)"> </text><text xml:space="preserve" font-family="Helvetica-Bold" font-weight="bold" font-size="21.0" fill="#FEFFFF" transform="matrix(1.00, 0.00, -0.00, -1.00, 730.3, 639.0)">s</text><text xml:space="preserve" font-family="Helvetica-Bold" font-weight="bold" font-size="21.0" fill="#FEFFFF" transform="matrix(1.00, 0.00, -0.00, -1.00, 742.0, 639.0)">i</text><text xml:space="preserve" font-family="Helvetica-Bold" font-weight="bold" font-size="21.0" fill="#FEFFFF" transform="matrix(1.00, 0.00, -0.00, -1.00, 747.8, 639.0)">g</text><text xml:space="preserve" font-family="Helvetica-Bold" font-weight="bold" font-size="21.0" fill="#FEFFFF" transform="matrix(1.00, 0.00, -0.00, -1.00, 760.6, 639.0)">n</text><text xml:space="preserve" font-family="Helvetica-Bold" font-weight="bold" font-size="21.0" fill="#FEFFFF" transform="matrix(1.00, 0.00, -0.00, -1.00, 773.5, 639.0)"> </text><text xml:space="preserve" font-family="Helvetica-Bold" font-weight="bold" font-size="21.0" fill="#FEFFFF" transform="matrix(1.00, 0.00, -0.00, -1.00, 779.3, 639.0)">p</text><text xml:space="preserve" font-family="Helvetica-Bold" font-weight="bold" font-size="21.0" fill="#FEFFFF" transform="matrix(1.00, 0.00, -0.00, -1.00, 792.1, 639.0)">a</text><text xml:space="preserve" font-family="Helvetica-Bold" font-weight="bold" font-size="21.0" fill="#FEFFFF" transform="matrix(1.00, 0.00, -0.00, -1.00, 803.8, 639.0)">y</text><text xml:space="preserve" font-family="Helvetica-Bold" font-weight="bold" font-size="21.0" fill="#FEFFFF" transform="matrix(1.00, 0.00, -0.00, -1.00, 815.5, 639.0)">m</text><text xml:space="preserve" font-family="Helvetica-Bold" font-weight="bold" font-size="21.0" fill="#FEFFFF" transform="matrix(1.00, 0.00, -0.00, -1.00, 834.2, 639.0)">e</text><text xml:space="preserve" font-family="Helvetica-Bold" font-weight="bold" font-size="21.0" fill="#FEFFFF" transform="matrix(1.00, 0.00, -0.00, -1.00, 845.8, 639.0)">n</text><text xml:space="preserve" font-family="Helvetica-Bold" font-weight="bold" font-size="21.0" fill="#FEFFFF" transform="matrix(1.00, 0.00, -0.00, -1.00, 858.7, 639.0)">t</text><text xml:space="preserve" font-family="Helvetica-Bold" font-weight="bold" font-size="21.0" fill="#FEFFFF" transform="matrix(1.00, 0.00, -0.00, -1.00, 865.7, 639.0)">…</text><g><clipPath id="clip-191"><path d="M 749.3 549.6 L 799.1 549.6 L 799.1 577.7 L 749.3 577.7 Z M 749.3 549.6 "></path></clipPath><g clip-path="url(#clip-191)"><image xlink:href="../../2B027768-CBC4-4453-88FF-93161A42DCE4/assets/2B53D5DC9F6CCFE7142EA66B3C0055A3.png" width="50.00" height="28.00" transform="matrix(1.00, 0.00, -0.00, -1.00, 749.0, 578.0)"></image></g></g><g><clipPath id="clip-192"><path d="M 766.8 578.4 L 816.6 578.4 L 816.6 600.0 L 766.8 600.0 Z M 766.8 578.4 "></path></clipPath><g clip-path="url(#clip-192)"><image xlink:href="../../2B027768-CBC4-4453-88FF-93161A42DCE4/assets/5D7C1BFEDA4D4EA6E6E9C2CDFC1AFABE.png" width="50.00" height="22.00" transform="matrix(1.00, 0.00, -0.00, -1.00, 767.0, 600.0)"></image></g></g><text xml:space="preserve" font-family="Helvetica-Light" font-size="21.0" fill="#FEFFFF" transform="matrix(1.00, 0.00, -0.00, -1.00, 914.0, 240.0)">s</text><text xml:space="preserve" font-family="Helvetica-Light" font-size="21.0" fill="#FEFFFF" transform="matrix(1.00, 0.00, -0.00, -1.00, 924.5, 240.0)">e</text><text xml:space="preserve" font-family="Helvetica-Light" font-size="21.0" fill="#FEFFFF" transform="matrix(1.00, 0.00, -0.00, -1.00, 936.2, 240.0)">l</text><text xml:space="preserve" font-family="Helvetica-Light" font-size="21.0" fill="#FEFFFF" transform="matrix(1.00, 0.00, -0.00, -1.00, 940.8, 240.0)">l</text><text xml:space="preserve" font-family="Helvetica-Light" font-size="21.0" fill="#FEFFFF" transform="matrix(1.00, 0.00, -0.00, -1.00, 945.5, 240.0)">e</text><text xml:space="preserve" font-family="Helvetica-Light" font-size="21.0" fill="#FEFFFF" transform="matrix(1.00, 0.00, -0.00, -1.00, 957.2, 240.0)">r</text><text xml:space="preserve" font-family="Helvetica-Light" font-size="21.0" fill="#FEFFFF" transform="matrix(1.00, 0.00, -0.00, -1.00, 913.0, 475.0)">b</text><text xml:space="preserve" font-family="Helvetica-Light" font-size="21.0" fill="#FEFFFF" transform="matrix(1.00, 0.00, -0.00, -1.00, 925.8, 475.0)">u</text><text xml:space="preserve" font-family="Helvetica-Light" font-size="21.0" fill="#FEFFFF" transform="matrix(1.00, 0.00, -0.00, -1.00, 937.5, 475.0)">y</text><text xml:space="preserve" font-family="Helvetica-Light" font-size="21.0" fill="#FEFFFF" transform="matrix(1.00, 0.00, -0.00, -1.00, 948.0, 475.0)">e</text><text xml:space="preserve" font-family="Helvetica-Light" font-size="21.0" fill="#FEFFFF" transform="matrix(1.00, 0.00, -0.00, -1.00, 959.7, 475.0)">r</text><path d="M 0.0 0.0 L 94.4 0.0 " fill="none" stroke="#52575F" stroke-width="2.00" stroke-dasharray="2.0, 2.0" transform="matrix(1.00, 0.00, 0.00, -1.00, 329.4, 421.0)"></path><text xml:space="preserve" font-family="Helvetica-Light" font-size="21.0" fill="#52575F" transform="matrix(1.00, 0.00, -0.00, -1.00, 57.5, 444.0)">b</text><text xml:space="preserve" font-family="Helvetica-Light" font-size="21.0" fill="#52575F" transform="matrix(1.00, 0.00, -0.00, -1.00, 70.4, 444.0)">u</text><text xml:space="preserve" font-family="Helvetica-Light" font-size="21.0" fill="#52575F" transform="matrix(1.00, 0.00, -0.00, -1.00, 82.0, 444.0)">y</text><text xml:space="preserve" font-family="Helvetica-Light" font-size="21.0" fill="#52575F" transform="matrix(1.00, 0.00, -0.00, -1.00, 92.5, 444.0)">e</text><text xml:space="preserve" font-family="Helvetica-Light" font-size="21.0" fill="#52575F" transform="matrix(1.00, 0.00, -0.00, -1.00, 104.2, 444.0)">r</text><text xml:space="preserve" font-family="Helvetica-Light" font-size="21.0" fill="#52575F" transform="matrix(1.00, 0.00, -0.00, -1.00, 61.0, 207.4)">s</text><text xml:space="preserve" font-family="Helvetica-Light" font-size="21.0" fill="#52575F" transform="matrix(1.00, 0.00, -0.00, -1.00, 71.5, 207.4)">e</text><text xml:space="preserve" font-family="Helvetica-Light" font-size="21.0" fill="#52575F" transform="matrix(1.00, 0.00, -0.00, -1.00, 83.2, 207.4)">l</text><text xml:space="preserve" font-family="Helvetica-Light" font-size="21.0" fill="#52575F" transform="matrix(1.00, 0.00, -0.00, -1.00, 87.9, 207.4)">l</text><text xml:space="preserve" font-family="Helvetica-Light" font-size="21.0" fill="#52575F" transform="matrix(1.00, 0.00, -0.00, -1.00, 92.5, 207.4)">e</text><text xml:space="preserve" font-family="Helvetica-Light" font-size="21.0" fill="#52575F" transform="matrix(1.00, 0.00, -0.00, -1.00, 104.2, 207.4)">r</text><path d="M 0.0 0.0 L 100.2 0.0 L 101.2 0.0 " fill="none" stroke="#52575F" stroke-width="2.00" stroke-dasharray="2.0, 2.0" transform="matrix(1.00, 0.00, 0.00, -1.00, 331.8, 482.4)"></path><path d="M 432.0 477.6 L 441.6 482.4 L 432.0 487.2 Z M 432.0 477.6 " fill="#52575F"></path><path d="M 0.0 0.0 L 49.8 0.0 " fill="none" stroke="#52575F" stroke-width="2.00" stroke-dasharray="2.0, 2.0" transform="matrix(1.00, 0.00, 0.00, -1.00, 375.9, 356.2)"></path><path d="M 0.0 0.0 L 43.6 0.0 " fill="none" stroke="#52575F" stroke-width="2.00" stroke-dasharray="2.0, 2.0" transform="matrix(1.00, 0.00, 0.00, -1.00, 332.8, 214.9)"></path><path d="M 0.0 0.0 L 142.0 0.0 " fill="none" stroke="#52575F" stroke-width="2.00" stroke-dasharray="2.0, 2.0" transform="matrix(0.00, 1.00, 1.00, 0.00, 376.5, 214.3)"></path><path d="M 143.0 451.7 L 339.1 451.7 L 339.1 388.1 L 143.0 388.1 Z M 143.0 451.7 " fill="#000000"></path><path d="M 0.0 0.0 L 196.1 0.0 L 196.1 63.5 L 0.0 63.5 Z M 0.0 0.0 " fill="none" stroke="#52575F" stroke-width="1.00" transform="matrix(1.00, 0.00, 0.00, -1.00, 143.0, 451.7)"></path><g><clipPath id="clip-193"><path d="M 142.7 389.1 L 339.3 389.1 L 339.3 450.7 L 142.7 450.7 Z M 142.7 389.1 "></path></clipPath><g clip-path="url(#clip-193)"><text xml:space="preserve" font-family="Helvetica-Light" font-size="21.0" fill="#52575F" transform="matrix(1.00, 0.00, -0.00, -1.00, 200.0, 411.0)">p</text><text xml:space="preserve" font-family="Helvetica-Light" font-size="21.0" fill="#52575F" transform="matrix(1.00, 0.00, -0.00, -1.00, 212.8, 411.0)">a</text><text xml:space="preserve" font-family="Helvetica-Light" font-size="21.0" fill="#52575F" transform="matrix(1.00, 0.00, -0.00, -1.00, 224.5, 411.0)">y</text><text xml:space="preserve" font-family="Helvetica-Light" font-size="21.0" fill="#52575F" transform="matrix(1.00, 0.00, -0.00, -1.00, 235.0, 411.0)">m</text><text xml:space="preserve" font-family="Helvetica-Light" font-size="21.0" fill="#52575F" transform="matrix(1.00, 0.00, -0.00, -1.00, 252.5, 411.0)">e</text><text xml:space="preserve" font-family="Helvetica-Light" font-size="21.0" fill="#52575F" transform="matrix(1.00, 0.00, -0.00, -1.00, 264.2, 411.0)">n</text><text xml:space="preserve" font-family="Helvetica-Light" font-size="21.0" fill="#52575F" transform="matrix(1.00, 0.00, -0.00, -1.00, 275.9, 411.0)">t</text></g></g><path d="M 143.0 514.1 L 339.1 514.1 L 339.1 450.6 L 143.0 450.6 Z M 143.0 514.1 " fill="#000000"></path><path d="M 0.0 0.0 L 196.1 0.0 L 196.1 63.5 L 0.0 63.5 Z M 0.0 0.0 " fill="none" stroke="#52575F" stroke-width="1.00" transform="matrix(1.00, 0.00, 0.00, -1.00, 143.0, 514.1)"></path><g><clipPath id="clip-194"><path d="M 142.7 451.6 L 339.3 451.6 L 339.3 513.1 L 142.7 513.1 Z M 142.7 451.6 "></path></clipPath><g clip-path="url(#clip-194)"><text xml:space="preserve" font-family="Helvetica-Light" font-size="21.0" fill="#52575F" transform="matrix(1.00, 0.00, -0.00, -1.00, 206.0, 474.0)">d</text><text xml:space="preserve" font-family="Helvetica-Light" font-size="21.0" fill="#52575F" transform="matrix(1.00, 0.00, -0.00, -1.00, 218.8, 474.0)">e</text><text xml:space="preserve" font-family="Helvetica-Light" font-size="21.0" fill="#52575F" transform="matrix(1.00, 0.00, -0.00, -1.00, 230.5, 474.0)">p</text><text xml:space="preserve" font-family="Helvetica-Light" font-size="21.0" fill="#52575F" transform="matrix(1.00, 0.00, -0.00, -1.00, 243.3, 474.0)">o</text><text xml:space="preserve" font-family="Helvetica-Light" font-size="21.0" fill="#52575F" transform="matrix(1.00, 0.00, -0.00, -1.00, 255.0, 474.0)">s</text><text xml:space="preserve" font-family="Helvetica-Light" font-size="21.0" fill="#52575F" transform="matrix(1.00, 0.00, -0.00, -1.00, 265.5, 474.0)">i</text><text xml:space="preserve" font-family="Helvetica-Light" font-size="21.0" fill="#52575F" transform="matrix(1.00, 0.00, -0.00, -1.00, 270.2, 474.0)">t</text></g></g><path d="M 142.5 246.7 L 338.5 246.7 L 338.5 183.1 L 142.5 183.1 Z M 142.5 246.7 " fill="#000000"></path><path d="M 0.0 0.0 L 196.1 0.0 L 196.1 63.5 L 0.0 63.5 Z M 0.0 0.0 " fill="none" stroke="#52575F" stroke-width="1.00" transform="matrix(1.00, 0.00, 0.00, -1.00, 142.5, 246.7)"></path><g><clipPath id="clip-195"><path d="M 142.2 184.1 L 338.8 184.1 L 338.8 245.7 L 142.2 245.7 Z M 142.2 184.1 "></path></clipPath><g clip-path="url(#clip-195)"><text xml:space="preserve" font-family="Helvetica-Light" font-size="21.0" fill="#52575F" transform="matrix(1.00, 0.00, -0.00, -1.00, 206.0, 206.0)">d</text><text xml:space="preserve" font-family="Helvetica-Light" font-size="21.0" fill="#52575F" transform="matrix(1.00, 0.00, -0.00, -1.00, 218.8, 206.0)">e</text><text xml:space="preserve" font-family="Helvetica-Light" font-size="21.0" fill="#52575F" transform="matrix(1.00, 0.00, -0.00, -1.00, 230.5, 206.0)">p</text><text xml:space="preserve" font-family="Helvetica-Light" font-size="21.0" fill="#52575F" transform="matrix(1.00, 0.00, -0.00, -1.00, 243.3, 206.0)">o</text><text xml:space="preserve" font-family="Helvetica-Light" font-size="21.0" fill="#52575F" transform="matrix(1.00, 0.00, -0.00, -1.00, 255.0, 206.0)">s</text><text xml:space="preserve" font-family="Helvetica-Light" font-size="21.0" fill="#52575F" transform="matrix(1.00, 0.00, -0.00, -1.00, 265.5, 206.0)">i</text><text xml:space="preserve" font-family="Helvetica-Light" font-size="21.0" fill="#52575F" transform="matrix(1.00, 0.00, -0.00, -1.00, 270.2, 206.0)">t</text></g></g><path d="M 0.0 0.0 L 67.7 0.0 L 68.7 0.0 " fill="none" stroke="#FEFFFF" stroke-width="2.00" stroke-dasharray="2.0, 2.0" transform="matrix(1.00, 0.00, 0.00, -1.00, 604.5, 482.4)"></path><path d="M 672.3 477.6 L 681.9 482.4 L 672.3 487.2 Z M 672.3 477.6 " fill="#FEFFFF"></path><path d="M 414.0 514.1 L 610.0 514.1 L 610.0 450.6 L 414.0 450.6 Z M 414.0 514.1 " fill="#000000"></path><path d="M 0.0 0.0 L 196.1 0.0 L 196.1 63.5 L 0.0 63.5 Z M 0.0 0.0 " fill="none" stroke="#A6AAA8" stroke-width="1.00" transform="matrix(1.00, 0.00, 0.00, -1.00, 414.0, 514.1)"></path><g><clipPath id="clip-196"><path d="M 413.7 451.6 L 610.3 451.6 L 610.3 513.1 L 413.7 513.1 Z M 413.7 451.6 "></path></clipPath><g clip-path="url(#clip-196)"><text xml:space="preserve" font-family="Helvetica-Light" font-size="21.0" fill="#A6AAA8" transform="matrix(1.00, 0.00, -0.00, -1.00, 477.0, 474.0)">d</text><text xml:space="preserve" font-family="Helvetica-Light" font-size="21.0" fill="#A6AAA8" transform="matrix(1.00, 0.00, -0.00, -1.00, 489.8, 474.0)">e</text><text xml:space="preserve" font-family="Helvetica-Light" font-size="21.0" fill="#A6AAA8" transform="matrix(1.00, 0.00, -0.00, -1.00, 501.5, 474.0)">p</text><text xml:space="preserve" font-family="Helvetica-Light" font-size="21.0" fill="#A6AAA8" transform="matrix(1.00, 0.00, -0.00, -1.00, 514.3, 474.0)">o</text><text xml:space="preserve" font-family="Helvetica-Light" font-size="21.0" fill="#A6AAA8" transform="matrix(1.00, 0.00, -0.00, -1.00, 526.0, 474.0)">s</text><text xml:space="preserve" font-family="Helvetica-Light" font-size="21.0" fill="#A6AAA8" transform="matrix(1.00, 0.00, -0.00, -1.00, 536.5, 474.0)">i</text><text xml:space="preserve" font-family="Helvetica-Light" font-size="21.0" fill="#A6AAA8" transform="matrix(1.00, 0.00, -0.00, -1.00, 541.2, 474.0)">t</text></g></g><path d="M 684.9 514.1 L 881.0 514.1 L 881.0 450.6 L 684.9 450.6 Z M 684.9 514.1 " fill="#000000"></path><path d="M 0.0 0.0 L 196.1 0.0 L 196.1 63.5 L 0.0 63.5 Z M 0.0 0.0 " fill="none" stroke="#FEFFFE" stroke-width="1.00" transform="matrix(1.00, 0.00, 0.00, -1.00, 684.9, 514.1)"></path><g><clipPath id="clip-197"><path d="M 684.7 451.6 L 881.2 451.6 L 881.2 513.1 L 684.7 513.1 Z M 684.7 451.6 "></path></clipPath><g clip-path="url(#clip-197)"><text xml:space="preserve" font-family="Helvetica-Light" font-size="21.0" fill="#FEFFFF" transform="matrix(1.00, 0.00, -0.00, -1.00, 748.0, 474.0)">d</text><text xml:space="preserve" font-family="Helvetica-Light" font-size="21.0" fill="#FEFFFF" transform="matrix(1.00, 0.00, -0.00, -1.00, 760.8, 474.0)">e</text><text xml:space="preserve" font-family="Helvetica-Light" font-size="21.0" fill="#FEFFFF" transform="matrix(1.00, 0.00, -0.00, -1.00, 772.5, 474.0)">p</text><text xml:space="preserve" font-family="Helvetica-Light" font-size="21.0" fill="#FEFFFF" transform="matrix(1.00, 0.00, -0.00, -1.00, 785.3, 474.0)">o</text><text xml:space="preserve" font-family="Helvetica-Light" font-size="21.0" fill="#FEFFFF" transform="matrix(1.00, 0.00, -0.00, -1.00, 797.0, 474.0)">s</text><text xml:space="preserve" font-family="Helvetica-Light" font-size="21.0" fill="#FEFFFF" transform="matrix(1.00, 0.00, -0.00, -1.00, 807.5, 474.0)">i</text><text xml:space="preserve" font-family="Helvetica-Light" font-size="21.0" fill="#FEFFFF" transform="matrix(1.00, 0.00, -0.00, -1.00, 812.2, 474.0)">t</text></g></g><path d="M 0.0 0.0 L 49.8 0.0 " fill="none" stroke="#FEFFFF" stroke-width="2.00" stroke-dasharray="2.0, 2.0" transform="matrix(-1.00, 0.00, 0.00, 1.00, 636.7, 356.0)"></path><path d="M 8.6 0.0 L 9.6 0.0 L 43.6 0.0 " fill="none" stroke="#FEFFFF" stroke-width="2.00" stroke-dasharray="2.0, 2.0" transform="matrix(-1.00, 0.00, 0.00, 1.00, 680.6, 214.7)"></path><path d="M 671.0 209.9 L 680.6 214.7 L 671.0 219.5 Z M 671.0 209.9 " fill="#FEFFFF"></path><path d="M 0.0 0.0 L 142.0 0.0 " fill="none" stroke="#FEFFFF" stroke-width="2.00" stroke-dasharray="2.0, 2.0" transform="matrix(0.00, 1.00, 1.00, 0.00, 637.2, 214.1)"></path><path d="M 8.6 0.0 L 9.6 0.0 L 30.2 0.0 " fill="none" stroke="#FEFFFF" stroke-width="2.00" stroke-dasharray="2.0, 2.0" transform="matrix(-1.00, 0.00, 0.00, 1.00, 679.6, 279.7)"></path><path d="M 670.0 274.9 L 679.6 279.7 L 670.0 284.5 Z M 670.0 274.9 " fill="#FEFFFF"></path><path d="M 0.0 0.0 L 142.0 0.0 " fill="none" stroke="#FEFFFF" stroke-width="2.00" stroke-dasharray="2.0, 2.0" transform="matrix(0.00, 1.00, 1.00, 0.00, 649.6, 279.1)"></path><path d="M 414.0 387.9 L 610.0 387.9 L 610.0 324.4 L 414.0 324.4 Z M 414.0 387.9 " fill="#000000"></path><path d="M 0.0 0.0 L 196.1 0.0 L 196.1 63.5 L 0.0 63.5 Z M 0.0 0.0 " fill="none" stroke="#A6AAA8" stroke-width="1.00" transform="matrix(1.00, 0.00, 0.00, -1.00, 414.0, 387.9)"></path><g><clipPath id="clip-198"><path d="M 413.7 325.4 L 610.3 325.4 L 610.3 386.9 L 413.7 386.9 Z M 413.7 325.4 "></path></clipPath><g clip-path="url(#clip-198)"><text xml:space="preserve" font-family="Helvetica-Light" font-size="21.0" fill="#A6AAA8" transform="matrix(1.00, 0.00, -0.00, -1.00, 477.0, 348.0)">d</text><text xml:space="preserve" font-family="Helvetica-Light" font-size="21.0" fill="#A6AAA8" transform="matrix(1.00, 0.00, -0.00, -1.00, 489.8, 348.0)">e</text><text xml:space="preserve" font-family="Helvetica-Light" font-size="21.0" fill="#A6AAA8" transform="matrix(1.00, 0.00, -0.00, -1.00, 501.5, 348.0)">p</text><text xml:space="preserve" font-family="Helvetica-Light" font-size="21.0" fill="#A6AAA8" transform="matrix(1.00, 0.00, -0.00, -1.00, 514.3, 348.0)">o</text><text xml:space="preserve" font-family="Helvetica-Light" font-size="21.0" fill="#A6AAA8" transform="matrix(1.00, 0.00, -0.00, -1.00, 526.0, 348.0)">s</text><text xml:space="preserve" font-family="Helvetica-Light" font-size="21.0" fill="#A6AAA8" transform="matrix(1.00, 0.00, -0.00, -1.00, 536.5, 348.0)">i</text><text xml:space="preserve" font-family="Helvetica-Light" font-size="21.0" fill="#A6AAA8" transform="matrix(1.00, 0.00, -0.00, -1.00, 541.2, 348.0)">t</text></g></g><path d="M 684.9 307.3 L 881.0 307.3 L 881.0 243.8 L 684.9 243.8 Z M 684.9 307.3 " fill="#000000"></path><path d="M 0.0 0.0 L 196.1 0.0 L 196.1 63.5 L 0.0 63.5 Z M 0.0 0.0 " fill="none" stroke="#FEFFFE" stroke-width="1.00" transform="matrix(1.00, 0.00, 0.00, -1.00, 684.9, 307.3)"></path><g><clipPath id="clip-199"><path d="M 684.7 244.8 L 881.2 244.8 L 881.2 306.3 L 684.7 306.3 Z M 684.7 244.8 "></path></clipPath><g clip-path="url(#clip-199)"><text xml:space="preserve" font-family="Helvetica-Light" font-size="21.0" fill="#FEFFFF" transform="matrix(1.00, 0.00, -0.00, -1.00, 742.0, 267.0)">p</text><text xml:space="preserve" font-family="Helvetica-Light" font-size="21.0" fill="#FEFFFF" transform="matrix(1.00, 0.00, -0.00, -1.00, 754.8, 267.0)">a</text><text xml:space="preserve" font-family="Helvetica-Light" font-size="21.0" fill="#FEFFFF" transform="matrix(1.00, 0.00, -0.00, -1.00, 766.5, 267.0)">y</text><text xml:space="preserve" font-family="Helvetica-Light" font-size="21.0" fill="#FEFFFF" transform="matrix(1.00, 0.00, -0.00, -1.00, 777.0, 267.0)">m</text><text xml:space="preserve" font-family="Helvetica-Light" font-size="21.0" fill="#FEFFFF" transform="matrix(1.00, 0.00, -0.00, -1.00, 794.5, 267.0)">e</text><text xml:space="preserve" font-family="Helvetica-Light" font-size="21.0" fill="#FEFFFF" transform="matrix(1.00, 0.00, -0.00, -1.00, 806.2, 267.0)">n</text><text xml:space="preserve" font-family="Helvetica-Light" font-size="21.0" fill="#FEFFFF" transform="matrix(1.00, 0.00, -0.00, -1.00, 817.9, 267.0)">t</text></g></g><path d="M 684.9 246.7 L 881.0 246.7 L 881.0 183.1 L 684.9 183.1 Z M 684.9 246.7 " fill="#000000"></path><path d="M 0.0 0.0 L 196.1 0.0 L 196.1 63.5 L 0.0 63.5 Z M 0.0 0.0 " fill="none" stroke="#FEFFFE" stroke-width="1.00" transform="matrix(1.00, 0.00, 0.00, -1.00, 684.9, 246.7)"></path><g><clipPath id="clip-200"><path d="M 684.7 184.1 L 881.2 184.1 L 881.2 245.7 L 684.7 245.7 Z M 684.7 184.1 "></path></clipPath><g clip-path="url(#clip-200)"><text xml:space="preserve" font-family="Helvetica-Light" font-size="21.0" fill="#FEFFFF" transform="matrix(1.00, 0.00, -0.00, -1.00, 748.0, 206.0)">d</text><text xml:space="preserve" font-family="Helvetica-Light" font-size="21.0" fill="#FEFFFF" transform="matrix(1.00, 0.00, -0.00, -1.00, 760.8, 206.0)">e</text><text xml:space="preserve" font-family="Helvetica-Light" font-size="21.0" fill="#FEFFFF" transform="matrix(1.00, 0.00, -0.00, -1.00, 772.5, 206.0)">p</text><text xml:space="preserve" font-family="Helvetica-Light" font-size="21.0" fill="#FEFFFF" transform="matrix(1.00, 0.00, -0.00, -1.00, 785.3, 206.0)">o</text><text xml:space="preserve" font-family="Helvetica-Light" font-size="21.0" fill="#FEFFFF" transform="matrix(1.00, 0.00, -0.00, -1.00, 797.0, 206.0)">s</text><text xml:space="preserve" font-family="Helvetica-Light" font-size="21.0" fill="#FEFFFF" transform="matrix(1.00, 0.00, -0.00, -1.00, 807.5, 206.0)">i</text><text xml:space="preserve" font-family="Helvetica-Light" font-size="21.0" fill="#FEFFFF" transform="matrix(1.00, 0.00, -0.00, -1.00, 812.2, 206.0)">t</text></g></g><path d="M 0.0 0.0 L 41.3 0.0 L 42.3 0.0 " fill="none" stroke="#FEFFFF" stroke-width="2.00" stroke-dasharray="2.0, 2.0" transform="matrix(-1.00, 0.00, 0.00, 1.00, 649.1, 421.0)"></path><path d="M 0.0 0.0 L 6.0 0.0 " fill="none" stroke="#FEFFFF" stroke-width="1.25" stroke-miterlimit="10.00" transform="matrix(0.00, -1.60, -1.60, 0.00, 606.5, 425.8)"></path><path d="M 414.0 451.7 L 610.0 451.7 L 610.0 388.1 L 414.0 388.1 Z M 414.0 451.7 " fill="#000000"></path><path d="M 0.0 0.0 L 196.1 0.0 L 196.1 63.5 L 0.0 63.5 Z M 0.0 0.0 " fill="none" stroke="#A6AAA8" stroke-width="1.00" transform="matrix(1.00, 0.00, 0.00, -1.00, 414.0, 451.7)"></path><g><clipPath id="clip-201"><path d="M 413.7 389.1 L 610.3 389.1 L 610.3 450.7 L 413.7 450.7 Z M 413.7 389.1 "></path></clipPath><g clip-path="url(#clip-201)"><text xml:space="preserve" font-family="Helvetica-Light" font-size="21.0" fill="#A6AAA8" transform="matrix(1.00, 0.00, -0.00, -1.00, 471.0, 411.0)">p</text><text xml:space="preserve" font-family="Helvetica-Light" font-size="21.0" fill="#A6AAA8" transform="matrix(1.00, 0.00, -0.00, -1.00, 483.8, 411.0)">a</text><text xml:space="preserve" font-family="Helvetica-Light" font-size="21.0" fill="#A6AAA8" transform="matrix(1.00, 0.00, -0.00, -1.00, 495.5, 411.0)">y</text><text xml:space="preserve" font-family="Helvetica-Light" font-size="21.0" fill="#A6AAA8" transform="matrix(1.00, 0.00, -0.00, -1.00, 506.0, 411.0)">m</text><text xml:space="preserve" font-family="Helvetica-Light" font-size="21.0" fill="#A6AAA8" transform="matrix(1.00, 0.00, -0.00, -1.00, 523.5, 411.0)">e</text><text xml:space="preserve" font-family="Helvetica-Light" font-size="21.0" fill="#A6AAA8" transform="matrix(1.00, 0.00, -0.00, -1.00, 535.2, 411.0)">n</text><text xml:space="preserve" font-family="Helvetica-Light" font-size="21.0" fill="#A6AAA8" transform="matrix(1.00, 0.00, -0.00, -1.00, 546.9, 411.0)">t</text></g></g></g></svg>