<?xml version="1.0" encoding="UTF-8" standalone="no"?><svg xmlns="http://www.w3.org/2000/svg" xmlns:xlink="http://www.w3.org/1999/xlink" clip-rule="evenodd" stroke-miterlimit="4.00" viewBox="0 0 1024 768"><desc>SVG generated by Keynote</desc><defs></defs><g transform="matrix(1.00, 0.00, -0.00, -1.00, 0.0, 768.0)"><path d="M 0.0 768.0 L 1024.0 768.0 L 1024.0 0.0 L 0.0 0.0 Z M 0.0 768.0 " fill="#000000"></path><text xml:space="preserve" font-family="Helvetica-Bold" font-weight="bold" font-size="48.0" fill="#F9FAFF" transform="matrix(1.00, 0.00, -0.00, -1.00, 101.0, 591.0)">s</text><text xml:space="preserve" font-family="Helvetica-Bold" font-weight="bold" font-size="48.0" fill="#F9FAFF" transform="matrix(1.00, 0.00, -0.00, -1.00, 127.7, 591.0)">o</text><text xml:space="preserve" font-family="Helvetica-Bold" font-weight="bold" font-size="48.0" fill="#F9FAFF" transform="matrix(1.00, 0.00, -0.00, -1.00, 157.0, 591.0)">l</text><text xml:space="preserve" font-family="Helvetica-Bold" font-weight="bold" font-size="48.0" fill="#F9FAFF" transform="matrix(1.00, 0.00, -0.00, -1.00, 170.3, 591.0)">u</text><text xml:space="preserve" font-family="Helvetica-Bold" font-weight="bold" font-size="48.0" fill="#F9FAFF" transform="matrix(1.00, 0.00, -0.00, -1.00, 199.7, 591.0)">t</text><text xml:space="preserve" font-family="Helvetica-Bold" font-weight="bold" font-size="48.0" fill="#F9FAFF" transform="matrix(1.00, 0.00, -0.00, -1.00, 215.6, 591.0)">i</text><text xml:space="preserve" font-family="Helvetica-Bold" font-weight="bold" font-size="48.0" fill="#F9FAFF" transform="matrix(1.00, 0.00, -0.00, -1.00, 229.0, 591.0)">o</text><text xml:space="preserve" font-family="Helvetica-Bold" font-weight="bold" font-size="48.0" fill="#F9FAFF" transform="matrix(1.00, 0.00, -0.00, -1.00, 258.3, 591.0)">n</text><text xml:space="preserve" font-family="Helvetica-Bold" font-weight="bold" font-size="48.0" fill="#F9FAFF" transform="matrix(1.00, 0.00, -0.00, -1.00, 101.0, 452.0)">d</text><text xml:space="preserve" font-family="Helvetica-Bold" font-weight="bold" font-size="48.0" fill="#F9FAFF" transform="matrix(1.00, 0.00, -0.00, -1.00, 130.3, 452.0)">e</text><text xml:space="preserve" font-family="Helvetica-Bold" font-weight="bold" font-size="48.0" fill="#F9FAFF" transform="matrix(1.00, 0.00, -0.00, -1.00, 157.0, 452.0)">c</text><text xml:space="preserve" font-family="Helvetica-Bold" font-weight="bold" font-size="48.0" fill="#F9FAFF" transform="matrix(1.00, 0.00, -0.00, -1.00, 183.7, 452.0)">e</text><text xml:space="preserve" font-family="Helvetica-Bold" font-weight="bold" font-size="48.0" fill="#F9FAFF" transform="matrix(1.00, 0.00, -0.00, -1.00, 210.4, 452.0)">n</text><text xml:space="preserve" font-family="Helvetica-Bold" font-weight="bold" font-size="48.0" fill="#F9FAFF" transform="matrix(1.00, 0.00, -0.00, -1.00, 239.7, 452.0)">t</text><text xml:space="preserve" font-family="Helvetica-Bold" font-weight="bold" font-size="48.0" fill="#F9FAFF" transform="matrix(1.00, 0.00, -0.00, -1.00, 255.7, 452.0)">r</text><text xml:space="preserve" font-family="Helvetica-Bold" font-weight="bold" font-size="48.0" fill="#F9FAFF" transform="matrix(1.00, 0.00, -0.00, -1.00, 274.4, 452.0)">a</text><text xml:space="preserve" font-family="Helvetica-Bold" font-weight="bold" font-size="48.0" fill="#F9FAFF" transform="matrix(1.00, 0.00, -0.00, -1.00, 301.1, 452.0)">l</text><text xml:space="preserve" font-family="Helvetica-Bold" font-weight="bold" font-size="48.0" fill="#F9FAFF" transform="matrix(1.00, 0.00, -0.00, -1.00, 314.4, 452.0)">i</text><text xml:space="preserve" font-family="Helvetica-Bold" font-weight="bold" font-size="48.0" fill="#F9FAFF" transform="matrix(1.00, 0.00, -0.00, -1.00, 327.8, 452.0)">z</text><text xml:space="preserve" font-family="Helvetica-Bold" font-weight="bold" font-size="48.0" fill="#F9FAFF" transform="matrix(1.00, 0.00, -0.00, -1.00, 351.8, 452.0)">e</text><text xml:space="preserve" font-family="Helvetica-Bold" font-weight="bold" font-size="48.0" fill="#F9FAFF" transform="matrix(1.00, 0.00, -0.00, -1.00, 378.5, 452.0)">d</text><text xml:space="preserve" font-family="Helvetica-Bold" font-weight="bold" font-size="48.0" fill="#F9FAFF" transform="matrix(1.00, 0.00, -0.00, -1.00, 407.8, 452.0)"> </text><text xml:space="preserve" font-family="Helvetica-Bold" font-weight="bold" font-size="48.0" fill="#F9FAFF" transform="matrix(1.00, 0.00, -0.00, -1.00, 421.1, 452.0)">m</text><text xml:space="preserve" font-family="Helvetica-Bold" font-weight="bold" font-size="48.0" fill="#F9FAFF" transform="matrix(1.00, 0.00, -0.00, -1.00, 463.8, 452.0)">a</text><text xml:space="preserve" font-family="Helvetica-Bold" font-weight="bold" font-size="48.0" fill="#F9FAFF" transform="matrix(1.00, 0.00, -0.00, -1.00, 490.5, 452.0)">r</text><text xml:space="preserve" font-family="Helvetica-Bold" font-weight="bold" font-size="48.0" fill="#F9FAFF" transform="matrix(1.00, 0.00, -0.00, -1.00, 509.2, 452.0)">k</text><text xml:space="preserve" font-family="Helvetica-Bold" font-weight="bold" font-size="48.0" fill="#F9FAFF" transform="matrix(1.00, 0.00, -0.00, -1.00, 535.9, 452.0)">e</text><text xml:space="preserve" font-family="Helvetica-Bold" font-weight="bold" font-size="48.0" fill="#F9FAFF" transform="matrix(1.00, 0.00, -0.00, -1.00, 562.6, 452.0)">t</text><text xml:space="preserve" font-family="Helvetica-Bold" font-weight="bold" font-size="48.0" fill="#F9FAFF" transform="matrix(1.00, 0.00, -0.00, -1.00, 578.6, 452.0)">s</text><text xml:space="preserve" font-family="Helvetica-Light" font-size="48.0" fill="#F9FAFF" transform="matrix(1.00, 0.00, -0.00, -1.00, 101.0, 383.0)">n</text><text xml:space="preserve" font-family="Helvetica-Light" font-size="48.0" fill="#F9FAFF" transform="matrix(1.00, 0.00, -0.00, -1.00, 127.7, 383.0)">o</text><text xml:space="preserve" font-family="Helvetica-Light" font-size="48.0" fill="#F9FAFF" transform="matrix(1.00, 0.00, -0.00, -1.00, 154.4, 383.0)"> </text><text xml:space="preserve" font-family="Helvetica-Light" font-size="48.0" fill="#F9FAFF" transform="matrix(1.00, 0.00, -0.00, -1.00, 167.7, 383.0)">c</text><text xml:space="preserve" font-family="Helvetica-Light" font-size="48.0" fill="#F9FAFF" transform="matrix(1.00, 0.00, -0.00, -1.00, 194.4, 383.0)">e</text><text xml:space="preserve" font-family="Helvetica-Light" font-size="48.0" fill="#F9FAFF" transform="matrix(1.00, 0.00, -0.00, -1.00, 221.1, 383.0)">n</text><text xml:space="preserve" font-family="Helvetica-Light" font-size="48.0" fill="#F9FAFF" transform="matrix(1.00, 0.00, -0.00, -1.00, 247.8, 383.0)">s</text><text xml:space="preserve" font-family="Helvetica-Light" font-size="48.0" fill="#F9FAFF" transform="matrix(1.00, 0.00, -0.00, -1.00, 271.8, 383.0)">o</text><text xml:space="preserve" font-family="Helvetica-Light" font-size="48.0" fill="#F9FAFF" transform="matrix(1.00, 0.00, -0.00, -1.00, 298.5, 383.0)">r</text><text xml:space="preserve" font-family="Helvetica-Light" font-size="48.0" fill="#F9FAFF" transform="matrix(1.00, 0.00, -0.00, -1.00, 314.5, 383.0)">s</text><text xml:space="preserve" font-family="Helvetica-Light" font-size="48.0" fill="#F9FAFF" transform="matrix(1.00, 0.00, -0.00, -1.00, 338.5, 383.0)">h</text><text xml:space="preserve" font-family="Helvetica-Light" font-size="48.0" fill="#F9FAFF" transform="matrix(1.00, 0.00, -0.00, -1.00, 365.1, 383.0)">i</text><text xml:space="preserve" font-family="Helvetica-Light" font-size="48.0" fill="#F9FAFF" transform="matrix(1.00, 0.00, -0.00, -1.00, 375.8, 383.0)">p</text><text xml:space="preserve" font-family="Helvetica-Light" font-size="48.0" fill="#F9FAFF" transform="matrix(1.00, 0.00, -0.00, -1.00, 405.1, 383.0)"> </text><text xml:space="preserve" font-family="Helvetica-Light" font-size="48.0" fill="#F9FAFF" transform="matrix(1.00, 0.00, -0.00, -1.00, 101.0, 313.0)">m</text><text xml:space="preserve" font-family="Helvetica-Light" font-size="48.0" fill="#F9FAFF" transform="matrix(1.00, 0.00, -0.00, -1.00, 141.0, 313.0)">o</text><text xml:space="preserve" font-family="Helvetica-Light" font-size="48.0" fill="#F9FAFF" transform="matrix(1.00, 0.00, -0.00, -1.00, 167.7, 313.0)">r</text><text xml:space="preserve" font-family="Helvetica-Light" font-size="48.0" fill="#F9FAFF" transform="matrix(1.00, 0.00, -0.00, -1.00, 182.8, 313.0)">e</text><text xml:space="preserve" font-family="Helvetica-Light" font-size="48.0" fill="#F9FAFF" transform="matrix(1.00, 0.00, -0.00, -1.00, 209.5, 313.0)"> </text><text xml:space="preserve" font-family="Helvetica-Light" font-size="48.0" fill="#F9FAFF" transform="matrix(1.00, 0.00, -0.00, -1.00, 222.8, 313.0)">p</text><text xml:space="preserve" font-family="Helvetica-Light" font-size="48.0" fill="#F9FAFF" transform="matrix(1.00, 0.00, -0.00, -1.00, 252.2, 313.0)">r</text><text xml:space="preserve" font-family="Helvetica-Light" font-size="48.0" fill="#F9FAFF" transform="matrix(1.00, 0.00, -0.00, -1.00, 268.1, 313.0)">i</text><text xml:space="preserve" font-family="Helvetica-Light" font-size="48.0" fill="#F9FAFF" transform="matrix(1.00, 0.00, -0.00, -1.00, 278.8, 313.0)">v</text><text xml:space="preserve" font-family="Helvetica-Light" font-size="48.0" fill="#F9FAFF" transform="matrix(1.00, 0.00, -0.00, -1.00, 302.8, 313.0)">a</text><text xml:space="preserve" font-family="Helvetica-Light" font-size="48.0" fill="#F9FAFF" transform="matrix(1.00, 0.00, -0.00, -1.00, 329.5, 313.0)">c</text><text xml:space="preserve" font-family="Helvetica-Light" font-size="48.0" fill="#F9FAFF" transform="matrix(1.00, 0.00, -0.00, -1.00, 356.2, 313.0)">y</text><text xml:space="preserve" font-family="Helvetica-Light" font-size="48.0" fill="#F9FAFF" transform="matrix(1.00, 0.00, -0.00, -1.00, 380.2, 313.0)"> </text><text xml:space="preserve" font-family="Helvetica-Light" font-size="48.0" fill="#F9FAFF" transform="matrix(1.00, 0.00, -0.00, -1.00, 101.0, 243.0)">n</text><text xml:space="preserve" font-family="Helvetica-Light" font-size="48.0" fill="#F9FAFF" transform="matrix(1.00, 0.00, -0.00, -1.00, 127.7, 243.0)">o</text><text xml:space="preserve" font-family="Helvetica-Light" font-size="48.0" fill="#F9FAFF" transform="matrix(1.00, 0.00, -0.00, -1.00, 154.4, 243.0)"> </text><text xml:space="preserve" font-family="Helvetica-Light" font-size="48.0" fill="#F9FAFF" transform="matrix(1.00, 0.00, -0.00, -1.00, 167.7, 243.0)">f</text><text xml:space="preserve" font-family="Helvetica-Light" font-size="48.0" fill="#F9FAFF" transform="matrix(1.00, 0.00, -0.00, -1.00, 181.1, 243.0)">e</text><text xml:space="preserve" font-family="Helvetica-Light" font-size="48.0" fill="#F9FAFF" transform="matrix(1.00, 0.00, -0.00, -1.00, 207.8, 243.0)">e</text><text xml:space="preserve" font-family="Helvetica-Light" font-size="48.0" fill="#F9FAFF" transform="matrix(1.00, 0.00, -0.00, -1.00, 234.4, 243.0)">s</text><text xml:space="preserve" font-family="Helvetica-Light" font-size="48.0" fill="#F9FAFF" transform="matrix(1.00, 0.00, -0.00, -1.00, 258.4, 243.0)"> </text><text xml:space="preserve" font-family="Helvetica-Light" font-size="48.0" fill="#F9FAFF" transform="matrix(1.00, 0.00, -0.00, -1.00, 101.0, 174.0)">m</text><text xml:space="preserve" font-family="Helvetica-Light" font-size="48.0" fill="#F9FAFF" transform="matrix(1.00, 0.00, -0.00, -1.00, 141.0, 174.0)">a</text><text xml:space="preserve" font-family="Helvetica-Light" font-size="48.0" fill="#F9FAFF" transform="matrix(1.00, 0.00, -0.00, -1.00, 167.7, 174.0)">r</text><text xml:space="preserve" font-family="Helvetica-Light" font-size="48.0" fill="#F9FAFF" transform="matrix(1.00, 0.00, -0.00, -1.00, 183.7, 174.0)">k</text><text xml:space="preserve" font-family="Helvetica-Light" font-size="48.0" fill="#F9FAFF" transform="matrix(1.00, 0.00, -0.00, -1.00, 207.7, 174.0)">e</text><text xml:space="preserve" font-family="Helvetica-Light" font-size="48.0" fill="#F9FAFF" transform="matrix(1.00, 0.00, -0.00, -1.00, 234.3, 174.0)">t</text><text xml:space="preserve" font-family="Helvetica-Light" font-size="48.0" fill="#F9FAFF" transform="matrix(1.00, 0.00, -0.00, -1.00, 247.7, 174.0)"> </text><text xml:space="preserve" font-family="Helvetica-Light" font-size="48.0" fill="#F9FAFF" transform="matrix(1.00, 0.00, -0.00, -1.00, 261.0, 174.0)">d</text><text xml:space="preserve" font-family="Helvetica-Light" font-size="48.0" fill="#F9FAFF" transform="matrix(1.00, 0.00, -0.00, -1.00, 290.4, 174.0)">i</text><text xml:space="preserve" font-family="Helvetica-Light" font-size="48.0" fill="#F9FAFF" transform="matrix(1.00, 0.00, -0.00, -1.00, 301.0, 174.0)">v</text><text xml:space="preserve" font-family="Helvetica-Light" font-size="48.0" fill="#F9FAFF" transform="matrix(1.00, 0.00, -0.00, -1.00, 325.0, 174.0)">e</text><text xml:space="preserve" font-family="Helvetica-Light" font-size="48.0" fill="#F9FAFF" transform="matrix(1.00, 0.00, -0.00, -1.00, 351.7, 174.0)">r</text><text xml:space="preserve" font-family="Helvetica-Light" font-size="48.0" fill="#F9FAFF" transform="matrix(1.00, 0.00, -0.00, -1.00, 367.7, 174.0)">s</text><text xml:space="preserve" font-family="Helvetica-Light" font-size="48.0" fill="#F9FAFF" transform="matrix(1.00, 0.00, -0.00, -1.00, 391.7, 174.0)">i</text><text xml:space="preserve" font-family="Helvetica-Light" font-size="48.0" fill="#F9FAFF" transform="matrix(1.00, 0.00, -0.00, -1.00, 402.3, 174.0)">t</text><text xml:space="preserve" font-family="Helvetica-Light" font-size="48.0" fill="#F9FAFF" transform="matrix(1.00, 0.00, -0.00, -1.00, 415.7, 174.0)">y</text><text xml:space="preserve" font-family="Helvetica-Light" font-size="48.0" fill="#F9FAFF" transform="matrix(1.00, 0.00, -0.00, -1.00, 439.7, 174.0)"> </text></g></svg>