<?xml version="1.0" encoding="utf-8"?>
<!-- Generator: Adobe Illustrator 16.0.0, SVG Export Plug-In . SVG Version: 6.00 Build 0)  -->
<!DOCTYPE svg PUBLIC "-//W3C//DTD SVG 1.1//EN" "http://www.w3.org/Graphics/SVG/1.1/DTD/svg11.dtd">
<svg version="1.1" id="Layer_1" xmlns="http://www.w3.org/2000/svg" xmlns:xlink="http://www.w3.org/1999/xlink" x="0px" y="0px"
	 width="479.92px" height="512px" viewBox="0 0 479.92 512" enable-background="new 0 0 479.92 512" xml:space="preserve">
<g id="google_plus">
	<g>
		<path fill="#FFFFFF" d="M273.568,296.104c-52.201-37.187-71.686-54.731-38.275-84.207c33.408-29.474,59.853-53.328,59.853-108.092
			c0-54.764-45.239-82.771-45.239-82.771s32.722,4.871,50.144-4.964c17.394-9.773,25.009-16.11,25.009-16.11H158.673
			c-33.346,0-125.952,37.873-125.952,126.294c0,88.454,96.04,107.406,130.884,106c-19.545,23.854-2.81,45.615,7.65,56.793
			c10.459,11.241,8.336,14.738-4.152,14.738C154.551,303.785,0,305.471,0,416.123s205.35,118.646,272.884,59.01
			C340.387,415.499,325.774,333.26,273.568,296.104z M174.721,210.461c-82.865,0-120.457-193.641-22.979-193.641
			C227.611,13.979,284.688,210.461,174.721,210.461z M164.886,481.379c-68.846,0-105.75-34.376-105.75-85.611
			c0-51.269,50.143-76.524,144.123-76.524c25.478,19.638,71,43.491,71,91.263C274.258,458.242,233.73,481.379,164.886,481.379z
			 M417.319,64.216V1.24h-32.533v62.976h-63.694v32.689h63.694v63.069h32.533V96.905h62.601V64.216H417.319z"/>
	</g>
</g>
</svg>
