<?xml version="1.0" encoding="utf-8"?>
<!-- Generator: Adobe Illustrator 16.0.0, SVG Export Plug-In . SVG Version: 6.00 Build 0)  -->
<!DOCTYPE svg PUBLIC "-//W3C//DTD SVG 1.1//EN" "http://www.w3.org/Graphics/SVG/1.1/DTD/svg11.dtd">
<svg version="1.1" id="Layer_1" xmlns="http://www.w3.org/2000/svg" xmlns:xlink="http://www.w3.org/1999/xlink" x="0px" y="0px"
	 width="50px" height="50px" viewBox="0 0 50 50" enable-background="new 0 0 50 50" xml:space="preserve">
<g>
	<path fill="#CCCCCC" d="M24.5,4.112L43,13.125v22.748l-18.5,9.016L6,35.873V13.125L24.5,4.112 M24.5,3L5,12.5v23.998L24.5,46
		L44,36.498V12.5L24.5,3L24.5,3z"/>
</g>
<g>
	<path fill="#CCCCCC" d="M24.48,5.966L35.979,25H13.483L24.48,5.966 M24.461,4L11.75,26h26L24.461,4L24.461,4z"/>
</g>
<g>
	<path fill="#CCCCCC" d="M35.943,26L24.544,43.165L13.573,26H36 M37.75,25h-26L24.5,45L37.75,25L37.75,25z"/>
</g>
<polyline fill="none" stroke="#CCCCCC" stroke-linejoin="bevel" stroke-miterlimit="10" points="43.542,35.77 37.5,25.5 
	43.594,13.266 "/>
<polyline fill="none" stroke="#CCCCCC" stroke-linejoin="bevel" stroke-miterlimit="10" points="5.575,35.747 12,25.5 5.524,13.293 
	"/>
</svg>
