<?xml version="1.0" encoding="utf-8"?>
<!-- Generator: Adobe Illustrator 16.0.0, SVG Export Plug-In . SVG Version: 6.00 Build 0)  -->
<!DOCTYPE svg PUBLIC "-//W3C//DTD SVG 1.1//EN" "http://www.w3.org/Graphics/SVG/1.1/DTD/svg11.dtd">
<svg version="1.1" id="Layer_1" xmlns="http://www.w3.org/2000/svg" xmlns:xlink="http://www.w3.org/1999/xlink" x="0px" y="0px"
	 width="510.436px" height="512px" viewBox="0 0 510.436 512" enable-background="new 0 0 510.436 512" xml:space="preserve">
<g id="pinterest">
	<g>
		<path fill="#FFFFFF" d="M255.221,10.994c-135.302,0-245.003,109.703-245.003,245.004c0,100.849,60.951,187.461,148.013,225.055
			c-0.658-17.049-0.03-37.446,4.306-55.898c4.725-19.948,31.641-133.985,31.641-133.985s-7.835-15.7-7.835-38.91
			c0-36.427,21.114-63.643,47.403-63.643c22.371,0,33.168,16.808,33.168,36.937c0,22.459-14.325,56.075-21.713,87.241
			c-6.162,26.078,13.099,47.373,38.819,47.373c46.568,0,77.938-59.845,77.938-130.755c0-53.895-36.248-94.238-102.286-94.238
			c-74.587,0-121.096,55.627-121.096,117.776c0,21.414,6.34,36.547,16.24,48.242c4.547,5.353,5.175,7.536,3.53,13.697
			c-1.196,4.517-3.858,15.402-4.995,19.74c-1.645,6.219-6.7,8.434-12.321,6.132c-34.334-13.998-50.365-51.621-50.365-93.91
			c0-69.864,58.918-153.634,175.735-153.634c93.911,0,155.67,67.949,155.67,140.863c0,96.482-53.625,168.528-132.671,168.528
			c-26.557,0-51.531-14.354-60.055-30.626c0,0-14.296,56.618-17.286,67.564c-5.174,18.694-15.134,37.354-24.345,52.041
			c21.414,6.131,44.084,9.418,67.501,9.418c135.301,0,245.002-109.701,245.002-245.003
			C500.224,120.699,390.522,10.994,255.221,10.994z"/>
	</g>
</g>
</svg>
