<?xml version="1.0" encoding="utf-8"?>
<!-- Generator: Adobe Illustrator 16.0.0, SVG Export Plug-In . SVG Version: 6.00 Build 0)  -->
<!DOCTYPE svg PUBLIC "-//W3C//DTD SVG 1.1//EN" "http://www.w3.org/Graphics/SVG/1.1/DTD/svg11.dtd">
<svg version="1.1" id="Layer_1" xmlns="http://www.w3.org/2000/svg" xmlns:xlink="http://www.w3.org/1999/xlink" x="0px" y="0px"
	 width="287.393px" height="512px" viewBox="0 0 287.393 512" enable-background="new 0 0 287.393 512" xml:space="preserve">
<g id="tumblr">
	<g>
		<path fill="#FFFFFF" d="M238.184,412.092c-43.727,0-78.076-34.009-78.076-60.263c0-11.586,0-65.59,0-143.354h94.832v-82.623
			h-94.832c0-66.989,0-109.531,0-109.531s-29.898,0-64.873,0C95.236,127.128,0,129.744,0,129.744v77.733h64.218
			c0,0,0,109.376,0,172.534c0,63.19,58.332,115.668,129.275,115.668c70.947,0,93.898-28.186,93.898-28.186v-83.591
			C287.391,383.906,281.94,412.092,238.184,412.092z"/>
	</g>
</g>
</svg>
