<?xml version="1.0" encoding="utf-8"?>
<!-- Generator: Adobe Illustrator 16.0.0, SVG Export Plug-In . SVG Version: 6.00 Build 0)  -->
<!DOCTYPE svg PUBLIC "-//W3C//DTD SVG 1.1//EN" "http://www.w3.org/Graphics/SVG/1.1/DTD/svg11.dtd">
<svg version="1.1" id="Layer_1" xmlns="http://www.w3.org/2000/svg" xmlns:xlink="http://www.w3.org/1999/xlink" x="0px" y="0px"
	 width="550.925px" height="512px" viewBox="0 0 550.925 512" enable-background="new 0 0 550.925 512" xml:space="preserve">
<g id="twitter">
	<g>
		<path fill="#FFFFFF" d="M550.925,85.988c-9.281,5.111-37.123,15.333-63.082,17.889C504.49,94.9,529.136,65.51,535.22,42.14
			c-16.002,10.222-52.758,25.119-70.914,25.119c0,0,0,0.034,0.033,0.067c-20.713-21.655-49.836-35.14-82.184-35.14
			c-62.744,0-113.655,50.876-113.655,113.655c0,8.71,1.044,17.184,2.926,25.32h-0.034c-85.139-2.185-184.672-44.856-240.76-117.892
			c-34.433,59.652-4.641,125.963,34.466,150.139c-13.349,1.042-38.031-1.513-49.63-12.81
			c-0.809,39.577,18.258,92.033,87.662,111.033c-13.383,7.229-36.989,5.178-47.312,3.598c3.631,33.455,50.438,77.17,101.583,77.17
			C139.176,403.447,76.968,441.748,0,429.543c52.286,31.846,113.25,50.271,177.778,50.271c183.362,0,325.766-148.594,318.1-331.921
			c0-0.201-0.068-0.437-0.068-0.604c0-0.505,0.068-1.009,0.068-1.446c0-0.571-0.068-1.109-0.068-1.715
			C512.49,132.762,534.884,112.587,550.925,85.988z"/>
	</g>
</g>
</svg>
