<?xml version="1.0" encoding="UTF-8" standalone="no"?><svg xmlns="http://www.w3.org/2000/svg" xmlns:xlink="http://www.w3.org/1999/xlink" clip-rule="evenodd" stroke-miterlimit="4.00" viewBox="0 0 1024 768"><desc>SVG generated by Keynote</desc><defs></defs><g transform="matrix(1.00, 0.00, -0.00, -1.00, 0.0, 768.0)"><path d="M 0.0 768.0 L 1024.0 768.0 L 1024.0 0.0 L 0.0 0.0 Z M 0.0 768.0 " fill="#000000"></path><text xml:space="preserve" font-family="Helvetica-Bold" font-weight="bold" font-size="41.0" fill="#FEFFFF" transform="matrix(1.00, 0.00, -0.00, -1.00, 105.0, 523.0)">p</text><text xml:space="preserve" font-family="Helvetica-Bold" font-weight="bold" font-size="41.0" fill="#FEFFFF" transform="matrix(1.00, 0.00, -0.00, -1.00, 130.0, 523.0)">o</text><text xml:space="preserve" font-family="Helvetica-Bold" font-weight="bold" font-size="41.0" fill="#FEFFFF" transform="matrix(1.00, 0.00, -0.00, -1.00, 155.1, 523.0)">t</text><text xml:space="preserve" font-family="Helvetica-Bold" font-weight="bold" font-size="41.0" fill="#FEFFFF" transform="matrix(1.00, 0.00, -0.00, -1.00, 168.7, 523.0)">e</text><text xml:space="preserve" font-family="Helvetica-Bold" font-weight="bold" font-size="41.0" fill="#FEFFFF" transform="matrix(1.00, 0.00, -0.00, -1.00, 191.5, 523.0)">n</text><text xml:space="preserve" font-family="Helvetica-Bold" font-weight="bold" font-size="41.0" fill="#FEFFFF" transform="matrix(1.00, 0.00, -0.00, -1.00, 216.6, 523.0)">t</text><text xml:space="preserve" font-family="Helvetica-Bold" font-weight="bold" font-size="41.0" fill="#FEFFFF" transform="matrix(1.00, 0.00, -0.00, -1.00, 230.2, 523.0)">i</text><text xml:space="preserve" font-family="Helvetica-Bold" font-weight="bold" font-size="41.0" fill="#FEFFFF" transform="matrix(1.00, 0.00, -0.00, -1.00, 241.6, 523.0)">a</text><text xml:space="preserve" font-family="Helvetica-Bold" font-weight="bold" font-size="41.0" fill="#FEFFFF" transform="matrix(1.00, 0.00, -0.00, -1.00, 264.4, 523.0)">l</text><text xml:space="preserve" font-family="Helvetica-Bold" font-weight="bold" font-size="41.0" fill="#FEFFFF" transform="matrix(1.00, 0.00, -0.00, -1.00, 275.8, 523.0)"> </text><text xml:space="preserve" font-family="Helvetica-Bold" font-weight="bold" font-size="41.0" fill="#FEFFFF" transform="matrix(1.00, 0.00, -0.00, -1.00, 287.2, 523.0)">p</text><text xml:space="preserve" font-family="Helvetica-Bold" font-weight="bold" font-size="41.0" fill="#FEFFFF" transform="matrix(1.00, 0.00, -0.00, -1.00, 312.2, 523.0)">u</text><text xml:space="preserve" font-family="Helvetica-Bold" font-weight="bold" font-size="41.0" fill="#FEFFFF" transform="matrix(1.00, 0.00, -0.00, -1.00, 337.3, 523.0)">b</text><text xml:space="preserve" font-family="Helvetica-Bold" font-weight="bold" font-size="41.0" fill="#FEFFFF" transform="matrix(1.00, 0.00, -0.00, -1.00, 362.3, 523.0)">l</text><text xml:space="preserve" font-family="Helvetica-Bold" font-weight="bold" font-size="41.0" fill="#FEFFFF" transform="matrix(1.00, 0.00, -0.00, -1.00, 373.7, 523.0)">i</text><text xml:space="preserve" font-family="Helvetica-Bold" font-weight="bold" font-size="41.0" fill="#FEFFFF" transform="matrix(1.00, 0.00, -0.00, -1.00, 385.1, 523.0)">s</text><text xml:space="preserve" font-family="Helvetica-Bold" font-weight="bold" font-size="41.0" fill="#FEFFFF" transform="matrix(1.00, 0.00, -0.00, -1.00, 407.9, 523.0)">h</text><text xml:space="preserve" font-family="Helvetica-Bold" font-weight="bold" font-size="41.0" fill="#FEFFFF" transform="matrix(1.00, 0.00, -0.00, -1.00, 432.9, 523.0)">e</text><text xml:space="preserve" font-family="Helvetica-Bold" font-weight="bold" font-size="41.0" fill="#FEFFFF" transform="matrix(1.00, 0.00, -0.00, -1.00, 455.7, 523.0)">r</text><text xml:space="preserve" font-family="Helvetica-Bold" font-weight="bold" font-size="41.0" fill="#FEFFFF" transform="matrix(1.00, 0.00, -0.00, -1.00, 471.7, 523.0)">s</text><text xml:space="preserve" font-family="Helvetica-Light" font-size="41.0" fill="#FEFFFF" transform="matrix(1.00, 0.00, -0.00, -1.00, 105.0, 405.0)">w</text><text xml:space="preserve" font-family="Helvetica-Light" font-size="41.0" fill="#FEFFFF" transform="matrix(1.00, 0.00, -0.00, -1.00, 134.6, 405.0)">h</text><text xml:space="preserve" font-family="Helvetica-Light" font-size="41.0" fill="#FEFFFF" transform="matrix(1.00, 0.00, -0.00, -1.00, 157.4, 405.0)">i</text><text xml:space="preserve" font-family="Helvetica-Light" font-size="41.0" fill="#FEFFFF" transform="matrix(1.00, 0.00, -0.00, -1.00, 166.5, 405.0)">s</text><text xml:space="preserve" font-family="Helvetica-Light" font-size="41.0" fill="#FEFFFF" transform="matrix(1.00, 0.00, -0.00, -1.00, 187.0, 405.0)">t</text><text xml:space="preserve" font-family="Helvetica-Light" font-size="41.0" fill="#FEFFFF" transform="matrix(1.00, 0.00, -0.00, -1.00, 198.4, 405.0)">l</text><text xml:space="preserve" font-family="Helvetica-Light" font-size="41.0" fill="#FEFFFF" transform="matrix(1.00, 0.00, -0.00, -1.00, 207.5, 405.0)">e</text><text xml:space="preserve" font-family="Helvetica-Light" font-size="41.0" fill="#FEFFFF" transform="matrix(1.00, 0.00, -0.00, -1.00, 230.3, 405.0)">b</text><text xml:space="preserve" font-family="Helvetica-Light" font-size="41.0" fill="#FEFFFF" transform="matrix(1.00, 0.00, -0.00, -1.00, 255.3, 405.0)">l</text><text xml:space="preserve" font-family="Helvetica-Light" font-size="41.0" fill="#FEFFFF" transform="matrix(1.00, 0.00, -0.00, -1.00, 264.4, 405.0)">o</text><text xml:space="preserve" font-family="Helvetica-Light" font-size="41.0" fill="#FEFFFF" transform="matrix(1.00, 0.00, -0.00, -1.00, 287.2, 405.0)">w</text><text xml:space="preserve" font-family="Helvetica-Light" font-size="41.0" fill="#FEFFFF" transform="matrix(1.00, 0.00, -0.00, -1.00, 316.8, 405.0)">e</text><text xml:space="preserve" font-family="Helvetica-Light" font-size="41.0" fill="#FEFFFF" transform="matrix(1.00, 0.00, -0.00, -1.00, 339.6, 405.0)">r</text><text xml:space="preserve" font-family="Helvetica-Light" font-size="41.0" fill="#FEFFFF" transform="matrix(1.00, 0.00, -0.00, -1.00, 353.3, 405.0)">s</text><text xml:space="preserve" font-family="Helvetica-Light" font-size="41.0" fill="#FEFFFF" transform="matrix(1.00, 0.00, -0.00, -1.00, 373.8, 405.0)"> </text><text xml:space="preserve" font-family="Helvetica-Light" font-size="41.0" fill="#FEFFFF" transform="matrix(1.00, 0.00, -0.00, -1.00, 385.2, 405.0)"> </text><text xml:space="preserve" font-family="Helvetica-Light" font-size="41.0" fill="#FEFFFF" transform="matrix(1.00, 0.00, -0.00, -1.00, 105.0, 346.0)">j</text><text xml:space="preserve" font-family="Helvetica-Light" font-size="41.0" fill="#FEFFFF" transform="matrix(1.00, 0.00, -0.00, -1.00, 114.1, 346.0)">o</text><text xml:space="preserve" font-family="Helvetica-Light" font-size="41.0" fill="#FEFFFF" transform="matrix(1.00, 0.00, -0.00, -1.00, 136.9, 346.0)">u</text><text xml:space="preserve" font-family="Helvetica-Light" font-size="41.0" fill="#FEFFFF" transform="matrix(1.00, 0.00, -0.00, -1.00, 159.7, 346.0)">r</text><text xml:space="preserve" font-family="Helvetica-Light" font-size="41.0" fill="#FEFFFF" transform="matrix(1.00, 0.00, -0.00, -1.00, 174.1, 346.0)">n</text><text xml:space="preserve" font-family="Helvetica-Light" font-size="41.0" fill="#FEFFFF" transform="matrix(1.00, 0.00, -0.00, -1.00, 196.9, 346.0)">a</text><text xml:space="preserve" font-family="Helvetica-Light" font-size="41.0" fill="#FEFFFF" transform="matrix(1.00, 0.00, -0.00, -1.00, 219.7, 346.0)">l</text><text xml:space="preserve" font-family="Helvetica-Light" font-size="41.0" fill="#FEFFFF" transform="matrix(1.00, 0.00, -0.00, -1.00, 228.8, 346.0)">i</text><text xml:space="preserve" font-family="Helvetica-Light" font-size="41.0" fill="#FEFFFF" transform="matrix(1.00, 0.00, -0.00, -1.00, 237.9, 346.0)">s</text><text xml:space="preserve" font-family="Helvetica-Light" font-size="41.0" fill="#FEFFFF" transform="matrix(1.00, 0.00, -0.00, -1.00, 258.4, 346.0)">t</text><text xml:space="preserve" font-family="Helvetica-Light" font-size="41.0" fill="#FEFFFF" transform="matrix(1.00, 0.00, -0.00, -1.00, 269.8, 346.0)">s</text><text xml:space="preserve" font-family="Helvetica-Light" font-size="41.0" fill="#FEFFFF" transform="matrix(1.00, 0.00, -0.00, -1.00, 290.3, 346.0)"> </text><text xml:space="preserve" font-family="Helvetica-Light" font-size="41.0" fill="#FEFFFF" transform="matrix(1.00, 0.00, -0.00, -1.00, 301.7, 346.0)">&amp;</text><text xml:space="preserve" font-family="Helvetica-Light" font-size="41.0" fill="#FEFFFF" transform="matrix(1.00, 0.00, -0.00, -1.00, 329.0, 346.0)"> </text><text xml:space="preserve" font-family="Helvetica-Light" font-size="41.0" fill="#FEFFFF" transform="matrix(1.00, 0.00, -0.00, -1.00, 340.4, 346.0)">i</text><text xml:space="preserve" font-family="Helvetica-Light" font-size="41.0" fill="#FEFFFF" transform="matrix(1.00, 0.00, -0.00, -1.00, 349.5, 346.0)">n</text><text xml:space="preserve" font-family="Helvetica-Light" font-size="41.0" fill="#FEFFFF" transform="matrix(1.00, 0.00, -0.00, -1.00, 372.3, 346.0)">v</text><text xml:space="preserve" font-family="Helvetica-Light" font-size="41.0" fill="#FEFFFF" transform="matrix(1.00, 0.00, -0.00, -1.00, 392.8, 346.0)">e</text><text xml:space="preserve" font-family="Helvetica-Light" font-size="41.0" fill="#FEFFFF" transform="matrix(1.00, 0.00, -0.00, -1.00, 415.6, 346.0)">s</text><text xml:space="preserve" font-family="Helvetica-Light" font-size="41.0" fill="#FEFFFF" transform="matrix(1.00, 0.00, -0.00, -1.00, 436.1, 346.0)">t</text><text xml:space="preserve" font-family="Helvetica-Light" font-size="41.0" fill="#FEFFFF" transform="matrix(1.00, 0.00, -0.00, -1.00, 447.5, 346.0)">i</text><text xml:space="preserve" font-family="Helvetica-Light" font-size="41.0" fill="#FEFFFF" transform="matrix(1.00, 0.00, -0.00, -1.00, 456.6, 346.0)">g</text><text xml:space="preserve" font-family="Helvetica-Light" font-size="41.0" fill="#FEFFFF" transform="matrix(1.00, 0.00, -0.00, -1.00, 481.7, 346.0)">a</text><text xml:space="preserve" font-family="Helvetica-Light" font-size="41.0" fill="#FEFFFF" transform="matrix(1.00, 0.00, -0.00, -1.00, 504.5, 346.0)">t</text><text xml:space="preserve" font-family="Helvetica-Light" font-size="41.0" fill="#FEFFFF" transform="matrix(1.00, 0.00, -0.00, -1.00, 515.9, 346.0)">o</text><text xml:space="preserve" font-family="Helvetica-Light" font-size="41.0" fill="#FEFFFF" transform="matrix(1.00, 0.00, -0.00, -1.00, 538.7, 346.0)">r</text><text xml:space="preserve" font-family="Helvetica-Light" font-size="41.0" fill="#FEFFFF" transform="matrix(1.00, 0.00, -0.00, -1.00, 552.3, 346.0)">s</text><text xml:space="preserve" font-family="Helvetica-Light" font-size="41.0" fill="#FEFFFF" transform="matrix(1.00, 0.00, -0.00, -1.00, 572.8, 346.0)"> </text><text xml:space="preserve" font-family="Helvetica-Light" font-size="41.0" fill="#FEFFFF" transform="matrix(1.00, 0.00, -0.00, -1.00, 105.0, 287.0)">d</text><text xml:space="preserve" font-family="Helvetica-Light" font-size="41.0" fill="#FEFFFF" transform="matrix(1.00, 0.00, -0.00, -1.00, 130.1, 287.0)">i</text><text xml:space="preserve" font-family="Helvetica-Light" font-size="41.0" fill="#FEFFFF" transform="matrix(1.00, 0.00, -0.00, -1.00, 139.2, 287.0)">g</text><text xml:space="preserve" font-family="Helvetica-Light" font-size="41.0" fill="#FEFFFF" transform="matrix(1.00, 0.00, -0.00, -1.00, 164.2, 287.0)">i</text><text xml:space="preserve" font-family="Helvetica-Light" font-size="41.0" fill="#FEFFFF" transform="matrix(1.00, 0.00, -0.00, -1.00, 173.3, 287.0)">t</text><text xml:space="preserve" font-family="Helvetica-Light" font-size="41.0" fill="#FEFFFF" transform="matrix(1.00, 0.00, -0.00, -1.00, 184.7, 287.0)">a</text><text xml:space="preserve" font-family="Helvetica-Light" font-size="41.0" fill="#FEFFFF" transform="matrix(1.00, 0.00, -0.00, -1.00, 207.5, 287.0)">l</text><text xml:space="preserve" font-family="Helvetica-Light" font-size="41.0" fill="#FEFFFF" transform="matrix(1.00, 0.00, -0.00, -1.00, 216.6, 287.0)"> </text><text xml:space="preserve" font-family="Helvetica-Light" font-size="41.0" fill="#FEFFFF" transform="matrix(1.00, 0.00, -0.00, -1.00, 228.0, 287.0)">c</text><text xml:space="preserve" font-family="Helvetica-Light" font-size="41.0" fill="#FEFFFF" transform="matrix(1.00, 0.00, -0.00, -1.00, 250.8, 287.0)">o</text><text xml:space="preserve" font-family="Helvetica-Light" font-size="41.0" fill="#FEFFFF" transform="matrix(1.00, 0.00, -0.00, -1.00, 273.6, 287.0)">n</text><text xml:space="preserve" font-family="Helvetica-Light" font-size="41.0" fill="#FEFFFF" transform="matrix(1.00, 0.00, -0.00, -1.00, 296.4, 287.0)">t</text><text xml:space="preserve" font-family="Helvetica-Light" font-size="41.0" fill="#FEFFFF" transform="matrix(1.00, 0.00, -0.00, -1.00, 307.8, 287.0)">e</text><text xml:space="preserve" font-family="Helvetica-Light" font-size="41.0" fill="#FEFFFF" transform="matrix(1.00, 0.00, -0.00, -1.00, 330.6, 287.0)">n</text><text xml:space="preserve" font-family="Helvetica-Light" font-size="41.0" fill="#FEFFFF" transform="matrix(1.00, 0.00, -0.00, -1.00, 353.4, 287.0)">t</text><text xml:space="preserve" font-family="Helvetica-Light" font-size="41.0" fill="#FEFFFF" transform="matrix(1.00, 0.00, -0.00, -1.00, 364.8, 287.0)"> </text><text xml:space="preserve" font-family="Helvetica-Light" font-size="41.0" fill="#FEFFFF" transform="matrix(1.00, 0.00, -0.00, -1.00, 376.2, 287.0)">c</text><text xml:space="preserve" font-family="Helvetica-Light" font-size="41.0" fill="#FEFFFF" transform="matrix(1.00, 0.00, -0.00, -1.00, 399.0, 287.0)">r</text><text xml:space="preserve" font-family="Helvetica-Light" font-size="41.0" fill="#FEFFFF" transform="matrix(1.00, 0.00, -0.00, -1.00, 411.9, 287.0)">e</text><text xml:space="preserve" font-family="Helvetica-Light" font-size="41.0" fill="#FEFFFF" transform="matrix(1.00, 0.00, -0.00, -1.00, 434.7, 287.0)">a</text><text xml:space="preserve" font-family="Helvetica-Light" font-size="41.0" fill="#FEFFFF" transform="matrix(1.00, 0.00, -0.00, -1.00, 457.5, 287.0)">t</text><text xml:space="preserve" font-family="Helvetica-Light" font-size="41.0" fill="#FEFFFF" transform="matrix(1.00, 0.00, -0.00, -1.00, 468.9, 287.0)">o</text><text xml:space="preserve" font-family="Helvetica-Light" font-size="41.0" fill="#FEFFFF" transform="matrix(1.00, 0.00, -0.00, -1.00, 491.7, 287.0)">r</text><text xml:space="preserve" font-family="Helvetica-Light" font-size="41.0" fill="#FEFFFF" transform="matrix(1.00, 0.00, -0.00, -1.00, 505.3, 287.0)">s</text></g></svg>