<?xml version="1.0" encoding="UTF-8" standalone="no"?><svg xmlns="http://www.w3.org/2000/svg" xmlns:xlink="http://www.w3.org/1999/xlink" clip-rule="evenodd" stroke-miterlimit="4.00" viewBox="0 0 1024 768"><desc>SVG generated by Keynote</desc><defs></defs><g transform="matrix(1.00, 0.00, -0.00, -1.00, 0.0, 768.0)"><path d="M 0.0 768.0 L 1024.0 768.0 L 1024.0 0.0 L 0.0 0.0 Z M 0.0 768.0 " fill="#000000"></path><text xml:space="preserve" font-family="Helvetica-Light" font-size="48.0" fill="#FEFFFF" transform="matrix(1.00, 0.00, -0.00, -1.00, 125.0, 463.0)">a</text><text xml:space="preserve" font-family="Helvetica-Light" font-size="48.0" fill="#FEFFFF" transform="matrix(1.00, 0.00, -0.00, -1.00, 151.7, 463.0)">p</text><text xml:space="preserve" font-family="Helvetica-Light" font-size="48.0" fill="#FEFFFF" transform="matrix(1.00, 0.00, -0.00, -1.00, 181.0, 463.0)">p</text><text xml:space="preserve" font-family="Helvetica-Light" font-size="48.0" fill="#FEFFFF" transform="matrix(1.00, 0.00, -0.00, -1.00, 210.3, 463.0)">,</text><text xml:space="preserve" font-family="Helvetica-Light" font-size="48.0" fill="#FEFFFF" transform="matrix(1.00, 0.00, -0.00, -1.00, 223.7, 463.0)"> </text><text xml:space="preserve" font-family="Helvetica-Light" font-size="48.0" fill="#FEFFFF" transform="matrix(1.00, 0.00, -0.00, -1.00, 237.0, 463.0)">s</text><text xml:space="preserve" font-family="Helvetica-Light" font-size="48.0" fill="#FEFFFF" transform="matrix(1.00, 0.00, -0.00, -1.00, 261.0, 463.0)">o</text><text xml:space="preserve" font-family="Helvetica-Light" font-size="48.0" fill="#FEFFFF" transform="matrix(1.00, 0.00, -0.00, -1.00, 287.7, 463.0)">u</text><text xml:space="preserve" font-family="Helvetica-Light" font-size="48.0" fill="#FEFFFF" transform="matrix(1.00, 0.00, -0.00, -1.00, 314.4, 463.0)">r</text><text xml:space="preserve" font-family="Helvetica-Light" font-size="48.0" fill="#FEFFFF" transform="matrix(1.00, 0.00, -0.00, -1.00, 329.5, 463.0)">c</text><text xml:space="preserve" font-family="Helvetica-Light" font-size="48.0" fill="#FEFFFF" transform="matrix(1.00, 0.00, -0.00, -1.00, 356.2, 463.0)">e</text><text xml:space="preserve" font-family="Helvetica-Light" font-size="48.0" fill="#FEFFFF" transform="matrix(1.00, 0.00, -0.00, -1.00, 382.9, 463.0)">,</text><text xml:space="preserve" font-family="Helvetica-Light" font-size="48.0" fill="#FEFFFF" transform="matrix(1.00, 0.00, -0.00, -1.00, 396.2, 463.0)"> </text><text xml:space="preserve" font-family="Helvetica-Light" font-size="48.0" fill="#FEFFFF" transform="matrix(1.00, 0.00, -0.00, -1.00, 409.6, 463.0)">w</text><text xml:space="preserve" font-family="Helvetica-Light" font-size="48.0" fill="#FEFFFF" transform="matrix(1.00, 0.00, -0.00, -1.00, 444.2, 463.0)">h</text><text xml:space="preserve" font-family="Helvetica-Light" font-size="48.0" fill="#FEFFFF" transform="matrix(1.00, 0.00, -0.00, -1.00, 470.9, 463.0)">i</text><text xml:space="preserve" font-family="Helvetica-Light" font-size="48.0" fill="#FEFFFF" transform="matrix(1.00, 0.00, -0.00, -1.00, 481.6, 463.0)">t</text><text xml:space="preserve" font-family="Helvetica-Light" font-size="48.0" fill="#FEFFFF" transform="matrix(1.00, 0.00, -0.00, -1.00, 494.9, 463.0)">e</text><text xml:space="preserve" font-family="Helvetica-Light" font-size="48.0" fill="#FEFFFF" transform="matrix(1.00, 0.00, -0.00, -1.00, 521.6, 463.0)"> </text><text xml:space="preserve" font-family="Helvetica-Light" font-size="48.0" fill="#FEFFFF" transform="matrix(1.00, 0.00, -0.00, -1.00, 535.0, 463.0)">p</text><text xml:space="preserve" font-family="Helvetica-Light" font-size="48.0" fill="#FEFFFF" transform="matrix(1.00, 0.00, -0.00, -1.00, 564.3, 463.0)">a</text><text xml:space="preserve" font-family="Helvetica-Light" font-size="48.0" fill="#FEFFFF" transform="matrix(1.00, 0.00, -0.00, -1.00, 591.0, 463.0)">p</text><text xml:space="preserve" font-family="Helvetica-Light" font-size="48.0" fill="#FEFFFF" transform="matrix(1.00, 0.00, -0.00, -1.00, 620.3, 463.0)">e</text><text xml:space="preserve" font-family="Helvetica-Light" font-size="48.0" fill="#FEFFFF" transform="matrix(1.00, 0.00, -0.00, -1.00, 647.0, 463.0)">r</text><text xml:space="preserve" font-family="Helvetica-Light" font-size="48.0" fill="#FEFFFF" transform="matrix(1.00, 0.00, -0.00, -1.00, 663.0, 463.0)"> </text><text xml:space="preserve" font-family="Helvetica-Light" font-size="48.0" fill="#FEFFFF" transform="matrix(1.00, 0.00, -0.00, -1.00, 676.3, 463.0)">a</text><text xml:space="preserve" font-family="Helvetica-Light" font-size="48.0" fill="#FEFFFF" transform="matrix(1.00, 0.00, -0.00, -1.00, 703.0, 463.0)">n</text><text xml:space="preserve" font-family="Helvetica-Light" font-size="48.0" fill="#FEFFFF" transform="matrix(1.00, 0.00, -0.00, -1.00, 729.7, 463.0)">d</text><text xml:space="preserve" font-family="Helvetica-Light" font-size="48.0" fill="#FEFFFF" transform="matrix(1.00, 0.00, -0.00, -1.00, 759.0, 463.0)"> </text><text xml:space="preserve" font-family="Helvetica-Light" font-size="48.0" fill="#FEFFFF" transform="matrix(1.00, 0.00, -0.00, -1.00, 772.4, 463.0)"> </text><text xml:space="preserve" font-family="Helvetica-Light" font-size="48.0" fill="#FEFFFF" transform="matrix(1.00, 0.00, -0.00, -1.00, 125.0, 393.0)">p</text><text xml:space="preserve" font-family="Helvetica-Light" font-size="48.0" fill="#FEFFFF" transform="matrix(1.00, 0.00, -0.00, -1.00, 154.3, 393.0)">r</text><text xml:space="preserve" font-family="Helvetica-Light" font-size="48.0" fill="#FEFFFF" transform="matrix(1.00, 0.00, -0.00, -1.00, 169.4, 393.0)">o</text><text xml:space="preserve" font-family="Helvetica-Light" font-size="48.0" fill="#FEFFFF" transform="matrix(1.00, 0.00, -0.00, -1.00, 196.1, 393.0)">t</text><text xml:space="preserve" font-family="Helvetica-Light" font-size="48.0" fill="#FEFFFF" transform="matrix(1.00, 0.00, -0.00, -1.00, 209.5, 393.0)">o</text><text xml:space="preserve" font-family="Helvetica-Light" font-size="48.0" fill="#FEFFFF" transform="matrix(1.00, 0.00, -0.00, -1.00, 236.2, 393.0)">c</text><text xml:space="preserve" font-family="Helvetica-Light" font-size="48.0" fill="#FEFFFF" transform="matrix(1.00, 0.00, -0.00, -1.00, 262.9, 393.0)">o</text><text xml:space="preserve" font-family="Helvetica-Light" font-size="48.0" fill="#FEFFFF" transform="matrix(1.00, 0.00, -0.00, -1.00, 289.5, 393.0)">l</text><text xml:space="preserve" font-family="Helvetica-Light" font-size="48.0" fill="#FEFFFF" transform="matrix(1.00, 0.00, -0.00, -1.00, 300.2, 393.0)"> </text><text xml:space="preserve" font-family="Helvetica-Light" font-size="48.0" fill="#FEFFFF" transform="matrix(1.00, 0.00, -0.00, -1.00, 313.5, 393.0)">s</text><text xml:space="preserve" font-family="Helvetica-Light" font-size="48.0" fill="#FEFFFF" transform="matrix(1.00, 0.00, -0.00, -1.00, 337.5, 393.0)">p</text><text xml:space="preserve" font-family="Helvetica-Light" font-size="48.0" fill="#FEFFFF" transform="matrix(1.00, 0.00, -0.00, -1.00, 366.9, 393.0)">e</text><text xml:space="preserve" font-family="Helvetica-Light" font-size="48.0" fill="#FEFFFF" transform="matrix(1.00, 0.00, -0.00, -1.00, 393.6, 393.0)">c</text><text xml:space="preserve" font-family="Helvetica-Light" font-size="48.0" fill="#FEFFFF" transform="matrix(1.00, 0.00, -0.00, -1.00, 420.2, 393.0)"> </text><text xml:space="preserve" font-family="Helvetica-Light" font-size="48.0" fill="#FEFFFF" transform="matrix(1.00, 0.00, -0.00, -1.00, 433.6, 393.0)">a</text><text xml:space="preserve" font-family="Helvetica-Light" font-size="48.0" fill="#FEFFFF" transform="matrix(1.00, 0.00, -0.00, -1.00, 460.3, 393.0)">v</text><text xml:space="preserve" font-family="Helvetica-Light" font-size="48.0" fill="#FEFFFF" transform="matrix(1.00, 0.00, -0.00, -1.00, 484.3, 393.0)">a</text><text xml:space="preserve" font-family="Helvetica-Light" font-size="48.0" fill="#FEFFFF" transform="matrix(1.00, 0.00, -0.00, -1.00, 511.0, 393.0)">i</text><text xml:space="preserve" font-family="Helvetica-Light" font-size="48.0" fill="#FEFFFF" transform="matrix(1.00, 0.00, -0.00, -1.00, 521.6, 393.0)">l</text><text xml:space="preserve" font-family="Helvetica-Light" font-size="48.0" fill="#FEFFFF" transform="matrix(1.00, 0.00, -0.00, -1.00, 532.3, 393.0)">a</text><text xml:space="preserve" font-family="Helvetica-Light" font-size="48.0" fill="#FEFFFF" transform="matrix(1.00, 0.00, -0.00, -1.00, 559.0, 393.0)">b</text><text xml:space="preserve" font-family="Helvetica-Light" font-size="48.0" fill="#FEFFFF" transform="matrix(1.00, 0.00, -0.00, -1.00, 588.3, 393.0)">l</text><text xml:space="preserve" font-family="Helvetica-Light" font-size="48.0" fill="#FEFFFF" transform="matrix(1.00, 0.00, -0.00, -1.00, 599.0, 393.0)">e</text><text xml:space="preserve" font-family="Helvetica-Light" font-size="48.0" fill="#FEFFFF" transform="matrix(1.00, 0.00, -0.00, -1.00, 625.6, 393.0)"> </text><text xml:space="preserve" font-family="Helvetica-Light" font-size="48.0" fill="#FEFFFF" transform="matrix(1.00, 0.00, -0.00, -1.00, 639.0, 393.0)">a</text><text xml:space="preserve" font-family="Helvetica-Light" font-size="48.0" fill="#FEFFFF" transform="matrix(1.00, 0.00, -0.00, -1.00, 665.7, 393.0)">t</text><text xml:space="preserve" font-family="Helvetica-Light" font-size="48.0" fill="#FEFFFF" transform="matrix(1.00, 0.00, -0.00, -1.00, 679.0, 393.0)"> </text><text xml:space="preserve" font-family="Helvetica-Bold" font-weight="bold" font-size="48.0" fill="#FEFFFF" transform="matrix(1.00, 0.00, -0.00, -1.00, 125.0, 254.0)">b</text><text xml:space="preserve" font-family="Helvetica-Bold" font-weight="bold" font-size="48.0" fill="#FEFFFF" transform="matrix(1.00, 0.00, -0.00, -1.00, 154.3, 254.0)">i</text><text xml:space="preserve" font-family="Helvetica-Bold" font-weight="bold" font-size="48.0" fill="#FEFFFF" transform="matrix(1.00, 0.00, -0.00, -1.00, 167.6, 254.0)">t</text><text xml:space="preserve" font-family="Helvetica-Bold" font-weight="bold" font-size="48.0" fill="#FEFFFF" transform="matrix(1.00, 0.00, -0.00, -1.00, 183.6, 254.0)">m</text><text xml:space="preserve" font-family="Helvetica-Bold" font-weight="bold" font-size="48.0" fill="#FEFFFF" transform="matrix(1.00, 0.00, -0.00, -1.00, 226.3, 254.0)">a</text><text xml:space="preserve" font-family="Helvetica-Bold" font-weight="bold" font-size="48.0" fill="#FEFFFF" transform="matrix(1.00, 0.00, -0.00, -1.00, 253.0, 254.0)">r</text><text xml:space="preserve" font-family="Helvetica-Bold" font-weight="bold" font-size="48.0" fill="#FEFFFF" transform="matrix(1.00, 0.00, -0.00, -1.00, 271.7, 254.0)">k</text><text xml:space="preserve" font-family="Helvetica-Bold" font-weight="bold" font-size="48.0" fill="#FEFFFF" transform="matrix(1.00, 0.00, -0.00, -1.00, 298.4, 254.0)">e</text><text xml:space="preserve" font-family="Helvetica-Bold" font-weight="bold" font-size="48.0" fill="#FEFFFF" transform="matrix(1.00, 0.00, -0.00, -1.00, 325.1, 254.0)">t</text><text xml:space="preserve" font-family="Helvetica-Bold" font-weight="bold" font-size="48.0" fill="#FEFFFF" transform="matrix(1.00, 0.00, -0.00, -1.00, 341.1, 254.0)">s</text><text xml:space="preserve" font-family="Helvetica-Bold" font-weight="bold" font-size="48.0" fill="#FEFFFF" transform="matrix(1.00, 0.00, -0.00, -1.00, 367.8, 254.0)">.</text><text xml:space="preserve" font-family="Helvetica-Bold" font-weight="bold" font-size="48.0" fill="#FEFFFF" transform="matrix(1.00, 0.00, -0.00, -1.00, 381.1, 254.0)">o</text><text xml:space="preserve" font-family="Helvetica-Bold" font-weight="bold" font-size="48.0" fill="#FEFFFF" transform="matrix(1.00, 0.00, -0.00, -1.00, 410.4, 254.0)">r</text><text xml:space="preserve" font-family="Helvetica-Bold" font-weight="bold" font-size="48.0" fill="#FEFFFF" transform="matrix(1.00, 0.00, -0.00, -1.00, 429.1, 254.0)">g</text></g></svg>