<?xml version="1.0" encoding="utf-8"?>
<!-- Generator: Adobe Illustrator 16.0.0, SVG Export Plug-In . SVG Version: 6.00 Build 0)  -->
<!DOCTYPE svg PUBLIC "-//W3C//DTD SVG 1.1//EN" "http://www.w3.org/Graphics/SVG/1.1/DTD/svg11.dtd">
<svg version="1.1" id="Bitmarkets" xmlns="http://www.w3.org/2000/svg" xmlns:xlink="http://www.w3.org/1999/xlink" x="0px" y="0px"
	 width="800px" height="800px" viewBox="0 0 800 800" enable-background="new 0 0 800 800" xml:space="preserve">
<rect id="Background" fill="#1A1A1A" width="800" height="800"/>
<g id="Logo">
	<path fill="#FFFFFF" d="M400,264.907l122,59.712v150.746l-122,59.728l-122-59.728V324.619L400,264.907 M400,256l-130,63.628
		v160.729L400,544l130-63.644V319.628L400,256L400,256z"/>
	<path fill="#FFFFFF" d="M400.159,272.787L474.854,397H328.82L400.159,272.787 M400,257l-85,148h174L400,257L400,257z"/>
	<path fill="#FFFFFF" d="M474.877,405L400.22,527.371L328.915,405H475 M489,397H315l85,146L489,397L489,397z"/>
	<polygon fill="#FFFFFF" points="521.501,478.938 479.501,403.122 479.497,399.252 521.497,323.069 528.503,326.931 487.57,401.179 
		528.499,475.062 	"/>
	<polygon fill="#FFFFFF" points="282.499,478.938 275.501,475.062 316.424,401.189 274.506,325.947 281.494,322.053 
		324.494,399.237 324.499,403.122 	"/>
</g>
</svg>
