<?xml version="1.0" encoding="UTF-8" standalone="no"?><svg xmlns="http://www.w3.org/2000/svg" xmlns:xlink="http://www.w3.org/1999/xlink" clip-rule="evenodd" stroke-miterlimit="4.00" viewBox="0 0 1024 768"><desc>SVG generated by Keynote</desc><defs></defs><g transform="matrix(1.00, 0.00, -0.00, -1.00, 0.0, 768.0)"><path d="M 0.0 768.0 L 1024.0 768.0 L 1024.0 0.0 L 0.0 0.0 Z M 0.0 768.0 " fill="#000000"></path><text xml:space="preserve" font-family="Helvetica-Bold" font-weight="bold" font-size="41.0" fill="#FEFFFF" transform="matrix(1.00, 0.00, -0.00, -1.00, 105.0, 577.0)">n</text><text xml:space="preserve" font-family="Helvetica-Bold" font-weight="bold" font-size="41.0" fill="#FEFFFF" transform="matrix(1.00, 0.00, -0.00, -1.00, 130.0, 577.0)">e</text><text xml:space="preserve" font-family="Helvetica-Bold" font-weight="bold" font-size="41.0" fill="#FEFFFF" transform="matrix(1.00, 0.00, -0.00, -1.00, 152.8, 577.0)">x</text><text xml:space="preserve" font-family="Helvetica-Bold" font-weight="bold" font-size="41.0" fill="#FEFFFF" transform="matrix(1.00, 0.00, -0.00, -1.00, 175.7, 577.0)">t</text><text xml:space="preserve" font-family="Helvetica-Bold" font-weight="bold" font-size="41.0" fill="#FEFFFF" transform="matrix(1.00, 0.00, -0.00, -1.00, 189.3, 577.0)"> </text><text xml:space="preserve" font-family="Helvetica-Bold" font-weight="bold" font-size="41.0" fill="#FEFFFF" transform="matrix(1.00, 0.00, -0.00, -1.00, 200.7, 577.0)">s</text><text xml:space="preserve" font-family="Helvetica-Bold" font-weight="bold" font-size="41.0" fill="#FEFFFF" transform="matrix(1.00, 0.00, -0.00, -1.00, 223.5, 577.0)">t</text><text xml:space="preserve" font-family="Helvetica-Bold" font-weight="bold" font-size="41.0" fill="#FEFFFF" transform="matrix(1.00, 0.00, -0.00, -1.00, 237.2, 577.0)">e</text><text xml:space="preserve" font-family="Helvetica-Bold" font-weight="bold" font-size="41.0" fill="#FEFFFF" transform="matrix(1.00, 0.00, -0.00, -1.00, 260.0, 577.0)">p</text><text xml:space="preserve" font-family="Helvetica-Bold" font-weight="bold" font-size="41.0" fill="#FEFFFF" transform="matrix(1.00, 0.00, -0.00, -1.00, 285.0, 577.0)">s</text><text xml:space="preserve" font-family="Helvetica-Light" font-size="41.0" fill="#FEFFFF" transform="matrix(1.00, 0.00, -0.00, -1.00, 105.0, 518.0)">ﬁ</text><text xml:space="preserve" font-family="Helvetica-Light" font-size="41.0" fill="#FEFFFF" transform="matrix(1.00, 0.00, -0.00, -1.00, 125.5, 518.0)">n</text><text xml:space="preserve" font-family="Helvetica-Light" font-size="41.0" fill="#FEFFFF" transform="matrix(1.00, 0.00, -0.00, -1.00, 148.3, 518.0)">i</text><text xml:space="preserve" font-family="Helvetica-Light" font-size="41.0" fill="#FEFFFF" transform="matrix(1.00, 0.00, -0.00, -1.00, 157.4, 518.0)">s</text><text xml:space="preserve" font-family="Helvetica-Light" font-size="41.0" fill="#FEFFFF" transform="matrix(1.00, 0.00, -0.00, -1.00, 177.9, 518.0)">h</text><text xml:space="preserve" font-family="Helvetica-Light" font-size="41.0" fill="#FEFFFF" transform="matrix(1.00, 0.00, -0.00, -1.00, 200.7, 518.0)"> </text><text xml:space="preserve" font-family="Helvetica-Light" font-size="41.0" fill="#FEFFFF" transform="matrix(1.00, 0.00, -0.00, -1.00, 212.1, 518.0)">m</text><text xml:space="preserve" font-family="Helvetica-Light" font-size="41.0" fill="#FEFFFF" transform="matrix(1.00, 0.00, -0.00, -1.00, 246.2, 518.0)">v</text><text xml:space="preserve" font-family="Helvetica-Light" font-size="41.0" fill="#FEFFFF" transform="matrix(1.00, 0.00, -0.00, -1.00, 266.7, 518.0)">p</text><text xml:space="preserve" font-family="Helvetica-Light" font-size="41.0" fill="#FEFFFF" transform="matrix(1.00, 0.00, -0.00, -1.00, 291.8, 518.0)"> </text><text xml:space="preserve" font-family="Helvetica-Light" font-size="41.0" fill="#FEFFFF" transform="matrix(1.00, 0.00, -0.00, -1.00, 105.0, 459.0)">t</text><text xml:space="preserve" font-family="Helvetica-Light" font-size="41.0" fill="#FEFFFF" transform="matrix(1.00, 0.00, -0.00, -1.00, 116.4, 459.0)">a</text><text xml:space="preserve" font-family="Helvetica-Light" font-size="41.0" fill="#FEFFFF" transform="matrix(1.00, 0.00, -0.00, -1.00, 139.2, 459.0)">l</text><text xml:space="preserve" font-family="Helvetica-Light" font-size="41.0" fill="#FEFFFF" transform="matrix(1.00, 0.00, -0.00, -1.00, 148.3, 459.0)">k</text><text xml:space="preserve" font-family="Helvetica-Light" font-size="41.0" fill="#FEFFFF" transform="matrix(1.00, 0.00, -0.00, -1.00, 168.8, 459.0)"> </text><text xml:space="preserve" font-family="Helvetica-Light" font-size="41.0" fill="#FEFFFF" transform="matrix(1.00, 0.00, -0.00, -1.00, 180.2, 459.0)">t</text><text xml:space="preserve" font-family="Helvetica-Light" font-size="41.0" fill="#FEFFFF" transform="matrix(1.00, 0.00, -0.00, -1.00, 191.6, 459.0)">o</text><text xml:space="preserve" font-family="Helvetica-Light" font-size="41.0" fill="#FEFFFF" transform="matrix(1.00, 0.00, -0.00, -1.00, 214.4, 459.0)"> </text><text xml:space="preserve" font-family="Helvetica-Light" font-size="41.0" fill="#FEFFFF" transform="matrix(1.00, 0.00, -0.00, -1.00, 225.8, 459.0)">u</text><text xml:space="preserve" font-family="Helvetica-Light" font-size="41.0" fill="#FEFFFF" transform="matrix(1.00, 0.00, -0.00, -1.00, 248.6, 459.0)">s</text><text xml:space="preserve" font-family="Helvetica-Light" font-size="41.0" fill="#FEFFFF" transform="matrix(1.00, 0.00, -0.00, -1.00, 269.1, 459.0)">e</text><text xml:space="preserve" font-family="Helvetica-Light" font-size="41.0" fill="#FEFFFF" transform="matrix(1.00, 0.00, -0.00, -1.00, 291.9, 459.0)">r</text><text xml:space="preserve" font-family="Helvetica-Light" font-size="41.0" fill="#FEFFFF" transform="matrix(1.00, 0.00, -0.00, -1.00, 305.5, 459.0)">s</text><text xml:space="preserve" font-family="Helvetica-Light" font-size="41.0" fill="#FEFFFF" transform="matrix(1.00, 0.00, -0.00, -1.00, 326.0, 459.0)"> </text><text xml:space="preserve" font-family="Helvetica-Light" font-size="41.0" fill="#FEFFFF" transform="matrix(1.00, 0.00, -0.00, -1.00, 105.0, 400.0)">i</text><text xml:space="preserve" font-family="Helvetica-Light" font-size="41.0" fill="#FEFFFF" transform="matrix(1.00, 0.00, -0.00, -1.00, 114.1, 400.0)">t</text><text xml:space="preserve" font-family="Helvetica-Light" font-size="41.0" fill="#FEFFFF" transform="matrix(1.00, 0.00, -0.00, -1.00, 125.5, 400.0)">e</text><text xml:space="preserve" font-family="Helvetica-Light" font-size="41.0" fill="#FEFFFF" transform="matrix(1.00, 0.00, -0.00, -1.00, 148.3, 400.0)">r</text><text xml:space="preserve" font-family="Helvetica-Light" font-size="41.0" fill="#FEFFFF" transform="matrix(1.00, 0.00, -0.00, -1.00, 161.9, 400.0)">a</text><text xml:space="preserve" font-family="Helvetica-Light" font-size="41.0" fill="#FEFFFF" transform="matrix(1.00, 0.00, -0.00, -1.00, 184.7, 400.0)">t</text><text xml:space="preserve" font-family="Helvetica-Light" font-size="41.0" fill="#FEFFFF" transform="matrix(1.00, 0.00, -0.00, -1.00, 196.1, 400.0)">e</text><text xml:space="preserve" font-family="Helvetica-Light" font-size="41.0" fill="#FEFFFF" transform="matrix(1.00, 0.00, -0.00, -1.00, 218.9, 400.0)"> </text><text xml:space="preserve" font-family="Helvetica-Light" font-size="41.0" fill="#FEFFFF" transform="matrix(1.00, 0.00, -0.00, -1.00, 230.3, 400.0)">p</text><text xml:space="preserve" font-family="Helvetica-Light" font-size="41.0" fill="#FEFFFF" transform="matrix(1.00, 0.00, -0.00, -1.00, 255.4, 400.0)">r</text><text xml:space="preserve" font-family="Helvetica-Light" font-size="41.0" fill="#FEFFFF" transform="matrix(1.00, 0.00, -0.00, -1.00, 268.3, 400.0)">o</text><text xml:space="preserve" font-family="Helvetica-Light" font-size="41.0" fill="#FEFFFF" transform="matrix(1.00, 0.00, -0.00, -1.00, 291.1, 400.0)">d</text><text xml:space="preserve" font-family="Helvetica-Light" font-size="41.0" fill="#FEFFFF" transform="matrix(1.00, 0.00, -0.00, -1.00, 316.1, 400.0)">u</text><text xml:space="preserve" font-family="Helvetica-Light" font-size="41.0" fill="#FEFFFF" transform="matrix(1.00, 0.00, -0.00, -1.00, 338.9, 400.0)">c</text><text xml:space="preserve" font-family="Helvetica-Light" font-size="41.0" fill="#FEFFFF" transform="matrix(1.00, 0.00, -0.00, -1.00, 361.7, 400.0)">t</text><text xml:space="preserve" font-family="Helvetica-Light" font-size="41.0" fill="#FEFFFF" transform="matrix(1.00, 0.00, -0.00, -1.00, 373.1, 400.0)"> </text><text xml:space="preserve" font-family="Helvetica-Light" font-size="41.0" fill="#FEFFFF" transform="matrix(1.00, 0.00, -0.00, -1.00, 384.5, 400.0)">/</text><text xml:space="preserve" font-family="Helvetica-Light" font-size="41.0" fill="#FEFFFF" transform="matrix(1.00, 0.00, -0.00, -1.00, 395.9, 400.0)"> </text><text xml:space="preserve" font-family="Helvetica-Light" font-size="41.0" fill="#FEFFFF" transform="matrix(1.00, 0.00, -0.00, -1.00, 407.3, 400.0)">m</text><text xml:space="preserve" font-family="Helvetica-Light" font-size="41.0" fill="#FEFFFF" transform="matrix(1.00, 0.00, -0.00, -1.00, 441.5, 400.0)">a</text><text xml:space="preserve" font-family="Helvetica-Light" font-size="41.0" fill="#FEFFFF" transform="matrix(1.00, 0.00, -0.00, -1.00, 464.3, 400.0)">r</text><text xml:space="preserve" font-family="Helvetica-Light" font-size="41.0" fill="#FEFFFF" transform="matrix(1.00, 0.00, -0.00, -1.00, 477.9, 400.0)">k</text><text xml:space="preserve" font-family="Helvetica-Light" font-size="41.0" fill="#FEFFFF" transform="matrix(1.00, 0.00, -0.00, -1.00, 498.4, 400.0)">e</text><text xml:space="preserve" font-family="Helvetica-Light" font-size="41.0" fill="#FEFFFF" transform="matrix(1.00, 0.00, -0.00, -1.00, 521.2, 400.0)">t</text><text xml:space="preserve" font-family="Helvetica-Light" font-size="41.0" fill="#FEFFFF" transform="matrix(1.00, 0.00, -0.00, -1.00, 532.6, 400.0)"> </text><text xml:space="preserve" font-family="Helvetica-Light" font-size="41.0" fill="#FEFFFF" transform="matrix(1.00, 0.00, -0.00, -1.00, 544.0, 400.0)">ﬁ</text><text xml:space="preserve" font-family="Helvetica-Light" font-size="41.0" fill="#FEFFFF" transform="matrix(1.00, 0.00, -0.00, -1.00, 564.5, 400.0)">t</text><text xml:space="preserve" font-family="Helvetica-Light" font-size="41.0" fill="#FEFFFF" transform="matrix(1.00, 0.00, -0.00, -1.00, 575.9, 400.0)"> </text><text xml:space="preserve" font-family="Helvetica-Bold" font-weight="bold" font-size="41.0" fill="#FEFFFF" transform="matrix(1.00, 0.00, -0.00, -1.00, 105.0, 224.0)">r</text><text xml:space="preserve" font-family="Helvetica-Bold" font-weight="bold" font-size="41.0" fill="#FEFFFF" transform="matrix(1.00, 0.00, -0.00, -1.00, 121.0, 224.0)">e</text><text xml:space="preserve" font-family="Helvetica-Bold" font-weight="bold" font-size="41.0" fill="#FEFFFF" transform="matrix(1.00, 0.00, -0.00, -1.00, 143.8, 224.0)">f</text><text xml:space="preserve" font-family="Helvetica-Bold" font-weight="bold" font-size="41.0" fill="#FEFFFF" transform="matrix(1.00, 0.00, -0.00, -1.00, 157.4, 224.0)">e</text><text xml:space="preserve" font-family="Helvetica-Bold" font-weight="bold" font-size="41.0" fill="#FEFFFF" transform="matrix(1.00, 0.00, -0.00, -1.00, 180.2, 224.0)">r</text><text xml:space="preserve" font-family="Helvetica-Bold" font-weight="bold" font-size="41.0" fill="#FEFFFF" transform="matrix(1.00, 0.00, -0.00, -1.00, 196.2, 224.0)">e</text><text xml:space="preserve" font-family="Helvetica-Bold" font-weight="bold" font-size="41.0" fill="#FEFFFF" transform="matrix(1.00, 0.00, -0.00, -1.00, 219.0, 224.0)">n</text><text xml:space="preserve" font-family="Helvetica-Bold" font-weight="bold" font-size="41.0" fill="#FEFFFF" transform="matrix(1.00, 0.00, -0.00, -1.00, 244.0, 224.0)">c</text><text xml:space="preserve" font-family="Helvetica-Bold" font-weight="bold" font-size="41.0" fill="#FEFFFF" transform="matrix(1.00, 0.00, -0.00, -1.00, 266.9, 224.0)">e</text><text xml:space="preserve" font-family="Helvetica-Bold" font-weight="bold" font-size="41.0" fill="#FEFFFF" transform="matrix(1.00, 0.00, -0.00, -1.00, 289.7, 224.0)">s</text><text xml:space="preserve" font-family="Helvetica-Light" font-size="41.0" fill="#FEFFFF" transform="matrix(1.00, 0.00, -0.00, -1.00, 312.4, 224.0)"> </text><text xml:space="preserve" font-family="Helvetica-Light" font-size="41.0" fill="#A6AAA8" transform="matrix(1.00, 0.00, -0.00, -1.00, 105.0, 165.0)">g</text><text xml:space="preserve" font-family="Helvetica-Light" font-size="41.0" fill="#A6AAA8" transform="matrix(1.00, 0.00, -0.00, -1.00, 130.1, 165.0)">i</text><text xml:space="preserve" font-family="Helvetica-Light" font-size="41.0" fill="#A6AAA8" transform="matrix(1.00, 0.00, -0.00, -1.00, 139.2, 165.0)">t</text><text xml:space="preserve" font-family="Helvetica-Light" font-size="41.0" fill="#A6AAA8" transform="matrix(1.00, 0.00, -0.00, -1.00, 150.6, 165.0)">h</text><text xml:space="preserve" font-family="Helvetica-Light" font-size="41.0" fill="#A6AAA8" transform="matrix(1.00, 0.00, -0.00, -1.00, 173.3, 165.0)">u</text><text xml:space="preserve" font-family="Helvetica-Light" font-size="41.0" fill="#A6AAA8" transform="matrix(1.00, 0.00, -0.00, -1.00, 196.1, 165.0)">b</text><text xml:space="preserve" font-family="Helvetica-Light" font-size="41.0" fill="#A6AAA8" transform="matrix(1.00, 0.00, -0.00, -1.00, 221.2, 165.0)">.</text><text xml:space="preserve" font-family="Helvetica-Light" font-size="41.0" fill="#A6AAA8" transform="matrix(1.00, 0.00, -0.00, -1.00, 232.6, 165.0)">c</text><text xml:space="preserve" font-family="Helvetica-Light" font-size="41.0" fill="#A6AAA8" transform="matrix(1.00, 0.00, -0.00, -1.00, 255.4, 165.0)">o</text><text xml:space="preserve" font-family="Helvetica-Light" font-size="41.0" fill="#A6AAA8" transform="matrix(1.00, 0.00, -0.00, -1.00, 278.2, 165.0)">m</text><text xml:space="preserve" font-family="Helvetica-Light" font-size="41.0" fill="#A6AAA8" transform="matrix(1.00, 0.00, -0.00, -1.00, 312.3, 165.0)">/</text><text xml:space="preserve" font-family="Helvetica-Light" font-size="41.0" fill="#A6AAA8" transform="matrix(1.00, 0.00, -0.00, -1.00, 323.7, 165.0)">u</text><text xml:space="preserve" font-family="Helvetica-Light" font-size="41.0" fill="#A6AAA8" transform="matrix(1.00, 0.00, -0.00, -1.00, 346.5, 165.0)">n</text><text xml:space="preserve" font-family="Helvetica-Light" font-size="41.0" fill="#A6AAA8" transform="matrix(1.00, 0.00, -0.00, -1.00, 369.3, 165.0)">s</text><text xml:space="preserve" font-family="Helvetica-Light" font-size="41.0" fill="#A6AAA8" transform="matrix(1.00, 0.00, -0.00, -1.00, 389.8, 165.0)">y</text><text xml:space="preserve" font-family="Helvetica-Light" font-size="41.0" fill="#A6AAA8" transform="matrix(1.00, 0.00, -0.00, -1.00, 410.3, 165.0)">s</text><text xml:space="preserve" font-family="Helvetica-Light" font-size="41.0" fill="#A6AAA8" transform="matrix(1.00, 0.00, -0.00, -1.00, 430.8, 165.0)">t</text><text xml:space="preserve" font-family="Helvetica-Light" font-size="41.0" fill="#A6AAA8" transform="matrix(1.00, 0.00, -0.00, -1.00, 442.2, 165.0)">e</text><text xml:space="preserve" font-family="Helvetica-Light" font-size="41.0" fill="#A6AAA8" transform="matrix(1.00, 0.00, -0.00, -1.00, 465.0, 165.0)">m</text><text xml:space="preserve" font-family="Helvetica-Light" font-size="41.0" fill="#A6AAA8" transform="matrix(1.00, 0.00, -0.00, -1.00, 499.2, 165.0)">/</text><text xml:space="preserve" font-family="Helvetica-Light" font-size="41.0" fill="#A6AAA8" transform="matrix(1.00, 0.00, -0.00, -1.00, 510.6, 165.0)">p</text><text xml:space="preserve" font-family="Helvetica-Light" font-size="41.0" fill="#A6AAA8" transform="matrix(1.00, 0.00, -0.00, -1.00, 535.6, 165.0)">a</text><text xml:space="preserve" font-family="Helvetica-Light" font-size="41.0" fill="#A6AAA8" transform="matrix(1.00, 0.00, -0.00, -1.00, 558.4, 165.0)">y</text><text xml:space="preserve" font-family="Helvetica-Light" font-size="41.0" fill="#A6AAA8" transform="matrix(1.00, 0.00, -0.00, -1.00, 578.9, 165.0)">p</text><text xml:space="preserve" font-family="Helvetica-Light" font-size="41.0" fill="#A6AAA8" transform="matrix(1.00, 0.00, -0.00, -1.00, 604.0, 165.0)">u</text><text xml:space="preserve" font-family="Helvetica-Light" font-size="41.0" fill="#A6AAA8" transform="matrix(1.00, 0.00, -0.00, -1.00, 626.8, 165.0)">b</text><text xml:space="preserve" font-family="Helvetica-Light" font-size="41.0" fill="#A6AAA8" transform="matrix(1.00, 0.00, -0.00, -1.00, 651.8, 165.0)"> </text><text xml:space="preserve" font-family="Helvetica-Light" font-size="41.0" fill="#A6AAA8" transform="matrix(1.00, 0.00, -0.00, -1.00, 663.2, 165.0)"> </text><text xml:space="preserve" font-family="Helvetica-Light" font-size="41.0" fill="#A6AAA8" transform="matrix(1.00, 0.00, -0.00, -1.00, 105.0, 106.0)">w</text><text xml:space="preserve" font-family="Helvetica-Light" font-size="41.0" fill="#A6AAA8" transform="matrix(1.00, 0.00, -0.00, -1.00, 134.6, 106.0)">i</text><text xml:space="preserve" font-family="Helvetica-Light" font-size="41.0" fill="#A6AAA8" transform="matrix(1.00, 0.00, -0.00, -1.00, 143.7, 106.0)">r</text><text xml:space="preserve" font-family="Helvetica-Light" font-size="41.0" fill="#A6AAA8" transform="matrix(1.00, 0.00, -0.00, -1.00, 156.6, 106.0)">e</text><text xml:space="preserve" font-family="Helvetica-Light" font-size="41.0" fill="#A6AAA8" transform="matrix(1.00, 0.00, -0.00, -1.00, 179.4, 106.0)">d</text><text xml:space="preserve" font-family="Helvetica-Light" font-size="41.0" fill="#A6AAA8" transform="matrix(1.00, 0.00, -0.00, -1.00, 204.5, 106.0)">.</text><text xml:space="preserve" font-family="Helvetica-Light" font-size="41.0" fill="#A6AAA8" transform="matrix(1.00, 0.00, -0.00, -1.00, 215.9, 106.0)">c</text><text xml:space="preserve" font-family="Helvetica-Light" font-size="41.0" fill="#A6AAA8" transform="matrix(1.00, 0.00, -0.00, -1.00, 238.7, 106.0)">o</text><text xml:space="preserve" font-family="Helvetica-Light" font-size="41.0" fill="#A6AAA8" transform="matrix(1.00, 0.00, -0.00, -1.00, 261.5, 106.0)">m</text><text xml:space="preserve" font-family="Helvetica-Light" font-size="41.0" fill="#A6AAA8" transform="matrix(1.00, 0.00, -0.00, -1.00, 295.6, 106.0)">/</text><text xml:space="preserve" font-family="Helvetica-Light" font-size="41.0" fill="#A6AAA8" transform="matrix(1.00, 0.00, -0.00, -1.00, 307.0, 106.0)">2</text><text xml:space="preserve" font-family="Helvetica-Light" font-size="41.0" fill="#A6AAA8" transform="matrix(1.00, 0.00, -0.00, -1.00, 329.8, 106.0)">0</text><text xml:space="preserve" font-family="Helvetica-Light" font-size="41.0" fill="#A6AAA8" transform="matrix(1.00, 0.00, -0.00, -1.00, 352.6, 106.0)">1</text><text xml:space="preserve" font-family="Helvetica-Light" font-size="41.0" fill="#A6AAA8" transform="matrix(1.00, 0.00, -0.00, -1.00, 375.4, 106.0)">4</text><text xml:space="preserve" font-family="Helvetica-Light" font-size="41.0" fill="#A6AAA8" transform="matrix(1.00, 0.00, -0.00, -1.00, 398.2, 106.0)">/</text><text xml:space="preserve" font-family="Helvetica-Light" font-size="41.0" fill="#A6AAA8" transform="matrix(1.00, 0.00, -0.00, -1.00, 409.6, 106.0)">0</text><text xml:space="preserve" font-family="Helvetica-Light" font-size="41.0" fill="#A6AAA8" transform="matrix(1.00, 0.00, -0.00, -1.00, 432.4, 106.0)">6</text><text xml:space="preserve" font-family="Helvetica-Light" font-size="41.0" fill="#A6AAA8" transform="matrix(1.00, 0.00, -0.00, -1.00, 455.2, 106.0)">/</text><text xml:space="preserve" font-family="Helvetica-Light" font-size="41.0" fill="#A6AAA8" transform="matrix(1.00, 0.00, -0.00, -1.00, 466.6, 106.0)">p</text><text xml:space="preserve" font-family="Helvetica-Light" font-size="41.0" fill="#A6AAA8" transform="matrix(1.00, 0.00, -0.00, -1.00, 491.6, 106.0)">a</text><text xml:space="preserve" font-family="Helvetica-Light" font-size="41.0" fill="#A6AAA8" transform="matrix(1.00, 0.00, -0.00, -1.00, 514.4, 106.0)">y</text><text xml:space="preserve" font-family="Helvetica-Light" font-size="41.0" fill="#A6AAA8" transform="matrix(1.00, 0.00, -0.00, -1.00, 534.9, 106.0)">p</text><text xml:space="preserve" font-family="Helvetica-Light" font-size="41.0" fill="#A6AAA8" transform="matrix(1.00, 0.00, -0.00, -1.00, 560.0, 106.0)">u</text><text xml:space="preserve" font-family="Helvetica-Light" font-size="41.0" fill="#A6AAA8" transform="matrix(1.00, 0.00, -0.00, -1.00, 582.8, 106.0)">b</text><text xml:space="preserve" font-family="Helvetica-Light" font-size="41.0" fill="#A6AAA8" transform="matrix(1.00, 0.00, -0.00, -1.00, 607.8, 106.0)">/</text><text xml:space="preserve" font-family="Helvetica-Light" font-size="41.0" fill="#A6AAA8" transform="matrix(1.00, 0.00, -0.00, -1.00, 619.2, 106.0)"> </text></g></svg>