<?xml version="1.0" encoding="UTF-8" standalone="no"?><svg xmlns="http://www.w3.org/2000/svg" xmlns:xlink="http://www.w3.org/1999/xlink" clip-rule="evenodd" stroke-miterlimit="4.00" viewBox="0 0 1024 768"><desc>SVG generated by Keynote</desc><defs></defs><g transform="matrix(1.00, 0.00, -0.00, -1.00, 0.0, 768.0)"><path d="M 0.0 768.0 L 1024.0 768.0 L 1024.0 0.0 L 0.0 0.0 Z M 0.0 768.0 " fill="#000000"></path><text xml:space="preserve" font-family="Helvetica-Bold" font-weight="bold" font-size="40.0" fill="#FEFFFF" transform="matrix(1.00, 0.00, -0.00, -1.00, 78.0, 551.0)">i</text><text xml:space="preserve" font-family="Helvetica-Bold" font-weight="bold" font-size="40.0" fill="#FEFFFF" transform="matrix(1.00, 0.00, -0.00, -1.00, 89.1, 551.0)">f</text><text xml:space="preserve" font-family="Helvetica-Bold" font-weight="bold" font-size="40.0" fill="#FEFFFF" transform="matrix(1.00, 0.00, -0.00, -1.00, 102.4, 551.0)"> </text><text xml:space="preserve" font-family="Helvetica-Bold" font-weight="bold" font-size="40.0" fill="#FEFFFF" transform="matrix(1.00, 0.00, -0.00, -1.00, 113.5, 551.0)">s</text><text xml:space="preserve" font-family="Helvetica-Bold" font-weight="bold" font-size="40.0" fill="#FEFFFF" transform="matrix(1.00, 0.00, -0.00, -1.00, 135.8, 551.0)">e</text><text xml:space="preserve" font-family="Helvetica-Bold" font-weight="bold" font-size="40.0" fill="#FEFFFF" transform="matrix(1.00, 0.00, -0.00, -1.00, 158.0, 551.0)">l</text><text xml:space="preserve" font-family="Helvetica-Bold" font-weight="bold" font-size="40.0" fill="#FEFFFF" transform="matrix(1.00, 0.00, -0.00, -1.00, 169.1, 551.0)">l</text><text xml:space="preserve" font-family="Helvetica-Bold" font-weight="bold" font-size="40.0" fill="#FEFFFF" transform="matrix(1.00, 0.00, -0.00, -1.00, 180.2, 551.0)">e</text><text xml:space="preserve" font-family="Helvetica-Bold" font-weight="bold" font-size="40.0" fill="#FEFFFF" transform="matrix(1.00, 0.00, -0.00, -1.00, 202.5, 551.0)">r</text><text xml:space="preserve" font-family="Helvetica-Bold" font-weight="bold" font-size="40.0" fill="#FEFFFF" transform="matrix(1.00, 0.00, -0.00, -1.00, 218.1, 551.0)"> </text><text xml:space="preserve" font-family="Helvetica-Bold" font-weight="bold" font-size="40.0" fill="#FEFFFF" transform="matrix(1.00, 0.00, -0.00, -1.00, 229.2, 551.0)">d</text><text xml:space="preserve" font-family="Helvetica-Bold" font-weight="bold" font-size="40.0" fill="#FEFFFF" transform="matrix(1.00, 0.00, -0.00, -1.00, 253.6, 551.0)">o</text><text xml:space="preserve" font-family="Helvetica-Bold" font-weight="bold" font-size="40.0" fill="#FEFFFF" transform="matrix(1.00, 0.00, -0.00, -1.00, 278.0, 551.0)">e</text><text xml:space="preserve" font-family="Helvetica-Bold" font-weight="bold" font-size="40.0" fill="#FEFFFF" transform="matrix(1.00, 0.00, -0.00, -1.00, 300.3, 551.0)">s</text><text xml:space="preserve" font-family="Helvetica-Bold" font-weight="bold" font-size="40.0" fill="#FEFFFF" transform="matrix(1.00, 0.00, -0.00, -1.00, 322.6, 551.0)">n</text><text xml:space="preserve" font-family="Helvetica-Bold" font-weight="bold" font-size="40.0" fill="#FEFFFF" transform="matrix(1.00, 0.00, -0.00, -1.00, 347.0, 551.0)">’</text><text xml:space="preserve" font-family="Helvetica-Bold" font-weight="bold" font-size="40.0" fill="#FEFFFF" transform="matrix(1.00, 0.00, -0.00, -1.00, 358.1, 551.0)">t</text><text xml:space="preserve" font-family="Helvetica-Bold" font-weight="bold" font-size="40.0" fill="#FEFFFF" transform="matrix(1.00, 0.00, -0.00, -1.00, 371.4, 551.0)"> </text><text xml:space="preserve" font-family="Helvetica-Bold" font-weight="bold" font-size="40.0" fill="#FEFFFF" transform="matrix(1.00, 0.00, -0.00, -1.00, 382.5, 551.0)">s</text><text xml:space="preserve" font-family="Helvetica-Bold" font-weight="bold" font-size="40.0" fill="#FEFFFF" transform="matrix(1.00, 0.00, -0.00, -1.00, 404.8, 551.0)">e</text><text xml:space="preserve" font-family="Helvetica-Bold" font-weight="bold" font-size="40.0" fill="#FEFFFF" transform="matrix(1.00, 0.00, -0.00, -1.00, 427.0, 551.0)">n</text><text xml:space="preserve" font-family="Helvetica-Bold" font-weight="bold" font-size="40.0" fill="#FEFFFF" transform="matrix(1.00, 0.00, -0.00, -1.00, 451.4, 551.0)">d</text><text xml:space="preserve" font-family="Helvetica-Bold" font-weight="bold" font-size="40.0" fill="#FEFFFF" transform="matrix(1.00, 0.00, -0.00, -1.00, 475.9, 551.0)"> </text><text xml:space="preserve" font-family="Helvetica-Bold" font-weight="bold" font-size="40.0" fill="#FEFFFF" transform="matrix(1.00, 0.00, -0.00, -1.00, 487.0, 551.0)">i</text><text xml:space="preserve" font-family="Helvetica-Bold" font-weight="bold" font-size="40.0" fill="#FEFFFF" transform="matrix(1.00, 0.00, -0.00, -1.00, 498.1, 551.0)">t</text><text xml:space="preserve" font-family="Helvetica-Bold" font-weight="bold" font-size="40.0" fill="#FEFFFF" transform="matrix(1.00, 0.00, -0.00, -1.00, 511.4, 551.0)">e</text><text xml:space="preserve" font-family="Helvetica-Bold" font-weight="bold" font-size="40.0" fill="#FEFFFF" transform="matrix(1.00, 0.00, -0.00, -1.00, 533.7, 551.0)">m</text><text xml:space="preserve" font-family="Helvetica-Light" font-size="40.0" fill="#FF2600" transform="matrix(1.00, 0.00, -0.00, -1.00, 78.0, 494.0)">s</text><text xml:space="preserve" font-family="Helvetica-Light" font-size="40.0" fill="#FF2600" transform="matrix(1.00, 0.00, -0.00, -1.00, 98.0, 494.0)">e</text><text xml:space="preserve" font-family="Helvetica-Light" font-size="40.0" fill="#FF2600" transform="matrix(1.00, 0.00, -0.00, -1.00, 120.2, 494.0)">l</text><text xml:space="preserve" font-family="Helvetica-Light" font-size="40.0" fill="#FF2600" transform="matrix(1.00, 0.00, -0.00, -1.00, 129.1, 494.0)">l</text><text xml:space="preserve" font-family="Helvetica-Light" font-size="40.0" fill="#FF2600" transform="matrix(1.00, 0.00, -0.00, -1.00, 138.0, 494.0)">e</text><text xml:space="preserve" font-family="Helvetica-Light" font-size="40.0" fill="#FF2600" transform="matrix(1.00, 0.00, -0.00, -1.00, 160.2, 494.0)">r</text><text xml:space="preserve" font-family="Helvetica-Light" font-size="40.0" fill="#FF2600" transform="matrix(1.00, 0.00, -0.00, -1.00, 173.6, 494.0)"> </text><text xml:space="preserve" font-family="Helvetica-Light" font-size="40.0" fill="#FF2600" transform="matrix(1.00, 0.00, -0.00, -1.00, 184.7, 494.0)">-</text><text xml:space="preserve" font-family="Helvetica-Light" font-size="40.0" fill="#FF2600" transform="matrix(1.00, 0.00, -0.00, -1.00, 198.0, 494.0)">1</text><text xml:space="preserve" font-family="Helvetica-Light" font-size="40.0" fill="#FF2600" transform="matrix(1.00, 0.00, -0.00, -1.00, 220.2, 494.0)">x</text><text xml:space="preserve" font-family="Helvetica-Light" font-size="40.0" fill="#FF2600" transform="matrix(1.00, 0.00, -0.00, -1.00, 240.2, 494.0)"> </text><text xml:space="preserve" font-family="Helvetica-Light" font-size="40.0" fill="#FF2600" transform="matrix(1.00, 0.00, -0.00, -1.00, 251.4, 494.0)">(</text><text xml:space="preserve" font-family="Helvetica-Light" font-size="40.0" fill="#FF2600" transform="matrix(1.00, 0.00, -0.00, -1.00, 264.7, 494.0)">k</text><text xml:space="preserve" font-family="Helvetica-Light" font-size="40.0" fill="#FF2600" transform="matrix(1.00, 0.00, -0.00, -1.00, 284.7, 494.0)">e</text><text xml:space="preserve" font-family="Helvetica-Light" font-size="40.0" fill="#FF2600" transform="matrix(1.00, 0.00, -0.00, -1.00, 306.9, 494.0)">e</text><text xml:space="preserve" font-family="Helvetica-Light" font-size="40.0" fill="#FF2600" transform="matrix(1.00, 0.00, -0.00, -1.00, 329.2, 494.0)">p</text><text xml:space="preserve" font-family="Helvetica-Light" font-size="40.0" fill="#FF2600" transform="matrix(1.00, 0.00, -0.00, -1.00, 353.6, 494.0)">s</text><text xml:space="preserve" font-family="Helvetica-Light" font-size="40.0" fill="#FF2600" transform="matrix(1.00, 0.00, -0.00, -1.00, 373.6, 494.0)"> </text><text xml:space="preserve" font-family="Helvetica-Light" font-size="40.0" fill="#FF2600" transform="matrix(1.00, 0.00, -0.00, -1.00, 384.7, 494.0)">i</text><text xml:space="preserve" font-family="Helvetica-Light" font-size="40.0" fill="#FF2600" transform="matrix(1.00, 0.00, -0.00, -1.00, 393.6, 494.0)">t</text><text xml:space="preserve" font-family="Helvetica-Light" font-size="40.0" fill="#FF2600" transform="matrix(1.00, 0.00, -0.00, -1.00, 404.7, 494.0)">e</text><text xml:space="preserve" font-family="Helvetica-Light" font-size="40.0" fill="#FF2600" transform="matrix(1.00, 0.00, -0.00, -1.00, 427.0, 494.0)">m</text><text xml:space="preserve" font-family="Helvetica-Light" font-size="40.0" fill="#FF2600" transform="matrix(1.00, 0.00, -0.00, -1.00, 460.3, 494.0)"> </text><text xml:space="preserve" font-family="Helvetica-Light" font-size="40.0" fill="#FF2600" transform="matrix(1.00, 0.00, -0.00, -1.00, 471.4, 494.0)">b</text><text xml:space="preserve" font-family="Helvetica-Light" font-size="40.0" fill="#FF2600" transform="matrix(1.00, 0.00, -0.00, -1.00, 495.8, 494.0)">u</text><text xml:space="preserve" font-family="Helvetica-Light" font-size="40.0" fill="#FF2600" transform="matrix(1.00, 0.00, -0.00, -1.00, 518.1, 494.0)">t</text><text xml:space="preserve" font-family="Helvetica-Light" font-size="40.0" fill="#FF2600" transform="matrix(1.00, 0.00, -0.00, -1.00, 529.2, 494.0)"> </text><text xml:space="preserve" font-family="Helvetica-Light" font-size="40.0" fill="#FF2600" transform="matrix(1.00, 0.00, -0.00, -1.00, 540.3, 494.0)">l</text><text xml:space="preserve" font-family="Helvetica-Light" font-size="40.0" fill="#FF2600" transform="matrix(1.00, 0.00, -0.00, -1.00, 549.2, 494.0)">o</text><text xml:space="preserve" font-family="Helvetica-Light" font-size="40.0" fill="#FF2600" transform="matrix(1.00, 0.00, -0.00, -1.00, 571.4, 494.0)">s</text><text xml:space="preserve" font-family="Helvetica-Light" font-size="40.0" fill="#FF2600" transform="matrix(1.00, 0.00, -0.00, -1.00, 591.4, 494.0)">e</text><text xml:space="preserve" font-family="Helvetica-Light" font-size="40.0" fill="#FF2600" transform="matrix(1.00, 0.00, -0.00, -1.00, 613.7, 494.0)">s</text><text xml:space="preserve" font-family="Helvetica-Light" font-size="40.0" fill="#FF2600" transform="matrix(1.00, 0.00, -0.00, -1.00, 633.7, 494.0)"> </text><text xml:space="preserve" font-family="Helvetica-Light" font-size="40.0" fill="#FF2600" transform="matrix(1.00, 0.00, -0.00, -1.00, 644.8, 494.0)">d</text><text xml:space="preserve" font-family="Helvetica-Light" font-size="40.0" fill="#FF2600" transform="matrix(1.00, 0.00, -0.00, -1.00, 669.2, 494.0)">e</text><text xml:space="preserve" font-family="Helvetica-Light" font-size="40.0" fill="#FF2600" transform="matrix(1.00, 0.00, -0.00, -1.00, 691.5, 494.0)">p</text><text xml:space="preserve" font-family="Helvetica-Light" font-size="40.0" fill="#FF2600" transform="matrix(1.00, 0.00, -0.00, -1.00, 715.9, 494.0)">o</text><text xml:space="preserve" font-family="Helvetica-Light" font-size="40.0" fill="#FF2600" transform="matrix(1.00, 0.00, -0.00, -1.00, 738.2, 494.0)">s</text><text xml:space="preserve" font-family="Helvetica-Light" font-size="40.0" fill="#FF2600" transform="matrix(1.00, 0.00, -0.00, -1.00, 758.2, 494.0)">i</text><text xml:space="preserve" font-family="Helvetica-Light" font-size="40.0" fill="#FF2600" transform="matrix(1.00, 0.00, -0.00, -1.00, 767.0, 494.0)">t</text><text xml:space="preserve" font-family="Helvetica-Light" font-size="40.0" fill="#FF2600" transform="matrix(1.00, 0.00, -0.00, -1.00, 778.2, 494.0)">)</text><text xml:space="preserve" font-family="Helvetica-Light" font-size="40.0" fill="#FF2600" transform="matrix(1.00, 0.00, -0.00, -1.00, 791.5, 494.0)"> </text><text xml:space="preserve" font-family="Helvetica-Light" font-size="40.0" fill="#FF2600" transform="matrix(1.00, 0.00, -0.00, -1.00, 78.0, 436.0)">b</text><text xml:space="preserve" font-family="Helvetica-Light" font-size="40.0" fill="#FF2600" transform="matrix(1.00, 0.00, -0.00, -1.00, 102.4, 436.0)">u</text><text xml:space="preserve" font-family="Helvetica-Light" font-size="40.0" fill="#FF2600" transform="matrix(1.00, 0.00, -0.00, -1.00, 124.7, 436.0)">y</text><text xml:space="preserve" font-family="Helvetica-Light" font-size="40.0" fill="#FF2600" transform="matrix(1.00, 0.00, -0.00, -1.00, 144.7, 436.0)">e</text><text xml:space="preserve" font-family="Helvetica-Light" font-size="40.0" fill="#FF2600" transform="matrix(1.00, 0.00, -0.00, -1.00, 166.9, 436.0)">r</text><text xml:space="preserve" font-family="Helvetica-Light" font-size="40.0" fill="#FF2600" transform="matrix(1.00, 0.00, -0.00, -1.00, 180.2, 436.0)"> </text><text xml:space="preserve" font-family="Helvetica-Light" font-size="40.0" fill="#FF2600" transform="matrix(1.00, 0.00, -0.00, -1.00, 191.4, 436.0)">-</text><text xml:space="preserve" font-family="Helvetica-Light" font-size="40.0" fill="#FF2600" transform="matrix(1.00, 0.00, -0.00, -1.00, 204.7, 436.0)">2</text><text xml:space="preserve" font-family="Helvetica-Light" font-size="40.0" fill="#FF2600" transform="matrix(1.00, 0.00, -0.00, -1.00, 226.9, 436.0)">x</text><text xml:space="preserve" font-family="Helvetica-Light" font-size="40.0" fill="#FF2600" transform="matrix(1.00, 0.00, -0.00, -1.00, 246.9, 436.0)"> </text><text xml:space="preserve" font-family="Helvetica-Light" font-size="40.0" fill="#FF2600" transform="matrix(1.00, 0.00, -0.00, -1.00, 258.0, 436.0)">(</text><text xml:space="preserve" font-family="Helvetica-Light" font-size="40.0" fill="#FF2600" transform="matrix(1.00, 0.00, -0.00, -1.00, 271.4, 436.0)">l</text><text xml:space="preserve" font-family="Helvetica-Light" font-size="40.0" fill="#FF2600" transform="matrix(1.00, 0.00, -0.00, -1.00, 280.2, 436.0)">o</text><text xml:space="preserve" font-family="Helvetica-Light" font-size="40.0" fill="#FF2600" transform="matrix(1.00, 0.00, -0.00, -1.00, 302.5, 436.0)">s</text><text xml:space="preserve" font-family="Helvetica-Light" font-size="40.0" fill="#FF2600" transform="matrix(1.00, 0.00, -0.00, -1.00, 322.5, 436.0)">e</text><text xml:space="preserve" font-family="Helvetica-Light" font-size="40.0" fill="#FF2600" transform="matrix(1.00, 0.00, -0.00, -1.00, 344.7, 436.0)">s</text><text xml:space="preserve" font-family="Helvetica-Light" font-size="40.0" fill="#FF2600" transform="matrix(1.00, 0.00, -0.00, -1.00, 364.7, 436.0)"> </text><text xml:space="preserve" font-family="Helvetica-Light" font-size="40.0" fill="#FF2600" transform="matrix(1.00, 0.00, -0.00, -1.00, 375.8, 436.0)">d</text><text xml:space="preserve" font-family="Helvetica-Light" font-size="40.0" fill="#FF2600" transform="matrix(1.00, 0.00, -0.00, -1.00, 400.3, 436.0)">e</text><text xml:space="preserve" font-family="Helvetica-Light" font-size="40.0" fill="#FF2600" transform="matrix(1.00, 0.00, -0.00, -1.00, 422.5, 436.0)">p</text><text xml:space="preserve" font-family="Helvetica-Light" font-size="40.0" fill="#FF2600" transform="matrix(1.00, 0.00, -0.00, -1.00, 447.0, 436.0)">o</text><text xml:space="preserve" font-family="Helvetica-Light" font-size="40.0" fill="#FF2600" transform="matrix(1.00, 0.00, -0.00, -1.00, 469.2, 436.0)">s</text><text xml:space="preserve" font-family="Helvetica-Light" font-size="40.0" fill="#FF2600" transform="matrix(1.00, 0.00, -0.00, -1.00, 489.2, 436.0)">i</text><text xml:space="preserve" font-family="Helvetica-Light" font-size="40.0" fill="#FF2600" transform="matrix(1.00, 0.00, -0.00, -1.00, 498.1, 436.0)">t</text><text xml:space="preserve" font-family="Helvetica-Light" font-size="40.0" fill="#FF2600" transform="matrix(1.00, 0.00, -0.00, -1.00, 509.2, 436.0)"> </text><text xml:space="preserve" font-family="Helvetica-Light" font-size="40.0" fill="#FF2600" transform="matrix(1.00, 0.00, -0.00, -1.00, 520.3, 436.0)">&amp;</text><text xml:space="preserve" font-family="Helvetica-Light" font-size="40.0" fill="#FF2600" transform="matrix(1.00, 0.00, -0.00, -1.00, 547.0, 436.0)"> </text><text xml:space="preserve" font-family="Helvetica-Light" font-size="40.0" fill="#FF2600" transform="matrix(1.00, 0.00, -0.00, -1.00, 558.1, 436.0)">p</text><text xml:space="preserve" font-family="Helvetica-Light" font-size="40.0" fill="#FF2600" transform="matrix(1.00, 0.00, -0.00, -1.00, 582.6, 436.0)">a</text><text xml:space="preserve" font-family="Helvetica-Light" font-size="40.0" fill="#FF2600" transform="matrix(1.00, 0.00, -0.00, -1.00, 604.8, 436.0)">y</text><text xml:space="preserve" font-family="Helvetica-Light" font-size="40.0" fill="#FF2600" transform="matrix(1.00, 0.00, -0.00, -1.00, 624.8, 436.0)">m</text><text xml:space="preserve" font-family="Helvetica-Light" font-size="40.0" fill="#FF2600" transform="matrix(1.00, 0.00, -0.00, -1.00, 658.1, 436.0)">e</text><text xml:space="preserve" font-family="Helvetica-Light" font-size="40.0" fill="#FF2600" transform="matrix(1.00, 0.00, -0.00, -1.00, 680.4, 436.0)">n</text><text xml:space="preserve" font-family="Helvetica-Light" font-size="40.0" fill="#FF2600" transform="matrix(1.00, 0.00, -0.00, -1.00, 702.6, 436.0)">t</text><text xml:space="preserve" font-family="Helvetica-Light" font-size="40.0" fill="#FF2600" transform="matrix(1.00, 0.00, -0.00, -1.00, 713.7, 436.0)">)</text><text xml:space="preserve" font-family="Helvetica-Light" font-size="40.0" fill="#FF2600" transform="matrix(1.00, 0.00, -0.00, -1.00, 727.0, 436.0)"> </text><text xml:space="preserve" font-family="Helvetica-Bold" font-weight="bold" font-size="40.0" fill="#FEFFFF" transform="matrix(1.00, 0.00, -0.00, -1.00, 78.0, 321.0)">i</text><text xml:space="preserve" font-family="Helvetica-Bold" font-weight="bold" font-size="40.0" fill="#FEFFFF" transform="matrix(1.00, 0.00, -0.00, -1.00, 89.1, 321.0)">f</text><text xml:space="preserve" font-family="Helvetica-Bold" font-weight="bold" font-size="40.0" fill="#FEFFFF" transform="matrix(1.00, 0.00, -0.00, -1.00, 102.4, 321.0)"> </text><text xml:space="preserve" font-family="Helvetica-Bold" font-weight="bold" font-size="40.0" fill="#FEFFFF" transform="matrix(1.00, 0.00, -0.00, -1.00, 113.5, 321.0)">b</text><text xml:space="preserve" font-family="Helvetica-Bold" font-weight="bold" font-size="40.0" fill="#FEFFFF" transform="matrix(1.00, 0.00, -0.00, -1.00, 138.0, 321.0)">u</text><text xml:space="preserve" font-family="Helvetica-Bold" font-weight="bold" font-size="40.0" fill="#FEFFFF" transform="matrix(1.00, 0.00, -0.00, -1.00, 162.4, 321.0)">y</text><text xml:space="preserve" font-family="Helvetica-Bold" font-weight="bold" font-size="40.0" fill="#FEFFFF" transform="matrix(1.00, 0.00, -0.00, -1.00, 184.6, 321.0)">e</text><text xml:space="preserve" font-family="Helvetica-Bold" font-weight="bold" font-size="40.0" fill="#FEFFFF" transform="matrix(1.00, 0.00, -0.00, -1.00, 206.9, 321.0)">r</text><text xml:space="preserve" font-family="Helvetica-Bold" font-weight="bold" font-size="40.0" fill="#FEFFFF" transform="matrix(1.00, 0.00, -0.00, -1.00, 222.5, 321.0)"> </text><text xml:space="preserve" font-family="Helvetica-Bold" font-weight="bold" font-size="40.0" fill="#FEFFFF" transform="matrix(1.00, 0.00, -0.00, -1.00, 233.6, 321.0)">d</text><text xml:space="preserve" font-family="Helvetica-Bold" font-weight="bold" font-size="40.0" fill="#FEFFFF" transform="matrix(1.00, 0.00, -0.00, -1.00, 258.0, 321.0)">o</text><text xml:space="preserve" font-family="Helvetica-Bold" font-weight="bold" font-size="40.0" fill="#FEFFFF" transform="matrix(1.00, 0.00, -0.00, -1.00, 282.4, 321.0)">e</text><text xml:space="preserve" font-family="Helvetica-Bold" font-weight="bold" font-size="40.0" fill="#FEFFFF" transform="matrix(1.00, 0.00, -0.00, -1.00, 304.7, 321.0)">s</text><text xml:space="preserve" font-family="Helvetica-Bold" font-weight="bold" font-size="40.0" fill="#FEFFFF" transform="matrix(1.00, 0.00, -0.00, -1.00, 326.9, 321.0)">n</text><text xml:space="preserve" font-family="Helvetica-Bold" font-weight="bold" font-size="40.0" fill="#FEFFFF" transform="matrix(1.00, 0.00, -0.00, -1.00, 351.4, 321.0)">’</text><text xml:space="preserve" font-family="Helvetica-Bold" font-weight="bold" font-size="40.0" fill="#FEFFFF" transform="matrix(1.00, 0.00, -0.00, -1.00, 362.5, 321.0)">t</text><text xml:space="preserve" font-family="Helvetica-Bold" font-weight="bold" font-size="40.0" fill="#FEFFFF" transform="matrix(1.00, 0.00, -0.00, -1.00, 375.8, 321.0)"> </text><text xml:space="preserve" font-family="Helvetica-Bold" font-weight="bold" font-size="40.0" fill="#FEFFFF" transform="matrix(1.00, 0.00, -0.00, -1.00, 386.9, 321.0)">s</text><text xml:space="preserve" font-family="Helvetica-Bold" font-weight="bold" font-size="40.0" fill="#FEFFFF" transform="matrix(1.00, 0.00, -0.00, -1.00, 409.2, 321.0)">e</text><text xml:space="preserve" font-family="Helvetica-Bold" font-weight="bold" font-size="40.0" fill="#FEFFFF" transform="matrix(1.00, 0.00, -0.00, -1.00, 431.4, 321.0)">n</text><text xml:space="preserve" font-family="Helvetica-Bold" font-weight="bold" font-size="40.0" fill="#FEFFFF" transform="matrix(1.00, 0.00, -0.00, -1.00, 455.8, 321.0)">d</text><text xml:space="preserve" font-family="Helvetica-Bold" font-weight="bold" font-size="40.0" fill="#FEFFFF" transform="matrix(1.00, 0.00, -0.00, -1.00, 480.3, 321.0)"> </text><text xml:space="preserve" font-family="Helvetica-Bold" font-weight="bold" font-size="40.0" fill="#FEFFFF" transform="matrix(1.00, 0.00, -0.00, -1.00, 491.4, 321.0)">p</text><text xml:space="preserve" font-family="Helvetica-Bold" font-weight="bold" font-size="40.0" fill="#FEFFFF" transform="matrix(1.00, 0.00, -0.00, -1.00, 515.8, 321.0)">a</text><text xml:space="preserve" font-family="Helvetica-Bold" font-weight="bold" font-size="40.0" fill="#FEFFFF" transform="matrix(1.00, 0.00, -0.00, -1.00, 538.0, 321.0)">y</text><text xml:space="preserve" font-family="Helvetica-Bold" font-weight="bold" font-size="40.0" fill="#FEFFFF" transform="matrix(1.00, 0.00, -0.00, -1.00, 560.3, 321.0)">m</text><text xml:space="preserve" font-family="Helvetica-Bold" font-weight="bold" font-size="40.0" fill="#FEFFFF" transform="matrix(1.00, 0.00, -0.00, -1.00, 595.9, 321.0)">e</text><text xml:space="preserve" font-family="Helvetica-Bold" font-weight="bold" font-size="40.0" fill="#FEFFFF" transform="matrix(1.00, 0.00, -0.00, -1.00, 618.1, 321.0)">n</text><text xml:space="preserve" font-family="Helvetica-Bold" font-weight="bold" font-size="40.0" fill="#FEFFFF" transform="matrix(1.00, 0.00, -0.00, -1.00, 642.6, 321.0)">t</text><text xml:space="preserve" font-family="Helvetica-Light" font-size="40.0" fill="#FF2600" transform="matrix(1.00, 0.00, -0.00, -1.00, 78.0, 263.0)">s</text><text xml:space="preserve" font-family="Helvetica-Light" font-size="40.0" fill="#FF2600" transform="matrix(1.00, 0.00, -0.00, -1.00, 98.0, 263.0)">e</text><text xml:space="preserve" font-family="Helvetica-Light" font-size="40.0" fill="#FF2600" transform="matrix(1.00, 0.00, -0.00, -1.00, 120.2, 263.0)">l</text><text xml:space="preserve" font-family="Helvetica-Light" font-size="40.0" fill="#FF2600" transform="matrix(1.00, 0.00, -0.00, -1.00, 129.1, 263.0)">l</text><text xml:space="preserve" font-family="Helvetica-Light" font-size="40.0" fill="#FF2600" transform="matrix(1.00, 0.00, -0.00, -1.00, 138.0, 263.0)">e</text><text xml:space="preserve" font-family="Helvetica-Light" font-size="40.0" fill="#FF2600" transform="matrix(1.00, 0.00, -0.00, -1.00, 160.2, 263.0)">r</text><text xml:space="preserve" font-family="Helvetica-Light" font-size="40.0" fill="#FF2600" transform="matrix(1.00, 0.00, -0.00, -1.00, 173.6, 263.0)"> </text><text xml:space="preserve" font-family="Helvetica-Light" font-size="40.0" fill="#FF2600" transform="matrix(1.00, 0.00, -0.00, -1.00, 184.7, 263.0)">-</text><text xml:space="preserve" font-family="Helvetica-Light" font-size="40.0" fill="#FF2600" transform="matrix(1.00, 0.00, -0.00, -1.00, 198.0, 263.0)">2</text><text xml:space="preserve" font-family="Helvetica-Light" font-size="40.0" fill="#FF2600" transform="matrix(1.00, 0.00, -0.00, -1.00, 220.2, 263.0)">x</text><text xml:space="preserve" font-family="Helvetica-Light" font-size="40.0" fill="#FF2600" transform="matrix(1.00, 0.00, -0.00, -1.00, 240.2, 263.0)"> </text><text xml:space="preserve" font-family="Helvetica-Light" font-size="40.0" fill="#FF2600" transform="matrix(1.00, 0.00, -0.00, -1.00, 251.4, 263.0)">(</text><text xml:space="preserve" font-family="Helvetica-Light" font-size="40.0" fill="#FF2600" transform="matrix(1.00, 0.00, -0.00, -1.00, 264.7, 263.0)">l</text><text xml:space="preserve" font-family="Helvetica-Light" font-size="40.0" fill="#FF2600" transform="matrix(1.00, 0.00, -0.00, -1.00, 273.6, 263.0)">o</text><text xml:space="preserve" font-family="Helvetica-Light" font-size="40.0" fill="#FF2600" transform="matrix(1.00, 0.00, -0.00, -1.00, 295.8, 263.0)">s</text><text xml:space="preserve" font-family="Helvetica-Light" font-size="40.0" fill="#FF2600" transform="matrix(1.00, 0.00, -0.00, -1.00, 315.8, 263.0)">s</text><text xml:space="preserve" font-family="Helvetica-Light" font-size="40.0" fill="#FF2600" transform="matrix(1.00, 0.00, -0.00, -1.00, 335.8, 263.0)">e</text><text xml:space="preserve" font-family="Helvetica-Light" font-size="40.0" fill="#FF2600" transform="matrix(1.00, 0.00, -0.00, -1.00, 358.0, 263.0)">s</text><text xml:space="preserve" font-family="Helvetica-Light" font-size="40.0" fill="#FF2600" transform="matrix(1.00, 0.00, -0.00, -1.00, 378.0, 263.0)"> </text><text xml:space="preserve" font-family="Helvetica-Light" font-size="40.0" fill="#FF2600" transform="matrix(1.00, 0.00, -0.00, -1.00, 389.2, 263.0)">i</text><text xml:space="preserve" font-family="Helvetica-Light" font-size="40.0" fill="#FF2600" transform="matrix(1.00, 0.00, -0.00, -1.00, 398.0, 263.0)">t</text><text xml:space="preserve" font-family="Helvetica-Light" font-size="40.0" fill="#FF2600" transform="matrix(1.00, 0.00, -0.00, -1.00, 409.2, 263.0)">e</text><text xml:space="preserve" font-family="Helvetica-Light" font-size="40.0" fill="#FF2600" transform="matrix(1.00, 0.00, -0.00, -1.00, 431.4, 263.0)">m</text><text xml:space="preserve" font-family="Helvetica-Light" font-size="40.0" fill="#FF2600" transform="matrix(1.00, 0.00, -0.00, -1.00, 464.7, 263.0)"> </text><text xml:space="preserve" font-family="Helvetica-Light" font-size="40.0" fill="#FF2600" transform="matrix(1.00, 0.00, -0.00, -1.00, 475.8, 263.0)">&amp;</text><text xml:space="preserve" font-family="Helvetica-Light" font-size="40.0" fill="#FF2600" transform="matrix(1.00, 0.00, -0.00, -1.00, 502.5, 263.0)"> </text><text xml:space="preserve" font-family="Helvetica-Light" font-size="40.0" fill="#FF2600" transform="matrix(1.00, 0.00, -0.00, -1.00, 513.6, 263.0)">d</text><text xml:space="preserve" font-family="Helvetica-Light" font-size="40.0" fill="#FF2600" transform="matrix(1.00, 0.00, -0.00, -1.00, 538.1, 263.0)">e</text><text xml:space="preserve" font-family="Helvetica-Light" font-size="40.0" fill="#FF2600" transform="matrix(1.00, 0.00, -0.00, -1.00, 560.3, 263.0)">p</text><text xml:space="preserve" font-family="Helvetica-Light" font-size="40.0" fill="#FF2600" transform="matrix(1.00, 0.00, -0.00, -1.00, 584.8, 263.0)">o</text><text xml:space="preserve" font-family="Helvetica-Light" font-size="40.0" fill="#FF2600" transform="matrix(1.00, 0.00, -0.00, -1.00, 607.0, 263.0)">s</text><text xml:space="preserve" font-family="Helvetica-Light" font-size="40.0" fill="#FF2600" transform="matrix(1.00, 0.00, -0.00, -1.00, 627.0, 263.0)">i</text><text xml:space="preserve" font-family="Helvetica-Light" font-size="40.0" fill="#FF2600" transform="matrix(1.00, 0.00, -0.00, -1.00, 635.9, 263.0)">t</text><text xml:space="preserve" font-family="Helvetica-Light" font-size="40.0" fill="#FF2600" transform="matrix(1.00, 0.00, -0.00, -1.00, 647.0, 263.0)">)</text><text xml:space="preserve" font-family="Helvetica-Light" font-size="40.0" fill="#FF2600" transform="matrix(1.00, 0.00, -0.00, -1.00, 660.3, 263.0)"> </text><text xml:space="preserve" font-family="Helvetica-Light" font-size="40.0" fill="#FF2600" transform="matrix(1.00, 0.00, -0.00, -1.00, 78.0, 206.0)">b</text><text xml:space="preserve" font-family="Helvetica-Light" font-size="40.0" fill="#FF2600" transform="matrix(1.00, 0.00, -0.00, -1.00, 102.4, 206.0)">u</text><text xml:space="preserve" font-family="Helvetica-Light" font-size="40.0" fill="#FF2600" transform="matrix(1.00, 0.00, -0.00, -1.00, 124.7, 206.0)">y</text><text xml:space="preserve" font-family="Helvetica-Light" font-size="40.0" fill="#FF2600" transform="matrix(1.00, 0.00, -0.00, -1.00, 144.7, 206.0)">e</text><text xml:space="preserve" font-family="Helvetica-Light" font-size="40.0" fill="#FF2600" transform="matrix(1.00, 0.00, -0.00, -1.00, 166.9, 206.0)">r</text><text xml:space="preserve" font-family="Helvetica-Light" font-size="40.0" fill="#FF2600" transform="matrix(1.00, 0.00, -0.00, -1.00, 180.2, 206.0)"> </text><text xml:space="preserve" font-family="Helvetica-Light" font-size="40.0" fill="#FF2600" transform="matrix(1.00, 0.00, -0.00, -1.00, 191.4, 206.0)">-</text><text xml:space="preserve" font-family="Helvetica-Light" font-size="40.0" fill="#FF2600" transform="matrix(1.00, 0.00, -0.00, -1.00, 204.7, 206.0)">1</text><text xml:space="preserve" font-family="Helvetica-Light" font-size="40.0" fill="#FF2600" transform="matrix(1.00, 0.00, -0.00, -1.00, 226.9, 206.0)">x</text><text xml:space="preserve" font-family="Helvetica-Light" font-size="40.0" fill="#FF2600" transform="matrix(1.00, 0.00, -0.00, -1.00, 246.9, 206.0)"> </text><text xml:space="preserve" font-family="Helvetica-Light" font-size="40.0" fill="#FF2600" transform="matrix(1.00, 0.00, -0.00, -1.00, 258.0, 206.0)">(</text><text xml:space="preserve" font-family="Helvetica-Light" font-size="40.0" fill="#FF2600" transform="matrix(1.00, 0.00, -0.00, -1.00, 271.4, 206.0)">g</text><text xml:space="preserve" font-family="Helvetica-Light" font-size="40.0" fill="#FF2600" transform="matrix(1.00, 0.00, -0.00, -1.00, 295.8, 206.0)">e</text><text xml:space="preserve" font-family="Helvetica-Light" font-size="40.0" fill="#FF2600" transform="matrix(1.00, 0.00, -0.00, -1.00, 318.0, 206.0)">t</text><text xml:space="preserve" font-family="Helvetica-Light" font-size="40.0" fill="#FF2600" transform="matrix(1.00, 0.00, -0.00, -1.00, 329.2, 206.0)">s</text><text xml:space="preserve" font-family="Helvetica-Light" font-size="40.0" fill="#FF2600" transform="matrix(1.00, 0.00, -0.00, -1.00, 349.2, 206.0)"> </text><text xml:space="preserve" font-family="Helvetica-Light" font-size="40.0" fill="#FF2600" transform="matrix(1.00, 0.00, -0.00, -1.00, 360.3, 206.0)">i</text><text xml:space="preserve" font-family="Helvetica-Light" font-size="40.0" fill="#FF2600" transform="matrix(1.00, 0.00, -0.00, -1.00, 369.2, 206.0)">t</text><text xml:space="preserve" font-family="Helvetica-Light" font-size="40.0" fill="#FF2600" transform="matrix(1.00, 0.00, -0.00, -1.00, 380.3, 206.0)">e</text><text xml:space="preserve" font-family="Helvetica-Light" font-size="40.0" fill="#FF2600" transform="matrix(1.00, 0.00, -0.00, -1.00, 402.5, 206.0)">m</text><text xml:space="preserve" font-family="Helvetica-Light" font-size="40.0" fill="#FF2600" transform="matrix(1.00, 0.00, -0.00, -1.00, 435.8, 206.0)"> </text><text xml:space="preserve" font-family="Helvetica-Light" font-size="40.0" fill="#FF2600" transform="matrix(1.00, 0.00, -0.00, -1.00, 447.0, 206.0)">b</text><text xml:space="preserve" font-family="Helvetica-Light" font-size="40.0" fill="#FF2600" transform="matrix(1.00, 0.00, -0.00, -1.00, 471.4, 206.0)">u</text><text xml:space="preserve" font-family="Helvetica-Light" font-size="40.0" fill="#FF2600" transform="matrix(1.00, 0.00, -0.00, -1.00, 493.6, 206.0)">t</text><text xml:space="preserve" font-family="Helvetica-Light" font-size="40.0" fill="#FF2600" transform="matrix(1.00, 0.00, -0.00, -1.00, 504.8, 206.0)"> </text><text xml:space="preserve" font-family="Helvetica-Light" font-size="40.0" fill="#FF2600" transform="matrix(1.00, 0.00, -0.00, -1.00, 515.9, 206.0)">l</text><text xml:space="preserve" font-family="Helvetica-Light" font-size="40.0" fill="#FF2600" transform="matrix(1.00, 0.00, -0.00, -1.00, 524.8, 206.0)">o</text><text xml:space="preserve" font-family="Helvetica-Light" font-size="40.0" fill="#FF2600" transform="matrix(1.00, 0.00, -0.00, -1.00, 547.0, 206.0)">o</text><text xml:space="preserve" font-family="Helvetica-Light" font-size="40.0" fill="#FF2600" transform="matrix(1.00, 0.00, -0.00, -1.00, 569.2, 206.0)">s</text><text xml:space="preserve" font-family="Helvetica-Light" font-size="40.0" fill="#FF2600" transform="matrix(1.00, 0.00, -0.00, -1.00, 589.2, 206.0)">e</text><text xml:space="preserve" font-family="Helvetica-Light" font-size="40.0" fill="#FF2600" transform="matrix(1.00, 0.00, -0.00, -1.00, 611.5, 206.0)">s</text><text xml:space="preserve" font-family="Helvetica-Light" font-size="40.0" fill="#FF2600" transform="matrix(1.00, 0.00, -0.00, -1.00, 631.5, 206.0)"> </text><text xml:space="preserve" font-family="Helvetica-Light" font-size="40.0" fill="#FF2600" transform="matrix(1.00, 0.00, -0.00, -1.00, 642.6, 206.0)">d</text><text xml:space="preserve" font-family="Helvetica-Light" font-size="40.0" fill="#FF2600" transform="matrix(1.00, 0.00, -0.00, -1.00, 667.0, 206.0)">e</text><text xml:space="preserve" font-family="Helvetica-Light" font-size="40.0" fill="#FF2600" transform="matrix(1.00, 0.00, -0.00, -1.00, 689.3, 206.0)">p</text><text xml:space="preserve" font-family="Helvetica-Light" font-size="40.0" fill="#FF2600" transform="matrix(1.00, 0.00, -0.00, -1.00, 713.7, 206.0)">o</text><text xml:space="preserve" font-family="Helvetica-Light" font-size="40.0" fill="#FF2600" transform="matrix(1.00, 0.00, -0.00, -1.00, 736.0, 206.0)">s</text><text xml:space="preserve" font-family="Helvetica-Light" font-size="40.0" fill="#FF2600" transform="matrix(1.00, 0.00, -0.00, -1.00, 756.0, 206.0)">i</text><text xml:space="preserve" font-family="Helvetica-Light" font-size="40.0" fill="#FF2600" transform="matrix(1.00, 0.00, -0.00, -1.00, 764.8, 206.0)">t</text><text xml:space="preserve" font-family="Helvetica-Light" font-size="40.0" fill="#FF2600" transform="matrix(1.00, 0.00, -0.00, -1.00, 776.0, 206.0)"> </text><text xml:space="preserve" font-family="Helvetica-Light" font-size="40.0" fill="#FF2600" transform="matrix(1.00, 0.00, -0.00, -1.00, 787.1, 206.0)">&amp;</text><text xml:space="preserve" font-family="Helvetica-Light" font-size="40.0" fill="#FF2600" transform="matrix(1.00, 0.00, -0.00, -1.00, 813.8, 206.0)"> </text><text xml:space="preserve" font-family="Helvetica-Light" font-size="40.0" fill="#FF2600" transform="matrix(1.00, 0.00, -0.00, -1.00, 824.9, 206.0)">p</text><text xml:space="preserve" font-family="Helvetica-Light" font-size="40.0" fill="#FF2600" transform="matrix(1.00, 0.00, -0.00, -1.00, 849.3, 206.0)">a</text><text xml:space="preserve" font-family="Helvetica-Light" font-size="40.0" fill="#FF2600" transform="matrix(1.00, 0.00, -0.00, -1.00, 871.6, 206.0)">y</text><text xml:space="preserve" font-family="Helvetica-Light" font-size="40.0" fill="#FF2600" transform="matrix(1.00, 0.00, -0.00, -1.00, 891.6, 206.0)">m</text><text xml:space="preserve" font-family="Helvetica-Light" font-size="40.0" fill="#FF2600" transform="matrix(1.00, 0.00, -0.00, -1.00, 924.9, 206.0)">e</text><text xml:space="preserve" font-family="Helvetica-Light" font-size="40.0" fill="#FF2600" transform="matrix(1.00, 0.00, -0.00, -1.00, 947.1, 206.0)">n</text><text xml:space="preserve" font-family="Helvetica-Light" font-size="40.0" fill="#FF2600" transform="matrix(1.00, 0.00, -0.00, -1.00, 969.4, 206.0)">t</text><text xml:space="preserve" font-family="Helvetica-Light" font-size="40.0" fill="#FF2600" transform="matrix(1.00, 0.00, -0.00, -1.00, 980.5, 206.0)">)</text></g></svg>