<?xml version="1.0" encoding="UTF-8" standalone="no"?><svg xmlns="http://www.w3.org/2000/svg" xmlns:xlink="http://www.w3.org/1999/xlink" clip-rule="evenodd" stroke-miterlimit="4.00" viewBox="0 0 1024 768"><desc>SVG generated by Keynote</desc><defs></defs><g transform="matrix(1.00, 0.00, -0.00, -1.00, 0.0, 768.0)"><path d="M 0.0 768.0 L 1024.0 768.0 L 1024.0 0.0 L 0.0 0.0 Z M 0.0 768.0 " fill="#000000"></path><text xml:space="preserve" font-family="Helvetica-Bold" font-weight="bold" font-size="42.0" fill="#F9FAFF" transform="matrix(1.00, 0.00, -0.00, -1.00, 101.0, 506.0)">p</text><text xml:space="preserve" font-family="Helvetica-Bold" font-weight="bold" font-size="42.0" fill="#F9FAFF" transform="matrix(1.00, 0.00, -0.00, -1.00, 126.6, 506.0)">a</text><text xml:space="preserve" font-family="Helvetica-Bold" font-weight="bold" font-size="42.0" fill="#F9FAFF" transform="matrix(1.00, 0.00, -0.00, -1.00, 150.0, 506.0)">y</text><text xml:space="preserve" font-family="Helvetica-Bold" font-weight="bold" font-size="42.0" fill="#F9FAFF" transform="matrix(1.00, 0.00, -0.00, -1.00, 173.3, 506.0)">p</text><text xml:space="preserve" font-family="Helvetica-Bold" font-weight="bold" font-size="42.0" fill="#F9FAFF" transform="matrix(1.00, 0.00, -0.00, -1.00, 199.0, 506.0)">u</text><text xml:space="preserve" font-family="Helvetica-Bold" font-weight="bold" font-size="42.0" fill="#F9FAFF" transform="matrix(1.00, 0.00, -0.00, -1.00, 224.6, 506.0)">b</text><text xml:space="preserve" font-family="Helvetica-Light" font-size="42.0" fill="#F9FAFF" transform="matrix(1.00, 0.00, -0.00, -1.00, 101.0, 446.0)">t</text><text xml:space="preserve" font-family="Helvetica-Light" font-size="42.0" fill="#F9FAFF" transform="matrix(1.00, 0.00, -0.00, -1.00, 112.7, 446.0)">r</text><text xml:space="preserve" font-family="Helvetica-Light" font-size="42.0" fill="#F9FAFF" transform="matrix(1.00, 0.00, -0.00, -1.00, 126.7, 446.0)">u</text><text xml:space="preserve" font-family="Helvetica-Light" font-size="42.0" fill="#F9FAFF" transform="matrix(1.00, 0.00, -0.00, -1.00, 150.0, 446.0)">s</text><text xml:space="preserve" font-family="Helvetica-Light" font-size="42.0" fill="#F9FAFF" transform="matrix(1.00, 0.00, -0.00, -1.00, 171.0, 446.0)">t</text><text xml:space="preserve" font-family="Helvetica-Light" font-size="42.0" fill="#F9FAFF" transform="matrix(1.00, 0.00, -0.00, -1.00, 182.7, 446.0)">l</text><text xml:space="preserve" font-family="Helvetica-Light" font-size="42.0" fill="#F9FAFF" transform="matrix(1.00, 0.00, -0.00, -1.00, 192.0, 446.0)">e</text><text xml:space="preserve" font-family="Helvetica-Light" font-size="42.0" fill="#F9FAFF" transform="matrix(1.00, 0.00, -0.00, -1.00, 215.4, 446.0)">s</text><text xml:space="preserve" font-family="Helvetica-Light" font-size="42.0" fill="#F9FAFF" transform="matrix(1.00, 0.00, -0.00, -1.00, 236.4, 446.0)">s</text><text xml:space="preserve" font-family="Helvetica-Light" font-size="42.0" fill="#F9FAFF" transform="matrix(1.00, 0.00, -0.00, -1.00, 257.4, 446.0)"> </text><text xml:space="preserve" font-family="Helvetica-Light" font-size="42.0" fill="#F9FAFF" transform="matrix(1.00, 0.00, -0.00, -1.00, 269.0, 446.0)">a</text><text xml:space="preserve" font-family="Helvetica-Light" font-size="42.0" fill="#F9FAFF" transform="matrix(1.00, 0.00, -0.00, -1.00, 292.4, 446.0)">n</text><text xml:space="preserve" font-family="Helvetica-Light" font-size="42.0" fill="#F9FAFF" transform="matrix(1.00, 0.00, -0.00, -1.00, 315.7, 446.0)">o</text><text xml:space="preserve" font-family="Helvetica-Light" font-size="42.0" fill="#F9FAFF" transform="matrix(1.00, 0.00, -0.00, -1.00, 339.1, 446.0)">n</text><text xml:space="preserve" font-family="Helvetica-Light" font-size="42.0" fill="#F9FAFF" transform="matrix(1.00, 0.00, -0.00, -1.00, 362.4, 446.0)">y</text><text xml:space="preserve" font-family="Helvetica-Light" font-size="42.0" fill="#F9FAFF" transform="matrix(1.00, 0.00, -0.00, -1.00, 383.4, 446.0)">m</text><text xml:space="preserve" font-family="Helvetica-Light" font-size="42.0" fill="#F9FAFF" transform="matrix(1.00, 0.00, -0.00, -1.00, 418.4, 446.0)">o</text><text xml:space="preserve" font-family="Helvetica-Light" font-size="42.0" fill="#F9FAFF" transform="matrix(1.00, 0.00, -0.00, -1.00, 441.8, 446.0)">u</text><text xml:space="preserve" font-family="Helvetica-Light" font-size="42.0" fill="#F9FAFF" transform="matrix(1.00, 0.00, -0.00, -1.00, 465.1, 446.0)">s</text><text xml:space="preserve" font-family="Helvetica-Light" font-size="42.0" fill="#F9FAFF" transform="matrix(1.00, 0.00, -0.00, -1.00, 486.1, 446.0)"> </text><text xml:space="preserve" font-family="Helvetica-Light" font-size="42.0" fill="#F9FAFF" transform="matrix(1.00, 0.00, -0.00, -1.00, 497.8, 446.0)">p</text><text xml:space="preserve" font-family="Helvetica-Light" font-size="42.0" fill="#F9FAFF" transform="matrix(1.00, 0.00, -0.00, -1.00, 523.5, 446.0)">u</text><text xml:space="preserve" font-family="Helvetica-Light" font-size="42.0" fill="#F9FAFF" transform="matrix(1.00, 0.00, -0.00, -1.00, 546.8, 446.0)">b</text><text xml:space="preserve" font-family="Helvetica-Light" font-size="42.0" fill="#F9FAFF" transform="matrix(1.00, 0.00, -0.00, -1.00, 572.5, 446.0)">l</text><text xml:space="preserve" font-family="Helvetica-Light" font-size="42.0" fill="#F9FAFF" transform="matrix(1.00, 0.00, -0.00, -1.00, 581.8, 446.0)">i</text><text xml:space="preserve" font-family="Helvetica-Light" font-size="42.0" fill="#F9FAFF" transform="matrix(1.00, 0.00, -0.00, -1.00, 591.1, 446.0)">s</text><text xml:space="preserve" font-family="Helvetica-Light" font-size="42.0" fill="#F9FAFF" transform="matrix(1.00, 0.00, -0.00, -1.00, 612.1, 446.0)">h</text><text xml:space="preserve" font-family="Helvetica-Light" font-size="42.0" fill="#F9FAFF" transform="matrix(1.00, 0.00, -0.00, -1.00, 635.5, 446.0)">i</text><text xml:space="preserve" font-family="Helvetica-Light" font-size="42.0" fill="#F9FAFF" transform="matrix(1.00, 0.00, -0.00, -1.00, 644.8, 446.0)">n</text><text xml:space="preserve" font-family="Helvetica-Light" font-size="42.0" fill="#F9FAFF" transform="matrix(1.00, 0.00, -0.00, -1.00, 668.2, 446.0)">g</text><text xml:space="preserve" font-family="Helvetica-Light" font-size="42.0" fill="#F9FAFF" transform="matrix(1.00, 0.00, -0.00, -1.00, 693.8, 446.0)"> </text><text xml:space="preserve" font-family="Helvetica-Light" font-size="42.0" fill="#F9FAFF" transform="matrix(1.00, 0.00, -0.00, -1.00, 705.5, 446.0)">&amp;</text><text xml:space="preserve" font-family="Helvetica-Light" font-size="42.0" fill="#F9FAFF" transform="matrix(1.00, 0.00, -0.00, -1.00, 733.5, 446.0)"> </text><text xml:space="preserve" font-family="Helvetica-Light" font-size="42.0" fill="#F9FAFF" transform="matrix(1.00, 0.00, -0.00, -1.00, 745.2, 446.0)">p</text><text xml:space="preserve" font-family="Helvetica-Light" font-size="42.0" fill="#F9FAFF" transform="matrix(1.00, 0.00, -0.00, -1.00, 770.9, 446.0)">a</text><text xml:space="preserve" font-family="Helvetica-Light" font-size="42.0" fill="#F9FAFF" transform="matrix(1.00, 0.00, -0.00, -1.00, 794.2, 446.0)">y</text><text xml:space="preserve" font-family="Helvetica-Light" font-size="42.0" fill="#F9FAFF" transform="matrix(1.00, 0.00, -0.00, -1.00, 815.2, 446.0)">m</text><text xml:space="preserve" font-family="Helvetica-Light" font-size="42.0" fill="#F9FAFF" transform="matrix(1.00, 0.00, -0.00, -1.00, 850.2, 446.0)">e</text><text xml:space="preserve" font-family="Helvetica-Light" font-size="42.0" fill="#F9FAFF" transform="matrix(1.00, 0.00, -0.00, -1.00, 873.5, 446.0)">n</text><text xml:space="preserve" font-family="Helvetica-Light" font-size="42.0" fill="#F9FAFF" transform="matrix(1.00, 0.00, -0.00, -1.00, 896.9, 446.0)">t</text><text xml:space="preserve" font-family="Helvetica-Light" font-size="42.0" fill="#F9FAFF" transform="matrix(1.00, 0.00, -0.00, -1.00, 908.6, 446.0)"> </text><text xml:space="preserve" font-family="Helvetica-Light" font-size="42.0" fill="#52575F" transform="matrix(1.00, 0.00, -0.00, -1.00, 101.0, 326.0)">f</text><text xml:space="preserve" font-family="Helvetica-Light" font-size="42.0" fill="#52575F" transform="matrix(1.00, 0.00, -0.00, -1.00, 112.7, 326.0)">r</text><text xml:space="preserve" font-family="Helvetica-Light" font-size="42.0" fill="#52575F" transform="matrix(1.00, 0.00, -0.00, -1.00, 125.9, 326.0)">e</text><text xml:space="preserve" font-family="Helvetica-Light" font-size="42.0" fill="#52575F" transform="matrix(1.00, 0.00, -0.00, -1.00, 149.3, 326.0)">e</text><text xml:space="preserve" font-family="Helvetica-Light" font-size="42.0" fill="#52575F" transform="matrix(1.00, 0.00, -0.00, -1.00, 172.6, 326.0)"> </text><text xml:space="preserve" font-family="Helvetica-Light" font-size="42.0" fill="#52575F" transform="matrix(1.00, 0.00, -0.00, -1.00, 184.3, 326.0)">a</text><text xml:space="preserve" font-family="Helvetica-Light" font-size="42.0" fill="#52575F" transform="matrix(1.00, 0.00, -0.00, -1.00, 207.6, 326.0)">n</text><text xml:space="preserve" font-family="Helvetica-Light" font-size="42.0" fill="#52575F" transform="matrix(1.00, 0.00, -0.00, -1.00, 231.0, 326.0)">d</text><text xml:space="preserve" font-family="Helvetica-Light" font-size="42.0" fill="#52575F" transform="matrix(1.00, 0.00, -0.00, -1.00, 256.7, 326.0)"> </text><text xml:space="preserve" font-family="Helvetica-Light" font-size="42.0" fill="#52575F" transform="matrix(1.00, 0.00, -0.00, -1.00, 268.3, 326.0)">o</text><text xml:space="preserve" font-family="Helvetica-Light" font-size="42.0" fill="#52575F" transform="matrix(1.00, 0.00, -0.00, -1.00, 291.7, 326.0)">p</text><text xml:space="preserve" font-family="Helvetica-Light" font-size="42.0" fill="#52575F" transform="matrix(1.00, 0.00, -0.00, -1.00, 317.3, 326.0)">e</text><text xml:space="preserve" font-family="Helvetica-Light" font-size="42.0" fill="#52575F" transform="matrix(1.00, 0.00, -0.00, -1.00, 340.7, 326.0)">n</text><text xml:space="preserve" font-family="Helvetica-Light" font-size="42.0" fill="#52575F" transform="matrix(1.00, 0.00, -0.00, -1.00, 364.0, 326.0)"> </text><text xml:space="preserve" font-family="Helvetica-Light" font-size="42.0" fill="#52575F" transform="matrix(1.00, 0.00, -0.00, -1.00, 375.7, 326.0)">s</text><text xml:space="preserve" font-family="Helvetica-Light" font-size="42.0" fill="#52575F" transform="matrix(1.00, 0.00, -0.00, -1.00, 396.7, 326.0)">o</text><text xml:space="preserve" font-family="Helvetica-Light" font-size="42.0" fill="#52575F" transform="matrix(1.00, 0.00, -0.00, -1.00, 420.1, 326.0)">u</text><text xml:space="preserve" font-family="Helvetica-Light" font-size="42.0" fill="#52575F" transform="matrix(1.00, 0.00, -0.00, -1.00, 443.4, 326.0)">r</text><text xml:space="preserve" font-family="Helvetica-Light" font-size="42.0" fill="#52575F" transform="matrix(1.00, 0.00, -0.00, -1.00, 456.7, 326.0)">c</text><text xml:space="preserve" font-family="Helvetica-Light" font-size="42.0" fill="#52575F" transform="matrix(1.00, 0.00, -0.00, -1.00, 480.0, 326.0)">e</text></g></svg>