<?xml version="1.0" encoding="UTF-8" standalone="no"?><svg xmlns="http://www.w3.org/2000/svg" xmlns:xlink="http://www.w3.org/1999/xlink" clip-rule="evenodd" stroke-miterlimit="4.00" viewBox="0 0 1024 768"><desc>SVG generated by Keynote</desc><defs></defs><g transform="matrix(1.00, 0.00, -0.00, -1.00, 0.0, 768.0)"><path d="M 0.0 768.0 L 1024.0 768.0 L 1024.0 0.0 L 0.0 0.0 Z M 0.0 768.0 " fill="#000000"></path><text xml:space="preserve" font-family="Helvetica-Bold" font-weight="bold" font-size="48.0" fill="#FEFFFF" transform="matrix(1.00, 0.00, -0.00, -1.00, 79.0, 505.0)">t</text><text xml:space="preserve" font-family="Helvetica-Bold" font-weight="bold" font-size="48.0" fill="#FEFFFF" transform="matrix(1.00, 0.00, -0.00, -1.00, 95.0, 505.0)">w</text><text xml:space="preserve" font-family="Helvetica-Bold" font-weight="bold" font-size="48.0" fill="#FEFFFF" transform="matrix(1.00, 0.00, -0.00, -1.00, 132.3, 505.0)">o</text><text xml:space="preserve" font-family="Helvetica-Bold" font-weight="bold" font-size="48.0" fill="#FEFFFF" transform="matrix(1.00, 0.00, -0.00, -1.00, 161.6, 505.0)"> </text><text xml:space="preserve" font-family="Helvetica-Bold" font-weight="bold" font-size="48.0" fill="#FEFFFF" transform="matrix(1.00, 0.00, -0.00, -1.00, 174.9, 505.0)">p</text><text xml:space="preserve" font-family="Helvetica-Bold" font-weight="bold" font-size="48.0" fill="#FEFFFF" transform="matrix(1.00, 0.00, -0.00, -1.00, 204.3, 505.0)">a</text><text xml:space="preserve" font-family="Helvetica-Bold" font-weight="bold" font-size="48.0" fill="#FEFFFF" transform="matrix(1.00, 0.00, -0.00, -1.00, 231.0, 505.0)">r</text><text xml:space="preserve" font-family="Helvetica-Bold" font-weight="bold" font-size="48.0" fill="#FEFFFF" transform="matrix(1.00, 0.00, -0.00, -1.00, 249.7, 505.0)">t</text><text xml:space="preserve" font-family="Helvetica-Bold" font-weight="bold" font-size="48.0" fill="#FEFFFF" transform="matrix(1.00, 0.00, -0.00, -1.00, 265.6, 505.0)">y</text><text xml:space="preserve" font-family="Helvetica-Bold" font-weight="bold" font-size="48.0" fill="#FEFFFF" transform="matrix(1.00, 0.00, -0.00, -1.00, 292.3, 505.0)"> </text><text xml:space="preserve" font-family="Helvetica-Bold" font-weight="bold" font-size="48.0" fill="#FEFFFF" transform="matrix(1.00, 0.00, -0.00, -1.00, 305.7, 505.0)">e</text><text xml:space="preserve" font-family="Helvetica-Bold" font-weight="bold" font-size="48.0" fill="#FEFFFF" transform="matrix(1.00, 0.00, -0.00, -1.00, 332.4, 505.0)">s</text><text xml:space="preserve" font-family="Helvetica-Bold" font-weight="bold" font-size="48.0" fill="#FEFFFF" transform="matrix(1.00, 0.00, -0.00, -1.00, 359.1, 505.0)">c</text><text xml:space="preserve" font-family="Helvetica-Bold" font-weight="bold" font-size="48.0" fill="#FEFFFF" transform="matrix(1.00, 0.00, -0.00, -1.00, 385.8, 505.0)">r</text><text xml:space="preserve" font-family="Helvetica-Bold" font-weight="bold" font-size="48.0" fill="#FEFFFF" transform="matrix(1.00, 0.00, -0.00, -1.00, 404.5, 505.0)">o</text><text xml:space="preserve" font-family="Helvetica-Bold" font-weight="bold" font-size="48.0" fill="#FEFFFF" transform="matrix(1.00, 0.00, -0.00, -1.00, 433.8, 505.0)">w</text><text xml:space="preserve" font-family="Helvetica-Light" font-size="48.0" fill="#FEFFFF" transform="matrix(1.00, 0.00, -0.00, -1.00, 79.0, 436.0)">g</text><text xml:space="preserve" font-family="Helvetica-Light" font-size="48.0" fill="#FEFFFF" transform="matrix(1.00, 0.00, -0.00, -1.00, 108.3, 436.0)">u</text><text xml:space="preserve" font-family="Helvetica-Light" font-size="48.0" fill="#FEFFFF" transform="matrix(1.00, 0.00, -0.00, -1.00, 135.0, 436.0)">a</text><text xml:space="preserve" font-family="Helvetica-Light" font-size="48.0" fill="#FEFFFF" transform="matrix(1.00, 0.00, -0.00, -1.00, 161.7, 436.0)">r</text><text xml:space="preserve" font-family="Helvetica-Light" font-size="48.0" fill="#FEFFFF" transform="matrix(1.00, 0.00, -0.00, -1.00, 177.7, 436.0)">a</text><text xml:space="preserve" font-family="Helvetica-Light" font-size="48.0" fill="#FEFFFF" transform="matrix(1.00, 0.00, -0.00, -1.00, 204.4, 436.0)">n</text><text xml:space="preserve" font-family="Helvetica-Light" font-size="48.0" fill="#FEFFFF" transform="matrix(1.00, 0.00, -0.00, -1.00, 231.1, 436.0)">t</text><text xml:space="preserve" font-family="Helvetica-Light" font-size="48.0" fill="#FEFFFF" transform="matrix(1.00, 0.00, -0.00, -1.00, 244.4, 436.0)">e</text><text xml:space="preserve" font-family="Helvetica-Light" font-size="48.0" fill="#FEFFFF" transform="matrix(1.00, 0.00, -0.00, -1.00, 271.1, 436.0)">e</text><text xml:space="preserve" font-family="Helvetica-Light" font-size="48.0" fill="#FEFFFF" transform="matrix(1.00, 0.00, -0.00, -1.00, 297.8, 436.0)">s</text><text xml:space="preserve" font-family="Helvetica-Light" font-size="48.0" fill="#FEFFFF" transform="matrix(1.00, 0.00, -0.00, -1.00, 321.8, 436.0)"> </text><text xml:space="preserve" font-family="Helvetica-Light" font-size="48.0" fill="#FEFFFF" transform="matrix(1.00, 0.00, -0.00, -1.00, 335.1, 436.0)">f</text><text xml:space="preserve" font-family="Helvetica-Light" font-size="48.0" fill="#FEFFFF" transform="matrix(1.00, 0.00, -0.00, -1.00, 348.5, 436.0)">r</text><text xml:space="preserve" font-family="Helvetica-Light" font-size="48.0" fill="#FEFFFF" transform="matrix(1.00, 0.00, -0.00, -1.00, 364.5, 436.0)">a</text><text xml:space="preserve" font-family="Helvetica-Light" font-size="48.0" fill="#FEFFFF" transform="matrix(1.00, 0.00, -0.00, -1.00, 391.1, 436.0)">u</text><text xml:space="preserve" font-family="Helvetica-Light" font-size="48.0" fill="#FEFFFF" transform="matrix(1.00, 0.00, -0.00, -1.00, 417.8, 436.0)">d</text><text xml:space="preserve" font-family="Helvetica-Light" font-size="48.0" fill="#FEFFFF" transform="matrix(1.00, 0.00, -0.00, -1.00, 447.2, 436.0)"> </text><text xml:space="preserve" font-family="Helvetica-Light" font-size="48.0" fill="#FEFFFF" transform="matrix(1.00, 0.00, -0.00, -1.00, 460.5, 436.0)">u</text><text xml:space="preserve" font-family="Helvetica-Light" font-size="48.0" fill="#FEFFFF" transform="matrix(1.00, 0.00, -0.00, -1.00, 487.2, 436.0)">n</text><text xml:space="preserve" font-family="Helvetica-Light" font-size="48.0" fill="#FEFFFF" transform="matrix(1.00, 0.00, -0.00, -1.00, 513.9, 436.0)">p</text><text xml:space="preserve" font-family="Helvetica-Light" font-size="48.0" fill="#FEFFFF" transform="matrix(1.00, 0.00, -0.00, -1.00, 543.2, 436.0)">r</text><text xml:space="preserve" font-family="Helvetica-Light" font-size="48.0" fill="#FEFFFF" transform="matrix(1.00, 0.00, -0.00, -1.00, 558.3, 436.0)">o</text><text xml:space="preserve" font-family="Helvetica-Light" font-size="48.0" fill="#FEFFFF" transform="matrix(1.00, 0.00, -0.00, -1.00, 585.0, 436.0)">ï¬</text><text xml:space="preserve" font-family="Helvetica-Light" font-size="48.0" fill="#FEFFFF" transform="matrix(1.00, 0.00, -0.00, -1.00, 609.0, 436.0)">t</text><text xml:space="preserve" font-family="Helvetica-Light" font-size="48.0" fill="#FEFFFF" transform="matrix(1.00, 0.00, -0.00, -1.00, 622.4, 436.0)">a</text><text xml:space="preserve" font-family="Helvetica-Light" font-size="48.0" fill="#FEFFFF" transform="matrix(1.00, 0.00, -0.00, -1.00, 649.0, 436.0)">b</text><text xml:space="preserve" font-family="Helvetica-Light" font-size="48.0" fill="#FEFFFF" transform="matrix(1.00, 0.00, -0.00, -1.00, 678.4, 436.0)">l</text><text xml:space="preserve" font-family="Helvetica-Light" font-size="48.0" fill="#FEFFFF" transform="matrix(1.00, 0.00, -0.00, -1.00, 689.0, 436.0)">e</text><text xml:space="preserve" font-family="Helvetica-Light" font-size="48.0" fill="#FEFFFF" transform="matrix(1.00, 0.00, -0.00, -1.00, 715.7, 436.0)"> </text><text xml:space="preserve" font-family="Helvetica-Light" font-size="48.0" fill="#FEFFFF" transform="matrix(1.00, 0.00, -0.00, -1.00, 79.0, 366.0)">s</text><text xml:space="preserve" font-family="Helvetica-Light" font-size="48.0" fill="#FEFFFF" transform="matrix(1.00, 0.00, -0.00, -1.00, 103.0, 366.0)">a</text><text xml:space="preserve" font-family="Helvetica-Light" font-size="48.0" fill="#FEFFFF" transform="matrix(1.00, 0.00, -0.00, -1.00, 129.7, 366.0)">f</text><text xml:space="preserve" font-family="Helvetica-Light" font-size="48.0" fill="#FEFFFF" transform="matrix(1.00, 0.00, -0.00, -1.00, 143.0, 366.0)">e</text><text xml:space="preserve" font-family="Helvetica-Light" font-size="48.0" fill="#FEFFFF" transform="matrix(1.00, 0.00, -0.00, -1.00, 169.7, 366.0)"> </text><text xml:space="preserve" font-family="Helvetica-Light" font-size="48.0" fill="#FEFFFF" transform="matrix(1.00, 0.00, -0.00, -1.00, 183.1, 366.0)">f</text><text xml:space="preserve" font-family="Helvetica-Light" font-size="48.0" fill="#FEFFFF" transform="matrix(1.00, 0.00, -0.00, -1.00, 196.4, 366.0)">r</text><text xml:space="preserve" font-family="Helvetica-Light" font-size="48.0" fill="#FEFFFF" transform="matrix(1.00, 0.00, -0.00, -1.00, 211.5, 366.0)">o</text><text xml:space="preserve" font-family="Helvetica-Light" font-size="48.0" fill="#FEFFFF" transform="matrix(1.00, 0.00, -0.00, -1.00, 238.2, 366.0)">m</text><text xml:space="preserve" font-family="Helvetica-Light" font-size="48.0" fill="#FEFFFF" transform="matrix(1.00, 0.00, -0.00, -1.00, 278.2, 366.0)"> </text><text xml:space="preserve" font-family="Helvetica-Light" font-size="48.0" fill="#FEFFFF" transform="matrix(1.00, 0.00, -0.00, -1.00, 291.5, 366.0)">r</text><text xml:space="preserve" font-family="Helvetica-Light" font-size="48.0" fill="#FEFFFF" transform="matrix(1.00, 0.00, -0.00, -1.00, 306.7, 366.0)">e</text><text xml:space="preserve" font-family="Helvetica-Light" font-size="48.0" fill="#FEFFFF" transform="matrix(1.00, 0.00, -0.00, -1.00, 333.4, 366.0)">p</text><text xml:space="preserve" font-family="Helvetica-Light" font-size="48.0" fill="#FEFFFF" transform="matrix(1.00, 0.00, -0.00, -1.00, 362.7, 366.0)">u</text><text xml:space="preserve" font-family="Helvetica-Light" font-size="48.0" fill="#FEFFFF" transform="matrix(1.00, 0.00, -0.00, -1.00, 389.4, 366.0)">t</text><text xml:space="preserve" font-family="Helvetica-Light" font-size="48.0" fill="#FEFFFF" transform="matrix(1.00, 0.00, -0.00, -1.00, 402.7, 366.0)">a</text><text xml:space="preserve" font-family="Helvetica-Light" font-size="48.0" fill="#FEFFFF" transform="matrix(1.00, 0.00, -0.00, -1.00, 429.4, 366.0)">t</text><text xml:space="preserve" font-family="Helvetica-Light" font-size="48.0" fill="#FEFFFF" transform="matrix(1.00, 0.00, -0.00, -1.00, 442.7, 366.0)">i</text><text xml:space="preserve" font-family="Helvetica-Light" font-size="48.0" fill="#FEFFFF" transform="matrix(1.00, 0.00, -0.00, -1.00, 453.4, 366.0)">o</text><text xml:space="preserve" font-family="Helvetica-Light" font-size="48.0" fill="#FEFFFF" transform="matrix(1.00, 0.00, -0.00, -1.00, 480.1, 366.0)">n</text><text xml:space="preserve" font-family="Helvetica-Light" font-size="48.0" fill="#FEFFFF" transform="matrix(1.00, 0.00, -0.00, -1.00, 506.8, 366.0)"> </text><text xml:space="preserve" font-family="Helvetica-Light" font-size="48.0" fill="#FEFFFF" transform="matrix(1.00, 0.00, -0.00, -1.00, 520.1, 366.0)">a</text><text xml:space="preserve" font-family="Helvetica-Light" font-size="48.0" fill="#FEFFFF" transform="matrix(1.00, 0.00, -0.00, -1.00, 546.8, 366.0)">t</text><text xml:space="preserve" font-family="Helvetica-Light" font-size="48.0" fill="#FEFFFF" transform="matrix(1.00, 0.00, -0.00, -1.00, 560.2, 366.0)">t</text><text xml:space="preserve" font-family="Helvetica-Light" font-size="48.0" fill="#FEFFFF" transform="matrix(1.00, 0.00, -0.00, -1.00, 573.5, 366.0)">a</text><text xml:space="preserve" font-family="Helvetica-Light" font-size="48.0" fill="#FEFFFF" transform="matrix(1.00, 0.00, -0.00, -1.00, 600.2, 366.0)">c</text><text xml:space="preserve" font-family="Helvetica-Light" font-size="48.0" fill="#FEFFFF" transform="matrix(1.00, 0.00, -0.00, -1.00, 626.9, 366.0)">k</text><text xml:space="preserve" font-family="Helvetica-Light" font-size="48.0" fill="#FEFFFF" transform="matrix(1.00, 0.00, -0.00, -1.00, 650.9, 366.0)">s</text><text xml:space="preserve" font-family="Helvetica-Light" font-size="48.0" fill="#FEFFFF" transform="matrix(1.00, 0.00, -0.00, -1.00, 674.9, 366.0)"> </text><text xml:space="preserve" font-family="Helvetica-Light" font-size="48.0" fill="#FEFFFF" transform="matrix(1.00, 0.00, -0.00, -1.00, 79.0, 296.0)">s</text><text xml:space="preserve" font-family="Helvetica-Light" font-size="48.0" fill="#FEFFFF" transform="matrix(1.00, 0.00, -0.00, -1.00, 103.0, 296.0)">a</text><text xml:space="preserve" font-family="Helvetica-Light" font-size="48.0" fill="#FEFFFF" transform="matrix(1.00, 0.00, -0.00, -1.00, 129.7, 296.0)">f</text><text xml:space="preserve" font-family="Helvetica-Light" font-size="48.0" fill="#FEFFFF" transform="matrix(1.00, 0.00, -0.00, -1.00, 143.0, 296.0)">e</text><text xml:space="preserve" font-family="Helvetica-Light" font-size="48.0" fill="#FEFFFF" transform="matrix(1.00, 0.00, -0.00, -1.00, 169.7, 296.0)"> </text><text xml:space="preserve" font-family="Helvetica-Light" font-size="48.0" fill="#FEFFFF" transform="matrix(1.00, 0.00, -0.00, -1.00, 183.1, 296.0)">f</text><text xml:space="preserve" font-family="Helvetica-Light" font-size="48.0" fill="#FEFFFF" transform="matrix(1.00, 0.00, -0.00, -1.00, 196.4, 296.0)">r</text><text xml:space="preserve" font-family="Helvetica-Light" font-size="48.0" fill="#FEFFFF" transform="matrix(1.00, 0.00, -0.00, -1.00, 211.5, 296.0)">o</text><text xml:space="preserve" font-family="Helvetica-Light" font-size="48.0" fill="#FEFFFF" transform="matrix(1.00, 0.00, -0.00, -1.00, 238.2, 296.0)">m</text><text xml:space="preserve" font-family="Helvetica-Light" font-size="48.0" fill="#FEFFFF" transform="matrix(1.00, 0.00, -0.00, -1.00, 278.2, 296.0)"> </text><text xml:space="preserve" font-family="Helvetica-Light" font-size="48.0" fill="#FEFFFF" transform="matrix(1.00, 0.00, -0.00, -1.00, 291.5, 296.0)">e</text><text xml:space="preserve" font-family="Helvetica-Light" font-size="48.0" fill="#FEFFFF" transform="matrix(1.00, 0.00, -0.00, -1.00, 318.2, 296.0)">x</text><text xml:space="preserve" font-family="Helvetica-Light" font-size="48.0" fill="#FEFFFF" transform="matrix(1.00, 0.00, -0.00, -1.00, 342.2, 296.0)">i</text><text xml:space="preserve" font-family="Helvetica-Light" font-size="48.0" fill="#FEFFFF" transform="matrix(1.00, 0.00, -0.00, -1.00, 352.9, 296.0)">t</text><text xml:space="preserve" font-family="Helvetica-Light" font-size="48.0" fill="#FEFFFF" transform="matrix(1.00, 0.00, -0.00, -1.00, 366.2, 296.0)"> </text><text xml:space="preserve" font-family="Helvetica-Light" font-size="48.0" fill="#FEFFFF" transform="matrix(1.00, 0.00, -0.00, -1.00, 379.6, 296.0)">s</text><text xml:space="preserve" font-family="Helvetica-Light" font-size="48.0" fill="#FEFFFF" transform="matrix(1.00, 0.00, -0.00, -1.00, 403.6, 296.0)">c</text><text xml:space="preserve" font-family="Helvetica-Light" font-size="48.0" fill="#FEFFFF" transform="matrix(1.00, 0.00, -0.00, -1.00, 430.3, 296.0)">a</text><text xml:space="preserve" font-family="Helvetica-Light" font-size="48.0" fill="#FEFFFF" transform="matrix(1.00, 0.00, -0.00, -1.00, 457.0, 296.0)">m</text><text xml:space="preserve" font-family="Helvetica-Light" font-size="48.0" fill="#FEFFFF" transform="matrix(1.00, 0.00, -0.00, -1.00, 496.9, 296.0)">s</text><text xml:space="preserve" font-family="Helvetica-Light" font-size="48.0" fill="#FEFFFF" transform="matrix(1.00, 0.00, -0.00, -1.00, 520.9, 296.0)"> </text><text xml:space="preserve" font-family="Helvetica-Light" font-size="48.0" fill="#FEFFFF" transform="matrix(1.00, 0.00, -0.00, -1.00, 79.0, 227.0)">n</text><text xml:space="preserve" font-family="Helvetica-Light" font-size="48.0" fill="#FEFFFF" transform="matrix(1.00, 0.00, -0.00, -1.00, 105.7, 227.0)">o</text><text xml:space="preserve" font-family="Helvetica-Light" font-size="48.0" fill="#FEFFFF" transform="matrix(1.00, 0.00, -0.00, -1.00, 132.4, 227.0)"> </text><text xml:space="preserve" font-family="Helvetica-Light" font-size="48.0" fill="#FEFFFF" transform="matrix(1.00, 0.00, -0.00, -1.00, 145.7, 227.0)">m</text><text xml:space="preserve" font-family="Helvetica-Light" font-size="48.0" fill="#FEFFFF" transform="matrix(1.00, 0.00, -0.00, -1.00, 185.7, 227.0)">i</text><text xml:space="preserve" font-family="Helvetica-Light" font-size="48.0" fill="#FEFFFF" transform="matrix(1.00, 0.00, -0.00, -1.00, 196.4, 227.0)">d</text><text xml:space="preserve" font-family="Helvetica-Light" font-size="48.0" fill="#FEFFFF" transform="matrix(1.00, 0.00, -0.00, -1.00, 225.7, 227.0)">d</text><text xml:space="preserve" font-family="Helvetica-Light" font-size="48.0" fill="#FEFFFF" transform="matrix(1.00, 0.00, -0.00, -1.00, 255.0, 227.0)">l</text><text xml:space="preserve" font-family="Helvetica-Light" font-size="48.0" fill="#FEFFFF" transform="matrix(1.00, 0.00, -0.00, -1.00, 265.7, 227.0)">e</text><text xml:space="preserve" font-family="Helvetica-Light" font-size="48.0" fill="#FEFFFF" transform="matrix(1.00, 0.00, -0.00, -1.00, 292.4, 227.0)"> </text><text xml:space="preserve" font-family="Helvetica-Light" font-size="48.0" fill="#FEFFFF" transform="matrix(1.00, 0.00, -0.00, -1.00, 305.7, 227.0)">m</text><text xml:space="preserve" font-family="Helvetica-Light" font-size="48.0" fill="#FEFFFF" transform="matrix(1.00, 0.00, -0.00, -1.00, 345.7, 227.0)">e</text><text xml:space="preserve" font-family="Helvetica-Light" font-size="48.0" fill="#FEFFFF" transform="matrix(1.00, 0.00, -0.00, -1.00, 372.4, 227.0)">n</text><text xml:space="preserve" font-family="Helvetica-Light" font-size="48.0" fill="#FEFFFF" transform="matrix(1.00, 0.00, -0.00, -1.00, 399.1, 227.0)"> </text></g></svg>