<?xml version="1.0" encoding="UTF-8" standalone="no"?><svg xmlns="http://www.w3.org/2000/svg" xmlns:xlink="http://www.w3.org/1999/xlink" clip-rule="evenodd" stroke-miterlimit="4.00" viewBox="0 0 1024 768"><desc>SVG generated by Keynote</desc><defs></defs><g transform="matrix(1.00, 0.00, -0.00, -1.00, 0.0, 768.0)"><path d="M 0.0 768.0 L 1024.0 768.0 L 1024.0 0.0 L 0.0 0.0 Z M 0.0 768.0 " fill="#000000"></path><image xlink:href="../../E4433740-2F17-4665-B4D2-94185802878B/assets/1B716D1BCEDB4861E3BC510E730A65E2.jpeg" width="969.00" height="562.00" transform="matrix(1.00, 0.00, -0.00, -1.00, 28.0, 665.0)"></image><text xml:space="preserve" font-family="Helvetica" font-size="36.0" fill="#FEFFFF" transform="matrix(1.00, 0.00, -0.00, -1.00, 402.0, 700.0)">t</text><text xml:space="preserve" font-family="Helvetica" font-size="36.0" fill="#FEFFFF" transform="matrix(1.00, 0.00, -0.00, -1.00, 412.0, 700.0)">r</text><text xml:space="preserve" font-family="Helvetica" font-size="36.0" fill="#FEFFFF" transform="matrix(1.00, 0.00, -0.00, -1.00, 424.0, 700.0)">a</text><text xml:space="preserve" font-family="Helvetica" font-size="36.0" fill="#FEFFFF" transform="matrix(1.00, 0.00, -0.00, -1.00, 444.0, 700.0)">c</text><text xml:space="preserve" font-family="Helvetica" font-size="36.0" fill="#FEFFFF" transform="matrix(1.00, 0.00, -0.00, -1.00, 462.0, 700.0)">k</text><text xml:space="preserve" font-family="Helvetica" font-size="36.0" fill="#FEFFFF" transform="matrix(1.00, 0.00, -0.00, -1.00, 480.0, 700.0)">i</text><text xml:space="preserve" font-family="Helvetica" font-size="36.0" fill="#FEFFFF" transform="matrix(1.00, 0.00, -0.00, -1.00, 488.0, 700.0)">n</text><text xml:space="preserve" font-family="Helvetica" font-size="36.0" fill="#FEFFFF" transform="matrix(1.00, 0.00, -0.00, -1.00, 508.0, 700.0)">g</text><text xml:space="preserve" font-family="Helvetica" font-size="36.0" fill="#FEFFFF" transform="matrix(1.00, 0.00, -0.00, -1.00, 528.1, 700.0)"> </text><text xml:space="preserve" font-family="Helvetica" font-size="36.0" fill="#FEFFFF" transform="matrix(1.00, 0.00, -0.00, -1.00, 538.1, 700.0)">s</text><text xml:space="preserve" font-family="Helvetica" font-size="36.0" fill="#FEFFFF" transform="matrix(1.00, 0.00, -0.00, -1.00, 556.1, 700.0)">a</text><text xml:space="preserve" font-family="Helvetica" font-size="36.0" fill="#FEFFFF" transform="matrix(1.00, 0.00, -0.00, -1.00, 576.1, 700.0)">l</text><text xml:space="preserve" font-family="Helvetica" font-size="36.0" fill="#FEFFFF" transform="matrix(1.00, 0.00, -0.00, -1.00, 584.1, 700.0)">e</text><text xml:space="preserve" font-family="Helvetica" font-size="36.0" fill="#FEFFFF" transform="matrix(1.00, 0.00, -0.00, -1.00, 604.1, 700.0)">s</text></g></svg>