<?xml version="1.0" encoding="UTF-8" standalone="no"?><svg xmlns="http://www.w3.org/2000/svg" xmlns:xlink="http://www.w3.org/1999/xlink" clip-rule="evenodd" stroke-miterlimit="4.00" viewBox="0 0 1024 768"><desc>SVG generated by Keynote</desc><defs></defs><g transform="matrix(1.00, 0.00, -0.00, -1.00, 0.0, 768.0)"><path d="M 0.0 768.0 L 1024.0 768.0 L 1024.0 0.0 L 0.0 0.0 Z M 0.0 768.0 " fill="#000000"></path><text xml:space="preserve" font-family="Helvetica-Light" font-size="38.0" fill="#F9FAFF" transform="matrix(1.00, 0.00, -0.00, -1.00, 66.0, 588.0)">R</text><text xml:space="preserve" font-family="Helvetica-Light" font-size="38.0" fill="#F9FAFF" transform="matrix(1.00, 0.00, -0.00, -1.00, 91.3, 588.0)">e</text><text xml:space="preserve" font-family="Helvetica-Light" font-size="38.0" fill="#F9FAFF" transform="matrix(1.00, 0.00, -0.00, -1.00, 112.5, 588.0)">c</text><text xml:space="preserve" font-family="Helvetica-Light" font-size="38.0" fill="#F9FAFF" transform="matrix(1.00, 0.00, -0.00, -1.00, 133.6, 588.0)">e</text><text xml:space="preserve" font-family="Helvetica-Light" font-size="38.0" fill="#F9FAFF" transform="matrix(1.00, 0.00, -0.00, -1.00, 154.7, 588.0)">n</text><text xml:space="preserve" font-family="Helvetica-Light" font-size="38.0" fill="#F9FAFF" transform="matrix(1.00, 0.00, -0.00, -1.00, 175.9, 588.0)">t</text><text xml:space="preserve" font-family="Helvetica-Light" font-size="38.0" fill="#F9FAFF" transform="matrix(1.00, 0.00, -0.00, -1.00, 186.4, 588.0)">l</text><text xml:space="preserve" font-family="Helvetica-Light" font-size="38.0" fill="#F9FAFF" transform="matrix(1.00, 0.00, -0.00, -1.00, 194.9, 588.0)">y</text><text xml:space="preserve" font-family="Helvetica-Light" font-size="38.0" fill="#F9FAFF" transform="matrix(1.00, 0.00, -0.00, -1.00, 210.4, 588.0)">,</text><text xml:space="preserve" font-family="Helvetica-Light" font-size="38.0" fill="#F9FAFF" transform="matrix(1.00, 0.00, -0.00, -1.00, 220.9, 588.0)"> </text><text xml:space="preserve" font-family="Helvetica-Light" font-size="38.0" fill="#F9FAFF" transform="matrix(1.00, 0.00, -0.00, -1.00, 231.5, 588.0)">m</text><text xml:space="preserve" font-family="Helvetica-Light" font-size="38.0" fill="#F9FAFF" transform="matrix(1.00, 0.00, -0.00, -1.00, 263.1, 588.0)">i</text><text xml:space="preserve" font-family="Helvetica-Light" font-size="38.0" fill="#F9FAFF" transform="matrix(1.00, 0.00, -0.00, -1.00, 271.6, 588.0)">l</text><text xml:space="preserve" font-family="Helvetica-Light" font-size="38.0" fill="#F9FAFF" transform="matrix(1.00, 0.00, -0.00, -1.00, 280.0, 588.0)">l</text><text xml:space="preserve" font-family="Helvetica-Light" font-size="38.0" fill="#F9FAFF" transform="matrix(1.00, 0.00, -0.00, -1.00, 288.5, 588.0)">i</text><text xml:space="preserve" font-family="Helvetica-Light" font-size="38.0" fill="#F9FAFF" transform="matrix(1.00, 0.00, -0.00, -1.00, 296.9, 588.0)">o</text><text xml:space="preserve" font-family="Helvetica-Light" font-size="38.0" fill="#F9FAFF" transform="matrix(1.00, 0.00, -0.00, -1.00, 318.0, 588.0)">n</text><text xml:space="preserve" font-family="Helvetica-Light" font-size="38.0" fill="#F9FAFF" transform="matrix(1.00, 0.00, -0.00, -1.00, 339.1, 588.0)">s</text><text xml:space="preserve" font-family="Helvetica-Light" font-size="38.0" fill="#F9FAFF" transform="matrix(1.00, 0.00, -0.00, -1.00, 358.1, 588.0)"> </text><text xml:space="preserve" font-family="Helvetica-Light" font-size="38.0" fill="#F9FAFF" transform="matrix(1.00, 0.00, -0.00, -1.00, 368.7, 588.0)">o</text><text xml:space="preserve" font-family="Helvetica-Light" font-size="38.0" fill="#F9FAFF" transform="matrix(1.00, 0.00, -0.00, -1.00, 389.8, 588.0)">f</text><text xml:space="preserve" font-family="Helvetica-Light" font-size="38.0" fill="#F9FAFF" transform="matrix(1.00, 0.00, -0.00, -1.00, 400.4, 588.0)"> </text><text xml:space="preserve" font-family="Helvetica-Light" font-size="38.0" fill="#F9FAFF" transform="matrix(1.00, 0.00, -0.00, -1.00, 411.0, 588.0)">d</text><text xml:space="preserve" font-family="Helvetica-Light" font-size="38.0" fill="#F9FAFF" transform="matrix(1.00, 0.00, -0.00, -1.00, 434.2, 588.0)">o</text><text xml:space="preserve" font-family="Helvetica-Light" font-size="38.0" fill="#F9FAFF" transform="matrix(1.00, 0.00, -0.00, -1.00, 455.3, 588.0)">c</text><text xml:space="preserve" font-family="Helvetica-Light" font-size="38.0" fill="#F9FAFF" transform="matrix(1.00, 0.00, -0.00, -1.00, 476.4, 588.0)">u</text><text xml:space="preserve" font-family="Helvetica-Light" font-size="38.0" fill="#F9FAFF" transform="matrix(1.00, 0.00, -0.00, -1.00, 497.6, 588.0)">m</text><text xml:space="preserve" font-family="Helvetica-Light" font-size="38.0" fill="#F9FAFF" transform="matrix(1.00, 0.00, -0.00, -1.00, 529.2, 588.0)">e</text><text xml:space="preserve" font-family="Helvetica-Light" font-size="38.0" fill="#F9FAFF" transform="matrix(1.00, 0.00, -0.00, -1.00, 550.3, 588.0)">n</text><text xml:space="preserve" font-family="Helvetica-Light" font-size="38.0" fill="#F9FAFF" transform="matrix(1.00, 0.00, -0.00, -1.00, 571.5, 588.0)">t</text><text xml:space="preserve" font-family="Helvetica-Light" font-size="38.0" fill="#F9FAFF" transform="matrix(1.00, 0.00, -0.00, -1.00, 582.0, 588.0)">s</text><text xml:space="preserve" font-family="Helvetica-Light" font-size="38.0" fill="#F9FAFF" transform="matrix(1.00, 0.00, -0.00, -1.00, 601.0, 588.0)"> </text><text xml:space="preserve" font-family="Helvetica-Light" font-size="38.0" fill="#F9FAFF" transform="matrix(1.00, 0.00, -0.00, -1.00, 611.6, 588.0)">w</text><text xml:space="preserve" font-family="Helvetica-Light" font-size="38.0" fill="#F9FAFF" transform="matrix(1.00, 0.00, -0.00, -1.00, 639.0, 588.0)">e</text><text xml:space="preserve" font-family="Helvetica-Light" font-size="38.0" fill="#F9FAFF" transform="matrix(1.00, 0.00, -0.00, -1.00, 660.2, 588.0)">r</text><text xml:space="preserve" font-family="Helvetica-Light" font-size="38.0" fill="#F9FAFF" transform="matrix(1.00, 0.00, -0.00, -1.00, 672.1, 588.0)">e</text><text xml:space="preserve" font-family="Helvetica-Light" font-size="38.0" fill="#F9FAFF" transform="matrix(1.00, 0.00, -0.00, -1.00, 693.3, 588.0)"> </text><text xml:space="preserve" font-family="Helvetica-Light" font-size="38.0" fill="#F9FAFF" transform="matrix(1.00, 0.00, -0.00, -1.00, 703.8, 588.0)">l</text><text xml:space="preserve" font-family="Helvetica-Light" font-size="38.0" fill="#F9FAFF" transform="matrix(1.00, 0.00, -0.00, -1.00, 712.3, 588.0)">e</text><text xml:space="preserve" font-family="Helvetica-Light" font-size="38.0" fill="#F9FAFF" transform="matrix(1.00, 0.00, -0.00, -1.00, 733.4, 588.0)">a</text><text xml:space="preserve" font-family="Helvetica-Light" font-size="38.0" fill="#F9FAFF" transform="matrix(1.00, 0.00, -0.00, -1.00, 754.5, 588.0)">k</text><text xml:space="preserve" font-family="Helvetica-Light" font-size="38.0" fill="#F9FAFF" transform="matrix(1.00, 0.00, -0.00, -1.00, 773.5, 588.0)">e</text><text xml:space="preserve" font-family="Helvetica-Light" font-size="38.0" fill="#F9FAFF" transform="matrix(1.00, 0.00, -0.00, -1.00, 794.7, 588.0)">d</text><text xml:space="preserve" font-family="Helvetica-Light" font-size="38.0" fill="#F9FAFF" transform="matrix(1.00, 0.00, -0.00, -1.00, 817.9, 588.0)"> </text><text xml:space="preserve" font-family="Helvetica-Light" font-size="38.0" fill="#F9FAFF" transform="matrix(1.00, 0.00, -0.00, -1.00, 828.4, 588.0)">f</text><text xml:space="preserve" font-family="Helvetica-Light" font-size="38.0" fill="#F9FAFF" transform="matrix(1.00, 0.00, -0.00, -1.00, 839.0, 588.0)">r</text><text xml:space="preserve" font-family="Helvetica-Light" font-size="38.0" fill="#F9FAFF" transform="matrix(1.00, 0.00, -0.00, -1.00, 851.0, 588.0)">o</text><text xml:space="preserve" font-family="Helvetica-Light" font-size="38.0" fill="#F9FAFF" transform="matrix(1.00, 0.00, -0.00, -1.00, 872.1, 588.0)">m</text><text xml:space="preserve" font-family="Helvetica-Light" font-size="38.0" fill="#F9FAFF" transform="matrix(1.00, 0.00, -0.00, -1.00, 903.7, 588.0)"> </text><text xml:space="preserve" font-family="Helvetica-Light" font-size="38.0" fill="#F9FAFF" transform="matrix(1.00, 0.00, -0.00, -1.00, 66.0, 533.0)">M</text><text xml:space="preserve" font-family="Helvetica-Light" font-size="38.0" fill="#F9FAFF" transform="matrix(1.00, 0.00, -0.00, -1.00, 97.7, 533.0)">o</text><text xml:space="preserve" font-family="Helvetica-Light" font-size="38.0" fill="#F9FAFF" transform="matrix(1.00, 0.00, -0.00, -1.00, 118.8, 533.0)">s</text><text xml:space="preserve" font-family="Helvetica-Light" font-size="38.0" fill="#F9FAFF" transform="matrix(1.00, 0.00, -0.00, -1.00, 137.8, 533.0)">s</text><text xml:space="preserve" font-family="Helvetica-Light" font-size="38.0" fill="#F9FAFF" transform="matrix(1.00, 0.00, -0.00, -1.00, 156.8, 533.0)">a</text><text xml:space="preserve" font-family="Helvetica-Light" font-size="38.0" fill="#F9FAFF" transform="matrix(1.00, 0.00, -0.00, -1.00, 177.9, 533.0)">c</text><text xml:space="preserve" font-family="Helvetica-Light" font-size="38.0" fill="#F9FAFF" transform="matrix(1.00, 0.00, -0.00, -1.00, 199.0, 533.0)">k</text><text xml:space="preserve" font-family="Helvetica-Light" font-size="38.0" fill="#F9FAFF" transform="matrix(1.00, 0.00, -0.00, -1.00, 218.0, 533.0)"> </text><text xml:space="preserve" font-family="Helvetica-Light" font-size="38.0" fill="#F9FAFF" transform="matrix(1.00, 0.00, -0.00, -1.00, 228.6, 533.0)">F</text><text xml:space="preserve" font-family="Helvetica-Light" font-size="38.0" fill="#F9FAFF" transform="matrix(1.00, 0.00, -0.00, -1.00, 249.7, 533.0)">r</text><text xml:space="preserve" font-family="Helvetica-Light" font-size="38.0" fill="#F9FAFF" transform="matrix(1.00, 0.00, -0.00, -1.00, 262.4, 533.0)">a</text><text xml:space="preserve" font-family="Helvetica-Light" font-size="38.0" fill="#F9FAFF" transform="matrix(1.00, 0.00, -0.00, -1.00, 283.5, 533.0)">n</text><text xml:space="preserve" font-family="Helvetica-Light" font-size="38.0" fill="#F9FAFF" transform="matrix(1.00, 0.00, -0.00, -1.00, 304.6, 533.0)">s</text><text xml:space="preserve" font-family="Helvetica-Light" font-size="38.0" fill="#F9FAFF" transform="matrix(1.00, 0.00, -0.00, -1.00, 323.6, 533.0)">e</text><text xml:space="preserve" font-family="Helvetica-Light" font-size="38.0" fill="#F9FAFF" transform="matrix(1.00, 0.00, -0.00, -1.00, 344.8, 533.0)">c</text><text xml:space="preserve" font-family="Helvetica-Light" font-size="38.0" fill="#F9FAFF" transform="matrix(1.00, 0.00, -0.00, -1.00, 365.9, 533.0)">a</text><text xml:space="preserve" font-family="Helvetica-Light" font-size="38.0" fill="#F9FAFF" transform="matrix(1.00, 0.00, -0.00, -1.00, 387.0, 533.0)">,</text><text xml:space="preserve" font-family="Helvetica-Light" font-size="38.0" fill="#F9FAFF" transform="matrix(1.00, 0.00, -0.00, -1.00, 397.6, 533.0)"> </text><text xml:space="preserve" font-family="Helvetica-Light" font-size="38.0" fill="#F9FAFF" transform="matrix(1.00, 0.00, -0.00, -1.00, 408.2, 533.0)">e</text><text xml:space="preserve" font-family="Helvetica-Light" font-size="38.0" fill="#F9FAFF" transform="matrix(1.00, 0.00, -0.00, -1.00, 429.3, 533.0)">x</text><text xml:space="preserve" font-family="Helvetica-Light" font-size="38.0" fill="#F9FAFF" transform="matrix(1.00, 0.00, -0.00, -1.00, 448.3, 533.0)">p</text><text xml:space="preserve" font-family="Helvetica-Light" font-size="38.0" fill="#F9FAFF" transform="matrix(1.00, 0.00, -0.00, -1.00, 471.5, 533.0)">o</text><text xml:space="preserve" font-family="Helvetica-Light" font-size="38.0" fill="#F9FAFF" transform="matrix(1.00, 0.00, -0.00, -1.00, 492.6, 533.0)">s</text><text xml:space="preserve" font-family="Helvetica-Light" font-size="38.0" fill="#F9FAFF" transform="matrix(1.00, 0.00, -0.00, -1.00, 511.6, 533.0)">i</text><text xml:space="preserve" font-family="Helvetica-Light" font-size="38.0" fill="#F9FAFF" transform="matrix(1.00, 0.00, -0.00, -1.00, 520.1, 533.0)">n</text><text xml:space="preserve" font-family="Helvetica-Light" font-size="38.0" fill="#F9FAFF" transform="matrix(1.00, 0.00, -0.00, -1.00, 541.2, 533.0)">g</text><text xml:space="preserve" font-family="Helvetica-Light" font-size="38.0" fill="#F9FAFF" transform="matrix(1.00, 0.00, -0.00, -1.00, 564.4, 533.0)"> </text><text xml:space="preserve" font-family="Helvetica-Light" font-size="38.0" fill="#F9FAFF" transform="matrix(1.00, 0.00, -0.00, -1.00, 575.0, 533.0)">c</text><text xml:space="preserve" font-family="Helvetica-Light" font-size="38.0" fill="#F9FAFF" transform="matrix(1.00, 0.00, -0.00, -1.00, 596.1, 533.0)">r</text><text xml:space="preserve" font-family="Helvetica-Light" font-size="38.0" fill="#F9FAFF" transform="matrix(1.00, 0.00, -0.00, -1.00, 608.8, 533.0)">i</text><text xml:space="preserve" font-family="Helvetica-Light" font-size="38.0" fill="#F9FAFF" transform="matrix(1.00, 0.00, -0.00, -1.00, 617.2, 533.0)">m</text><text xml:space="preserve" font-family="Helvetica-Light" font-size="38.0" fill="#F9FAFF" transform="matrix(1.00, 0.00, -0.00, -1.00, 648.8, 533.0)">e</text><text xml:space="preserve" font-family="Helvetica-Light" font-size="38.0" fill="#F9FAFF" transform="matrix(1.00, 0.00, -0.00, -1.00, 670.0, 533.0)">s</text><text xml:space="preserve" font-family="Helvetica-Light" font-size="38.0" fill="#F9FAFF" transform="matrix(1.00, 0.00, -0.00, -1.00, 689.0, 533.0)"> </text><text xml:space="preserve" font-family="Helvetica-Light" font-size="38.0" fill="#F9FAFF" transform="matrix(1.00, 0.00, -0.00, -1.00, 699.5, 533.0)">o</text><text xml:space="preserve" font-family="Helvetica-Light" font-size="38.0" fill="#F9FAFF" transform="matrix(1.00, 0.00, -0.00, -1.00, 720.7, 533.0)">f</text><text xml:space="preserve" font-family="Helvetica-Light" font-size="38.0" fill="#F9FAFF" transform="matrix(1.00, 0.00, -0.00, -1.00, 731.2, 533.0)"> </text><text xml:space="preserve" font-family="Helvetica-Light" font-size="38.0" fill="#F9FAFF" transform="matrix(1.00, 0.00, -0.00, -1.00, 741.8, 533.0)">c</text><text xml:space="preserve" font-family="Helvetica-Light" font-size="38.0" fill="#F9FAFF" transform="matrix(1.00, 0.00, -0.00, -1.00, 762.9, 533.0)">o</text><text xml:space="preserve" font-family="Helvetica-Light" font-size="38.0" fill="#F9FAFF" transform="matrix(1.00, 0.00, -0.00, -1.00, 784.0, 533.0)">r</text><text xml:space="preserve" font-family="Helvetica-Light" font-size="38.0" fill="#F9FAFF" transform="matrix(1.00, 0.00, -0.00, -1.00, 796.7, 533.0)">p</text><text xml:space="preserve" font-family="Helvetica-Light" font-size="38.0" fill="#F9FAFF" transform="matrix(1.00, 0.00, -0.00, -1.00, 819.9, 533.0)">o</text><text xml:space="preserve" font-family="Helvetica-Light" font-size="38.0" fill="#F9FAFF" transform="matrix(1.00, 0.00, -0.00, -1.00, 841.0, 533.0)">r</text><text xml:space="preserve" font-family="Helvetica-Light" font-size="38.0" fill="#F9FAFF" transform="matrix(1.00, 0.00, -0.00, -1.00, 853.7, 533.0)">a</text><text xml:space="preserve" font-family="Helvetica-Light" font-size="38.0" fill="#F9FAFF" transform="matrix(1.00, 0.00, -0.00, -1.00, 874.8, 533.0)">t</text><text xml:space="preserve" font-family="Helvetica-Light" font-size="38.0" fill="#F9FAFF" transform="matrix(1.00, 0.00, -0.00, -1.00, 885.4, 533.0)">i</text><text xml:space="preserve" font-family="Helvetica-Light" font-size="38.0" fill="#F9FAFF" transform="matrix(1.00, 0.00, -0.00, -1.00, 893.8, 533.0)">o</text><text xml:space="preserve" font-family="Helvetica-Light" font-size="38.0" fill="#F9FAFF" transform="matrix(1.00, 0.00, -0.00, -1.00, 915.0, 533.0)">n</text><text xml:space="preserve" font-family="Helvetica-Light" font-size="38.0" fill="#F9FAFF" transform="matrix(1.00, 0.00, -0.00, -1.00, 936.1, 533.0)">s</text><text xml:space="preserve" font-family="Helvetica-Light" font-size="38.0" fill="#F9FAFF" transform="matrix(1.00, 0.00, -0.00, -1.00, 955.1, 533.0)"> </text><text xml:space="preserve" font-family="Helvetica-Light" font-size="38.0" fill="#F9FAFF" transform="matrix(1.00, 0.00, -0.00, -1.00, 66.0, 477.0)">a</text><text xml:space="preserve" font-family="Helvetica-Light" font-size="38.0" fill="#F9FAFF" transform="matrix(1.00, 0.00, -0.00, -1.00, 87.1, 477.0)">n</text><text xml:space="preserve" font-family="Helvetica-Light" font-size="38.0" fill="#F9FAFF" transform="matrix(1.00, 0.00, -0.00, -1.00, 108.3, 477.0)">d</text><text xml:space="preserve" font-family="Helvetica-Light" font-size="38.0" fill="#F9FAFF" transform="matrix(1.00, 0.00, -0.00, -1.00, 131.5, 477.0)"> </text><text xml:space="preserve" font-family="Helvetica-Light" font-size="38.0" fill="#F9FAFF" transform="matrix(1.00, 0.00, -0.00, -1.00, 142.0, 477.0)">p</text><text xml:space="preserve" font-family="Helvetica-Light" font-size="38.0" fill="#F9FAFF" transform="matrix(1.00, 0.00, -0.00, -1.00, 165.3, 477.0)">u</text><text xml:space="preserve" font-family="Helvetica-Light" font-size="38.0" fill="#F9FAFF" transform="matrix(1.00, 0.00, -0.00, -1.00, 186.4, 477.0)">b</text><text xml:space="preserve" font-family="Helvetica-Light" font-size="38.0" fill="#F9FAFF" transform="matrix(1.00, 0.00, -0.00, -1.00, 209.6, 477.0)">l</text><text xml:space="preserve" font-family="Helvetica-Light" font-size="38.0" fill="#F9FAFF" transform="matrix(1.00, 0.00, -0.00, -1.00, 218.0, 477.0)">i</text><text xml:space="preserve" font-family="Helvetica-Light" font-size="38.0" fill="#F9FAFF" transform="matrix(1.00, 0.00, -0.00, -1.00, 226.5, 477.0)">c</text><text xml:space="preserve" font-family="Helvetica-Light" font-size="38.0" fill="#F9FAFF" transform="matrix(1.00, 0.00, -0.00, -1.00, 247.6, 477.0)"> </text><text xml:space="preserve" font-family="Helvetica-Light" font-size="38.0" fill="#F9FAFF" transform="matrix(1.00, 0.00, -0.00, -1.00, 258.2, 477.0)">o</text><text xml:space="preserve" font-family="Helvetica-Light" font-size="38.0" fill="#F9FAFF" transform="matrix(1.00, 0.00, -0.00, -1.00, 279.3, 477.0)">f</text><text xml:space="preserve" font-family="Helvetica-Light" font-size="38.0" fill="#F9FAFF" transform="matrix(1.00, 0.00, -0.00, -1.00, 289.2, 477.0)">ﬁ</text><text xml:space="preserve" font-family="Helvetica-Light" font-size="38.0" fill="#F9FAFF" transform="matrix(1.00, 0.00, -0.00, -1.00, 308.2, 477.0)">c</text><text xml:space="preserve" font-family="Helvetica-Light" font-size="38.0" fill="#F9FAFF" transform="matrix(1.00, 0.00, -0.00, -1.00, 329.3, 477.0)">i</text><text xml:space="preserve" font-family="Helvetica-Light" font-size="38.0" fill="#F9FAFF" transform="matrix(1.00, 0.00, -0.00, -1.00, 337.7, 477.0)">a</text><text xml:space="preserve" font-family="Helvetica-Light" font-size="38.0" fill="#F9FAFF" transform="matrix(1.00, 0.00, -0.00, -1.00, 358.9, 477.0)">l</text><text xml:space="preserve" font-family="Helvetica-Light" font-size="38.0" fill="#F9FAFF" transform="matrix(1.00, 0.00, -0.00, -1.00, 367.3, 477.0)">s</text><text xml:space="preserve" font-family="Helvetica-Light" font-size="38.0" fill="#F9FAFF" transform="matrix(1.00, 0.00, -0.00, -1.00, 386.3, 477.0)"> </text><text xml:space="preserve" font-family="Helvetica-Light" font-size="38.0" fill="#F9FAFF" transform="matrix(1.00, 0.00, -0.00, -1.00, 396.9, 477.0)">i</text><text xml:space="preserve" font-family="Helvetica-Light" font-size="38.0" fill="#F9FAFF" transform="matrix(1.00, 0.00, -0.00, -1.00, 405.3, 477.0)">n</text><text xml:space="preserve" font-family="Helvetica-Light" font-size="38.0" fill="#F9FAFF" transform="matrix(1.00, 0.00, -0.00, -1.00, 426.4, 477.0)"> </text><text xml:space="preserve" font-family="Helvetica-Light" font-size="38.0" fill="#F9FAFF" transform="matrix(1.00, 0.00, -0.00, -1.00, 437.0, 477.0)">d</text><text xml:space="preserve" font-family="Helvetica-Light" font-size="38.0" fill="#F9FAFF" transform="matrix(1.00, 0.00, -0.00, -1.00, 460.2, 477.0)">o</text><text xml:space="preserve" font-family="Helvetica-Light" font-size="38.0" fill="#F9FAFF" transform="matrix(1.00, 0.00, -0.00, -1.00, 481.3, 477.0)">z</text><text xml:space="preserve" font-family="Helvetica-Light" font-size="38.0" fill="#F9FAFF" transform="matrix(1.00, 0.00, -0.00, -1.00, 500.3, 477.0)">e</text><text xml:space="preserve" font-family="Helvetica-Light" font-size="38.0" fill="#F9FAFF" transform="matrix(1.00, 0.00, -0.00, -1.00, 521.5, 477.0)">n</text><text xml:space="preserve" font-family="Helvetica-Light" font-size="38.0" fill="#F9FAFF" transform="matrix(1.00, 0.00, -0.00, -1.00, 542.6, 477.0)">s</text><text xml:space="preserve" font-family="Helvetica-Light" font-size="38.0" fill="#F9FAFF" transform="matrix(1.00, 0.00, -0.00, -1.00, 561.6, 477.0)"> </text><text xml:space="preserve" font-family="Helvetica-Light" font-size="38.0" fill="#F9FAFF" transform="matrix(1.00, 0.00, -0.00, -1.00, 572.2, 477.0)">o</text><text xml:space="preserve" font-family="Helvetica-Light" font-size="38.0" fill="#F9FAFF" transform="matrix(1.00, 0.00, -0.00, -1.00, 593.3, 477.0)">f</text><text xml:space="preserve" font-family="Helvetica-Light" font-size="38.0" fill="#F9FAFF" transform="matrix(1.00, 0.00, -0.00, -1.00, 603.9, 477.0)"> </text><text xml:space="preserve" font-family="Helvetica-Light" font-size="38.0" fill="#F9FAFF" transform="matrix(1.00, 0.00, -0.00, -1.00, 614.4, 477.0)">c</text><text xml:space="preserve" font-family="Helvetica-Light" font-size="38.0" fill="#F9FAFF" transform="matrix(1.00, 0.00, -0.00, -1.00, 635.5, 477.0)">o</text><text xml:space="preserve" font-family="Helvetica-Light" font-size="38.0" fill="#F9FAFF" transform="matrix(1.00, 0.00, -0.00, -1.00, 656.7, 477.0)">u</text><text xml:space="preserve" font-family="Helvetica-Light" font-size="38.0" fill="#F9FAFF" transform="matrix(1.00, 0.00, -0.00, -1.00, 677.8, 477.0)">n</text><text xml:space="preserve" font-family="Helvetica-Light" font-size="38.0" fill="#F9FAFF" transform="matrix(1.00, 0.00, -0.00, -1.00, 698.9, 477.0)">t</text><text xml:space="preserve" font-family="Helvetica-Light" font-size="38.0" fill="#F9FAFF" transform="matrix(1.00, 0.00, -0.00, -1.00, 709.5, 477.0)">r</text><text xml:space="preserve" font-family="Helvetica-Light" font-size="38.0" fill="#F9FAFF" transform="matrix(1.00, 0.00, -0.00, -1.00, 722.1, 477.0)">i</text><text xml:space="preserve" font-family="Helvetica-Light" font-size="38.0" fill="#F9FAFF" transform="matrix(1.00, 0.00, -0.00, -1.00, 730.6, 477.0)">e</text><text xml:space="preserve" font-family="Helvetica-Light" font-size="38.0" fill="#F9FAFF" transform="matrix(1.00, 0.00, -0.00, -1.00, 751.7, 477.0)">s</text><text xml:space="preserve" font-family="Helvetica-Light" font-size="38.0" fill="#F9FAFF" transform="matrix(1.00, 0.00, -0.00, -1.00, 770.7, 477.0)">.</text><text xml:space="preserve" font-family="Helvetica-Light" font-size="38.0" fill="#F9FAFF" transform="matrix(1.00, 0.00, -0.00, -1.00, 781.3, 477.0)"> </text><text xml:space="preserve" font-family="Helvetica-Light" font-size="38.0" fill="#F9FAFF" transform="matrix(1.00, 0.00, -0.00, -1.00, 66.0, 422.0)"> </text><text xml:space="preserve" font-family="Helvetica-Light" font-size="38.0" fill="#F9FAFF" transform="matrix(1.00, 0.00, -0.00, -1.00, 76.6, 422.0)"> </text><text xml:space="preserve" font-family="Helvetica-Light" font-size="38.0" fill="#F9FAFF" transform="matrix(1.00, 0.00, -0.00, -1.00, 66.0, 367.0)">D</text><text xml:space="preserve" font-family="Helvetica-Light" font-size="38.0" fill="#F9FAFF" transform="matrix(1.00, 0.00, -0.00, -1.00, 93.4, 367.0)">e</text><text xml:space="preserve" font-family="Helvetica-Light" font-size="38.0" fill="#F9FAFF" transform="matrix(1.00, 0.00, -0.00, -1.00, 114.6, 367.0)">s</text><text xml:space="preserve" font-family="Helvetica-Light" font-size="38.0" fill="#F9FAFF" transform="matrix(1.00, 0.00, -0.00, -1.00, 133.6, 367.0)">p</text><text xml:space="preserve" font-family="Helvetica-Light" font-size="38.0" fill="#F9FAFF" transform="matrix(1.00, 0.00, -0.00, -1.00, 156.8, 367.0)">i</text><text xml:space="preserve" font-family="Helvetica-Light" font-size="38.0" fill="#F9FAFF" transform="matrix(1.00, 0.00, -0.00, -1.00, 165.2, 367.0)">t</text><text xml:space="preserve" font-family="Helvetica-Light" font-size="38.0" fill="#F9FAFF" transform="matrix(1.00, 0.00, -0.00, -1.00, 175.8, 367.0)">e</text><text xml:space="preserve" font-family="Helvetica-Light" font-size="38.0" fill="#F9FAFF" transform="matrix(1.00, 0.00, -0.00, -1.00, 196.9, 367.0)"> </text><text xml:space="preserve" font-family="Helvetica-Light" font-size="38.0" fill="#F9FAFF" transform="matrix(1.00, 0.00, -0.00, -1.00, 207.5, 367.0)">t</text><text xml:space="preserve" font-family="Helvetica-Light" font-size="38.0" fill="#F9FAFF" transform="matrix(1.00, 0.00, -0.00, -1.00, 218.0, 367.0)">h</text><text xml:space="preserve" font-family="Helvetica-Light" font-size="38.0" fill="#F9FAFF" transform="matrix(1.00, 0.00, -0.00, -1.00, 239.2, 367.0)">e</text><text xml:space="preserve" font-family="Helvetica-Light" font-size="38.0" fill="#F9FAFF" transform="matrix(1.00, 0.00, -0.00, -1.00, 260.3, 367.0)"> </text><text xml:space="preserve" font-family="Helvetica-Light" font-size="38.0" fill="#F9FAFF" transform="matrix(1.00, 0.00, -0.00, -1.00, 270.9, 367.0)">w</text><text xml:space="preserve" font-family="Helvetica-Light" font-size="38.0" fill="#F9FAFF" transform="matrix(1.00, 0.00, -0.00, -1.00, 298.3, 367.0)">h</text><text xml:space="preserve" font-family="Helvetica-Light" font-size="38.0" fill="#F9FAFF" transform="matrix(1.00, 0.00, -0.00, -1.00, 319.4, 367.0)">i</text><text xml:space="preserve" font-family="Helvetica-Light" font-size="38.0" fill="#F9FAFF" transform="matrix(1.00, 0.00, -0.00, -1.00, 327.9, 367.0)">s</text><text xml:space="preserve" font-family="Helvetica-Light" font-size="38.0" fill="#F9FAFF" transform="matrix(1.00, 0.00, -0.00, -1.00, 346.9, 367.0)">t</text><text xml:space="preserve" font-family="Helvetica-Light" font-size="38.0" fill="#F9FAFF" transform="matrix(1.00, 0.00, -0.00, -1.00, 357.4, 367.0)">l</text><text xml:space="preserve" font-family="Helvetica-Light" font-size="38.0" fill="#F9FAFF" transform="matrix(1.00, 0.00, -0.00, -1.00, 365.9, 367.0)">e</text><text xml:space="preserve" font-family="Helvetica-Light" font-size="38.0" fill="#F9FAFF" transform="matrix(1.00, 0.00, -0.00, -1.00, 387.0, 367.0)">b</text><text xml:space="preserve" font-family="Helvetica-Light" font-size="38.0" fill="#F9FAFF" transform="matrix(1.00, 0.00, -0.00, -1.00, 410.2, 367.0)">l</text><text xml:space="preserve" font-family="Helvetica-Light" font-size="38.0" fill="#F9FAFF" transform="matrix(1.00, 0.00, -0.00, -1.00, 418.6, 367.0)">o</text><text xml:space="preserve" font-family="Helvetica-Light" font-size="38.0" fill="#F9FAFF" transform="matrix(1.00, 0.00, -0.00, -1.00, 439.8, 367.0)">w</text><text xml:space="preserve" font-family="Helvetica-Light" font-size="38.0" fill="#F9FAFF" transform="matrix(1.00, 0.00, -0.00, -1.00, 467.2, 367.0)">e</text><text xml:space="preserve" font-family="Helvetica-Light" font-size="38.0" fill="#F9FAFF" transform="matrix(1.00, 0.00, -0.00, -1.00, 488.3, 367.0)">r</text><text xml:space="preserve" font-family="Helvetica-Light" font-size="38.0" fill="#F9FAFF" transform="matrix(1.00, 0.00, -0.00, -1.00, 501.0, 367.0)"> </text><text xml:space="preserve" font-family="Helvetica-Light" font-size="38.0" fill="#F9FAFF" transform="matrix(1.00, 0.00, -0.00, -1.00, 511.5, 367.0)">s</text><text xml:space="preserve" font-family="Helvetica-Light" font-size="38.0" fill="#F9FAFF" transform="matrix(1.00, 0.00, -0.00, -1.00, 530.5, 367.0)">t</text><text xml:space="preserve" font-family="Helvetica-Light" font-size="38.0" fill="#F9FAFF" transform="matrix(1.00, 0.00, -0.00, -1.00, 541.1, 367.0)">a</text><text xml:space="preserve" font-family="Helvetica-Light" font-size="38.0" fill="#F9FAFF" transform="matrix(1.00, 0.00, -0.00, -1.00, 562.2, 367.0)">t</text><text xml:space="preserve" font-family="Helvetica-Light" font-size="38.0" fill="#F9FAFF" transform="matrix(1.00, 0.00, -0.00, -1.00, 572.8, 367.0)">i</text><text xml:space="preserve" font-family="Helvetica-Light" font-size="38.0" fill="#F9FAFF" transform="matrix(1.00, 0.00, -0.00, -1.00, 581.2, 367.0)">n</text><text xml:space="preserve" font-family="Helvetica-Light" font-size="38.0" fill="#F9FAFF" transform="matrix(1.00, 0.00, -0.00, -1.00, 602.4, 367.0)">g</text><text xml:space="preserve" font-family="Helvetica-Light" font-size="38.0" fill="#F9FAFF" transform="matrix(1.00, 0.00, -0.00, -1.00, 625.6, 367.0)"> </text><text xml:space="preserve" font-family="Helvetica-Light" font-size="38.0" fill="#F9FAFF" transform="matrix(1.00, 0.00, -0.00, -1.00, 636.2, 367.0)">t</text><text xml:space="preserve" font-family="Helvetica-Light" font-size="38.0" fill="#F9FAFF" transform="matrix(1.00, 0.00, -0.00, -1.00, 646.7, 367.0)">h</text><text xml:space="preserve" font-family="Helvetica-Light" font-size="38.0" fill="#F9FAFF" transform="matrix(1.00, 0.00, -0.00, -1.00, 667.8, 367.0)">e</text><text xml:space="preserve" font-family="Helvetica-Light" font-size="38.0" fill="#F9FAFF" transform="matrix(1.00, 0.00, -0.00, -1.00, 689.0, 367.0)">i</text><text xml:space="preserve" font-family="Helvetica-Light" font-size="38.0" fill="#F9FAFF" transform="matrix(1.00, 0.00, -0.00, -1.00, 697.4, 367.0)">r</text><text xml:space="preserve" font-family="Helvetica-Light" font-size="38.0" fill="#F9FAFF" transform="matrix(1.00, 0.00, -0.00, -1.00, 710.1, 367.0)"> </text><text xml:space="preserve" font-family="Helvetica-Light" font-size="38.0" fill="#F9FAFF" transform="matrix(1.00, 0.00, -0.00, -1.00, 720.6, 367.0)">“</text><text xml:space="preserve" font-family="Helvetica-Light" font-size="38.0" fill="#F9FAFF" transform="matrix(1.00, 0.00, -0.00, -1.00, 735.4, 367.0)">l</text><text xml:space="preserve" font-family="Helvetica-Light" font-size="38.0" fill="#F9FAFF" transform="matrix(1.00, 0.00, -0.00, -1.00, 743.8, 367.0)">i</text><text xml:space="preserve" font-family="Helvetica-Light" font-size="38.0" fill="#F9FAFF" transform="matrix(1.00, 0.00, -0.00, -1.00, 752.3, 367.0)">f</text><text xml:space="preserve" font-family="Helvetica-Light" font-size="38.0" fill="#F9FAFF" transform="matrix(1.00, 0.00, -0.00, -1.00, 762.8, 367.0)">e</text><text xml:space="preserve" font-family="Helvetica-Light" font-size="38.0" fill="#F9FAFF" transform="matrix(1.00, 0.00, -0.00, -1.00, 784.0, 367.0)"> </text><text xml:space="preserve" font-family="Helvetica-Light" font-size="38.0" fill="#F9FAFF" transform="matrix(1.00, 0.00, -0.00, -1.00, 794.5, 367.0)">i</text><text xml:space="preserve" font-family="Helvetica-Light" font-size="38.0" fill="#F9FAFF" transform="matrix(1.00, 0.00, -0.00, -1.00, 803.0, 367.0)">s</text><text xml:space="preserve" font-family="Helvetica-Light" font-size="38.0" fill="#F9FAFF" transform="matrix(1.00, 0.00, -0.00, -1.00, 822.0, 367.0)"> </text><text xml:space="preserve" font-family="Helvetica-Light" font-size="38.0" fill="#F9FAFF" transform="matrix(1.00, 0.00, -0.00, -1.00, 832.5, 367.0)">i</text><text xml:space="preserve" font-family="Helvetica-Light" font-size="38.0" fill="#F9FAFF" transform="matrix(1.00, 0.00, -0.00, -1.00, 841.0, 367.0)">n</text><text xml:space="preserve" font-family="Helvetica-Light" font-size="38.0" fill="#F9FAFF" transform="matrix(1.00, 0.00, -0.00, -1.00, 862.1, 367.0)"> </text><text xml:space="preserve" font-family="Helvetica-Light" font-size="38.0" fill="#F9FAFF" transform="matrix(1.00, 0.00, -0.00, -1.00, 66.0, 312.0)">d</text><text xml:space="preserve" font-family="Helvetica-Light" font-size="38.0" fill="#F9FAFF" transform="matrix(1.00, 0.00, -0.00, -1.00, 89.2, 312.0)">a</text><text xml:space="preserve" font-family="Helvetica-Light" font-size="38.0" fill="#F9FAFF" transform="matrix(1.00, 0.00, -0.00, -1.00, 110.3, 312.0)">n</text><text xml:space="preserve" font-family="Helvetica-Light" font-size="38.0" fill="#F9FAFF" transform="matrix(1.00, 0.00, -0.00, -1.00, 131.5, 312.0)">g</text><text xml:space="preserve" font-family="Helvetica-Light" font-size="38.0" fill="#F9FAFF" transform="matrix(1.00, 0.00, -0.00, -1.00, 154.7, 312.0)">e</text><text xml:space="preserve" font-family="Helvetica-Light" font-size="38.0" fill="#F9FAFF" transform="matrix(1.00, 0.00, -0.00, -1.00, 175.8, 312.0)">r</text><text xml:space="preserve" font-family="Helvetica-Light" font-size="38.0" fill="#F9FAFF" transform="matrix(1.00, 0.00, -0.00, -1.00, 185.0, 312.0)">,</text><text xml:space="preserve" font-family="Helvetica-Light" font-size="38.0" fill="#F9FAFF" transform="matrix(1.00, 0.00, -0.00, -1.00, 195.5, 312.0)">”</text><text xml:space="preserve" font-family="Helvetica-Light" font-size="38.0" fill="#F9FAFF" transform="matrix(1.00, 0.00, -0.00, -1.00, 210.3, 312.0)"> </text><text xml:space="preserve" font-family="Helvetica-Light" font-size="38.0" fill="#F9FAFF" transform="matrix(1.00, 0.00, -0.00, -1.00, 220.9, 312.0)">t</text><text xml:space="preserve" font-family="Helvetica-Light" font-size="38.0" fill="#F9FAFF" transform="matrix(1.00, 0.00, -0.00, -1.00, 231.5, 312.0)">h</text><text xml:space="preserve" font-family="Helvetica-Light" font-size="38.0" fill="#F9FAFF" transform="matrix(1.00, 0.00, -0.00, -1.00, 252.6, 312.0)">e</text><text xml:space="preserve" font-family="Helvetica-Light" font-size="38.0" fill="#F9FAFF" transform="matrix(1.00, 0.00, -0.00, -1.00, 273.7, 312.0)">y</text><text xml:space="preserve" font-family="Helvetica-Light" font-size="38.0" fill="#F9FAFF" transform="matrix(1.00, 0.00, -0.00, -1.00, 292.7, 312.0)"> </text><text xml:space="preserve" font-family="Helvetica-Light" font-size="38.0" fill="#F9FAFF" transform="matrix(1.00, 0.00, -0.00, -1.00, 303.3, 312.0)">d</text><text xml:space="preserve" font-family="Helvetica-Light" font-size="38.0" fill="#F9FAFF" transform="matrix(1.00, 0.00, -0.00, -1.00, 326.5, 312.0)">i</text><text xml:space="preserve" font-family="Helvetica-Light" font-size="38.0" fill="#F9FAFF" transform="matrix(1.00, 0.00, -0.00, -1.00, 334.9, 312.0)">d</text><text xml:space="preserve" font-family="Helvetica-Light" font-size="38.0" fill="#F9FAFF" transform="matrix(1.00, 0.00, -0.00, -1.00, 358.1, 312.0)">n</text><text xml:space="preserve" font-family="Helvetica-Light" font-size="38.0" fill="#F9FAFF" transform="matrix(1.00, 0.00, -0.00, -1.00, 379.3, 312.0)">'</text><text xml:space="preserve" font-family="Helvetica-Light" font-size="38.0" fill="#F9FAFF" transform="matrix(1.00, 0.00, -0.00, -1.00, 387.7, 312.0)">t</text><text xml:space="preserve" font-family="Helvetica-Light" font-size="38.0" fill="#F9FAFF" transform="matrix(1.00, 0.00, -0.00, -1.00, 398.3, 312.0)"> </text><text xml:space="preserve" font-family="Helvetica-Light" font-size="38.0" fill="#F9FAFF" transform="matrix(1.00, 0.00, -0.00, -1.00, 408.8, 312.0)">a</text><text xml:space="preserve" font-family="Helvetica-Light" font-size="38.0" fill="#F9FAFF" transform="matrix(1.00, 0.00, -0.00, -1.00, 430.0, 312.0)">s</text><text xml:space="preserve" font-family="Helvetica-Light" font-size="38.0" fill="#F9FAFF" transform="matrix(1.00, 0.00, -0.00, -1.00, 449.0, 312.0)">k</text><text xml:space="preserve" font-family="Helvetica-Light" font-size="38.0" fill="#F9FAFF" transform="matrix(1.00, 0.00, -0.00, -1.00, 468.0, 312.0)"> </text><text xml:space="preserve" font-family="Helvetica-Light" font-size="38.0" fill="#F9FAFF" transform="matrix(1.00, 0.00, -0.00, -1.00, 478.5, 312.0)">t</text><text xml:space="preserve" font-family="Helvetica-Light" font-size="38.0" fill="#F9FAFF" transform="matrix(1.00, 0.00, -0.00, -1.00, 489.1, 312.0)">o</text><text xml:space="preserve" font-family="Helvetica-Light" font-size="38.0" fill="#F9FAFF" transform="matrix(1.00, 0.00, -0.00, -1.00, 510.2, 312.0)"> </text><text xml:space="preserve" font-family="Helvetica-Light" font-size="38.0" fill="#F9FAFF" transform="matrix(1.00, 0.00, -0.00, -1.00, 520.8, 312.0)">b</text><text xml:space="preserve" font-family="Helvetica-Light" font-size="38.0" fill="#F9FAFF" transform="matrix(1.00, 0.00, -0.00, -1.00, 544.0, 312.0)">e</text><text xml:space="preserve" font-family="Helvetica-Light" font-size="38.0" fill="#F9FAFF" transform="matrix(1.00, 0.00, -0.00, -1.00, 565.1, 312.0)"> </text><text xml:space="preserve" font-family="Helvetica-Light" font-size="38.0" fill="#F9FAFF" transform="matrix(1.00, 0.00, -0.00, -1.00, 575.7, 312.0)">p</text><text xml:space="preserve" font-family="Helvetica-Light" font-size="38.0" fill="#F9FAFF" transform="matrix(1.00, 0.00, -0.00, -1.00, 598.9, 312.0)">a</text><text xml:space="preserve" font-family="Helvetica-Light" font-size="38.0" fill="#F9FAFF" transform="matrix(1.00, 0.00, -0.00, -1.00, 620.0, 312.0)">i</text><text xml:space="preserve" font-family="Helvetica-Light" font-size="38.0" fill="#F9FAFF" transform="matrix(1.00, 0.00, -0.00, -1.00, 628.5, 312.0)">d</text><text xml:space="preserve" font-family="Helvetica-Light" font-size="38.0" fill="#F9FAFF" transform="matrix(1.00, 0.00, -0.00, -1.00, 651.7, 312.0)">.</text><text xml:space="preserve" font-family="Helvetica-Light" font-size="38.0" fill="#F9FAFF" transform="matrix(1.00, 0.00, -0.00, -1.00, 662.3, 312.0)"> </text><text xml:space="preserve" font-family="Helvetica-Light" font-size="38.0" fill="#FF2600" transform="matrix(1.00, 0.00, -0.00, -1.00, 66.0, 201.0)">H</text><text xml:space="preserve" font-family="Helvetica-Light" font-size="38.0" fill="#FF2600" transform="matrix(1.00, 0.00, -0.00, -1.00, 93.4, 201.0)">o</text><text xml:space="preserve" font-family="Helvetica-Light" font-size="38.0" fill="#FF2600" transform="matrix(1.00, 0.00, -0.00, -1.00, 114.6, 201.0)">w</text><text xml:space="preserve" font-family="Helvetica-Light" font-size="38.0" fill="#FF2600" transform="matrix(1.00, 0.00, -0.00, -1.00, 142.0, 201.0)"> </text><text xml:space="preserve" font-family="Helvetica-Light" font-size="38.0" fill="#FF2600" transform="matrix(1.00, 0.00, -0.00, -1.00, 152.6, 201.0)">m</text><text xml:space="preserve" font-family="Helvetica-Light" font-size="38.0" fill="#FF2600" transform="matrix(1.00, 0.00, -0.00, -1.00, 184.2, 201.0)">a</text><text xml:space="preserve" font-family="Helvetica-Light" font-size="38.0" fill="#FF2600" transform="matrix(1.00, 0.00, -0.00, -1.00, 205.3, 201.0)">n</text><text xml:space="preserve" font-family="Helvetica-Light" font-size="38.0" fill="#FF2600" transform="matrix(1.00, 0.00, -0.00, -1.00, 226.5, 201.0)">y</text><text xml:space="preserve" font-family="Helvetica-Light" font-size="38.0" fill="#FF2600" transform="matrix(1.00, 0.00, -0.00, -1.00, 245.5, 201.0)"> </text><text xml:space="preserve" font-family="Helvetica-Light" font-size="38.0" fill="#FF2600" transform="matrix(1.00, 0.00, -0.00, -1.00, 256.0, 201.0)">w</text><text xml:space="preserve" font-family="Helvetica-Light" font-size="38.0" fill="#FF2600" transform="matrix(1.00, 0.00, -0.00, -1.00, 283.5, 201.0)">h</text><text xml:space="preserve" font-family="Helvetica-Light" font-size="38.0" fill="#FF2600" transform="matrix(1.00, 0.00, -0.00, -1.00, 304.6, 201.0)">i</text><text xml:space="preserve" font-family="Helvetica-Light" font-size="38.0" fill="#FF2600" transform="matrix(1.00, 0.00, -0.00, -1.00, 313.0, 201.0)">s</text><text xml:space="preserve" font-family="Helvetica-Light" font-size="38.0" fill="#FF2600" transform="matrix(1.00, 0.00, -0.00, -1.00, 332.0, 201.0)">t</text><text xml:space="preserve" font-family="Helvetica-Light" font-size="38.0" fill="#FF2600" transform="matrix(1.00, 0.00, -0.00, -1.00, 342.6, 201.0)">l</text><text xml:space="preserve" font-family="Helvetica-Light" font-size="38.0" fill="#FF2600" transform="matrix(1.00, 0.00, -0.00, -1.00, 351.0, 201.0)">e</text><text xml:space="preserve" font-family="Helvetica-Light" font-size="38.0" fill="#FF2600" transform="matrix(1.00, 0.00, -0.00, -1.00, 372.2, 201.0)">b</text><text xml:space="preserve" font-family="Helvetica-Light" font-size="38.0" fill="#FF2600" transform="matrix(1.00, 0.00, -0.00, -1.00, 395.4, 201.0)">l</text><text xml:space="preserve" font-family="Helvetica-Light" font-size="38.0" fill="#FF2600" transform="matrix(1.00, 0.00, -0.00, -1.00, 403.8, 201.0)">o</text><text xml:space="preserve" font-family="Helvetica-Light" font-size="38.0" fill="#FF2600" transform="matrix(1.00, 0.00, -0.00, -1.00, 424.9, 201.0)">w</text><text xml:space="preserve" font-family="Helvetica-Light" font-size="38.0" fill="#FF2600" transform="matrix(1.00, 0.00, -0.00, -1.00, 452.4, 201.0)">e</text><text xml:space="preserve" font-family="Helvetica-Light" font-size="38.0" fill="#FF2600" transform="matrix(1.00, 0.00, -0.00, -1.00, 473.5, 201.0)">r</text><text xml:space="preserve" font-family="Helvetica-Light" font-size="38.0" fill="#FF2600" transform="matrix(1.00, 0.00, -0.00, -1.00, 486.2, 201.0)">s</text><text xml:space="preserve" font-family="Helvetica-Light" font-size="38.0" fill="#FF2600" transform="matrix(1.00, 0.00, -0.00, -1.00, 505.2, 201.0)"> </text><text xml:space="preserve" font-family="Helvetica-Light" font-size="38.0" fill="#FF2600" transform="matrix(1.00, 0.00, -0.00, -1.00, 515.7, 201.0)">a</text><text xml:space="preserve" font-family="Helvetica-Light" font-size="38.0" fill="#FF2600" transform="matrix(1.00, 0.00, -0.00, -1.00, 536.9, 201.0)">r</text><text xml:space="preserve" font-family="Helvetica-Light" font-size="38.0" fill="#FF2600" transform="matrix(1.00, 0.00, -0.00, -1.00, 548.8, 201.0)">e</text><text xml:space="preserve" font-family="Helvetica-Light" font-size="38.0" fill="#FF2600" transform="matrix(1.00, 0.00, -0.00, -1.00, 570.0, 201.0)"> </text><text xml:space="preserve" font-family="Helvetica-Light" font-size="38.0" fill="#FF2600" transform="matrix(1.00, 0.00, -0.00, -1.00, 580.5, 201.0)">s</text><text xml:space="preserve" font-family="Helvetica-Light" font-size="38.0" fill="#FF2600" transform="matrix(1.00, 0.00, -0.00, -1.00, 599.5, 201.0)">i</text><text xml:space="preserve" font-family="Helvetica-Light" font-size="38.0" fill="#FF2600" transform="matrix(1.00, 0.00, -0.00, -1.00, 608.0, 201.0)">l</text><text xml:space="preserve" font-family="Helvetica-Light" font-size="38.0" fill="#FF2600" transform="matrix(1.00, 0.00, -0.00, -1.00, 616.4, 201.0)">e</text><text xml:space="preserve" font-family="Helvetica-Light" font-size="38.0" fill="#FF2600" transform="matrix(1.00, 0.00, -0.00, -1.00, 637.5, 201.0)">n</text><text xml:space="preserve" font-family="Helvetica-Light" font-size="38.0" fill="#FF2600" transform="matrix(1.00, 0.00, -0.00, -1.00, 658.6, 201.0)">t</text><text xml:space="preserve" font-family="Helvetica-Light" font-size="38.0" fill="#FF2600" transform="matrix(1.00, 0.00, -0.00, -1.00, 669.2, 201.0)"> </text><text xml:space="preserve" font-family="Helvetica-Light" font-size="38.0" fill="#FF2600" transform="matrix(1.00, 0.00, -0.00, -1.00, 679.8, 201.0)">b</text><text xml:space="preserve" font-family="Helvetica-Light" font-size="38.0" fill="#FF2600" transform="matrix(1.00, 0.00, -0.00, -1.00, 703.0, 201.0)">e</text><text xml:space="preserve" font-family="Helvetica-Light" font-size="38.0" fill="#FF2600" transform="matrix(1.00, 0.00, -0.00, -1.00, 724.1, 201.0)">c</text><text xml:space="preserve" font-family="Helvetica-Light" font-size="38.0" fill="#FF2600" transform="matrix(1.00, 0.00, -0.00, -1.00, 745.2, 201.0)">a</text><text xml:space="preserve" font-family="Helvetica-Light" font-size="38.0" fill="#FF2600" transform="matrix(1.00, 0.00, -0.00, -1.00, 766.4, 201.0)">u</text><text xml:space="preserve" font-family="Helvetica-Light" font-size="38.0" fill="#FF2600" transform="matrix(1.00, 0.00, -0.00, -1.00, 787.5, 201.0)">s</text><text xml:space="preserve" font-family="Helvetica-Light" font-size="38.0" fill="#FF2600" transform="matrix(1.00, 0.00, -0.00, -1.00, 806.5, 201.0)">e</text><text xml:space="preserve" font-family="Helvetica-Light" font-size="38.0" fill="#FF2600" transform="matrix(1.00, 0.00, -0.00, -1.00, 827.6, 201.0)"> </text><text xml:space="preserve" font-family="Helvetica-Light" font-size="38.0" fill="#FF2600" transform="matrix(1.00, 0.00, -0.00, -1.00, 838.2, 201.0)"> </text><text xml:space="preserve" font-family="Helvetica-Light" font-size="38.0" fill="#FF2600" transform="matrix(1.00, 0.00, -0.00, -1.00, 66.0, 146.0)">t</text><text xml:space="preserve" font-family="Helvetica-Light" font-size="38.0" fill="#FF2600" transform="matrix(1.00, 0.00, -0.00, -1.00, 76.6, 146.0)">h</text><text xml:space="preserve" font-family="Helvetica-Light" font-size="38.0" fill="#FF2600" transform="matrix(1.00, 0.00, -0.00, -1.00, 97.7, 146.0)">e</text><text xml:space="preserve" font-family="Helvetica-Light" font-size="38.0" fill="#FF2600" transform="matrix(1.00, 0.00, -0.00, -1.00, 118.8, 146.0)">y</text><text xml:space="preserve" font-family="Helvetica-Light" font-size="38.0" fill="#FF2600" transform="matrix(1.00, 0.00, -0.00, -1.00, 137.8, 146.0)"> </text><text xml:space="preserve" font-family="Helvetica-Light" font-size="38.0" fill="#FF2600" transform="matrix(1.00, 0.00, -0.00, -1.00, 148.4, 146.0)">c</text><text xml:space="preserve" font-family="Helvetica-Light" font-size="38.0" fill="#FF2600" transform="matrix(1.00, 0.00, -0.00, -1.00, 169.5, 146.0)">a</text><text xml:space="preserve" font-family="Helvetica-Light" font-size="38.0" fill="#FF2600" transform="matrix(1.00, 0.00, -0.00, -1.00, 190.6, 146.0)">n</text><text xml:space="preserve" font-family="Helvetica-Light" font-size="38.0" fill="#FF2600" transform="matrix(1.00, 0.00, -0.00, -1.00, 211.8, 146.0)">'</text><text xml:space="preserve" font-family="Helvetica-Light" font-size="38.0" fill="#FF2600" transform="matrix(1.00, 0.00, -0.00, -1.00, 220.2, 146.0)">t</text><text xml:space="preserve" font-family="Helvetica-Light" font-size="38.0" fill="#FF2600" transform="matrix(1.00, 0.00, -0.00, -1.00, 230.8, 146.0)"> </text><text xml:space="preserve" font-family="Helvetica-Light" font-size="38.0" fill="#FF2600" transform="matrix(1.00, 0.00, -0.00, -1.00, 241.3, 146.0)">a</text><text xml:space="preserve" font-family="Helvetica-Light" font-size="38.0" fill="#FF2600" transform="matrix(1.00, 0.00, -0.00, -1.00, 262.5, 146.0)">f</text><text xml:space="preserve" font-family="Helvetica-Light" font-size="38.0" fill="#FF2600" transform="matrix(1.00, 0.00, -0.00, -1.00, 272.3, 146.0)">f</text><text xml:space="preserve" font-family="Helvetica-Light" font-size="38.0" fill="#FF2600" transform="matrix(1.00, 0.00, -0.00, -1.00, 282.9, 146.0)">o</text><text xml:space="preserve" font-family="Helvetica-Light" font-size="38.0" fill="#FF2600" transform="matrix(1.00, 0.00, -0.00, -1.00, 304.0, 146.0)">r</text><text xml:space="preserve" font-family="Helvetica-Light" font-size="38.0" fill="#FF2600" transform="matrix(1.00, 0.00, -0.00, -1.00, 316.0, 146.0)">d</text><text xml:space="preserve" font-family="Helvetica-Light" font-size="38.0" fill="#FF2600" transform="matrix(1.00, 0.00, -0.00, -1.00, 339.2, 146.0)"> </text><text xml:space="preserve" font-family="Helvetica-Light" font-size="38.0" fill="#FF2600" transform="matrix(1.00, 0.00, -0.00, -1.00, 349.8, 146.0)">t</text><text xml:space="preserve" font-family="Helvetica-Light" font-size="38.0" fill="#FF2600" transform="matrix(1.00, 0.00, -0.00, -1.00, 360.3, 146.0)">o</text><text xml:space="preserve" font-family="Helvetica-Light" font-size="38.0" fill="#FF2600" transform="matrix(1.00, 0.00, -0.00, -1.00, 381.5, 146.0)"> </text><text xml:space="preserve" font-family="Helvetica-Light" font-size="38.0" fill="#FF2600" transform="matrix(1.00, 0.00, -0.00, -1.00, 392.0, 146.0)">s</text><text xml:space="preserve" font-family="Helvetica-Light" font-size="38.0" fill="#FF2600" transform="matrix(1.00, 0.00, -0.00, -1.00, 411.0, 146.0)">p</text><text xml:space="preserve" font-family="Helvetica-Light" font-size="38.0" fill="#FF2600" transform="matrix(1.00, 0.00, -0.00, -1.00, 434.3, 146.0)">e</text><text xml:space="preserve" font-family="Helvetica-Light" font-size="38.0" fill="#FF2600" transform="matrix(1.00, 0.00, -0.00, -1.00, 455.4, 146.0)">a</text><text xml:space="preserve" font-family="Helvetica-Light" font-size="38.0" fill="#FF2600" transform="matrix(1.00, 0.00, -0.00, -1.00, 476.5, 146.0)">k</text><text xml:space="preserve" font-family="Helvetica-Light" font-size="38.0" fill="#FF2600" transform="matrix(1.00, 0.00, -0.00, -1.00, 495.5, 146.0)"> </text><text xml:space="preserve" font-family="Helvetica-Light" font-size="38.0" fill="#FF2600" transform="matrix(1.00, 0.00, -0.00, -1.00, 506.1, 146.0)">o</text><text xml:space="preserve" font-family="Helvetica-Light" font-size="38.0" fill="#FF2600" transform="matrix(1.00, 0.00, -0.00, -1.00, 527.2, 146.0)">u</text><text xml:space="preserve" font-family="Helvetica-Light" font-size="38.0" fill="#FF2600" transform="matrix(1.00, 0.00, -0.00, -1.00, 548.3, 146.0)">t</text><text xml:space="preserve" font-family="Helvetica-Light" font-size="38.0" fill="#FF2600" transform="matrix(1.00, 0.00, -0.00, -1.00, 558.9, 146.0)">?</text><text xml:space="preserve" font-family="Helvetica-Light" font-size="38.0" fill="#FF2600" transform="matrix(1.00, 0.00, -0.00, -1.00, 577.9, 146.0)"> </text><text xml:space="preserve" font-family="Helvetica-Light" font-size="38.0" fill="#FF2600" transform="matrix(1.00, 0.00, -0.00, -1.00, 588.5, 146.0)"> </text></g></svg>